SplineFontDB: 3.2
FontName: NewCMSans10-Book
FullName: NewComputerModernSans10-Book
FamilyName: NewComputerModernSans10
Weight: Book
Copyright: (C) 2019-2021 Antonis Tsolomitis. This work is released under the GUST Font License --  see http://tug.org/fonts/licenses/GUST-FONT-LICENSE.txt for details.
Version: 3.93
ItalicAngle: 0
UnderlinePosition: -146
UnderlineWidth: 40
Ascent: 806
Descent: 194
InvalidEm: 0
LayerCount: 2
Layer: 0 0 "Back" 1
Layer: 1 0 "Fore" 0
XUID: [1021 210 1223046955 9666053]
StyleMap: 0x0040
FSType: 12
OS2Version: 3
OS2_WeightWidthSlopeOnly: 0
OS2_UseTypoMetrics: 0
CreationTime: 1254996025
ModificationTime: 1633794164
PfmFamily: 81
TTFWeight: 400
TTFWidth: 5
LineGap: 0
VLineGap: 0
Panose: 0 0 5 0 0 0 0 0 0 0
OS2TypoAscent: 806
OS2TypoAOffset: 0
OS2TypoDescent: -194
OS2TypoDOffset: 0
OS2TypoLinegap: 200
OS2WinAscent: 1154
OS2WinAOffset: 0
OS2WinDescent: 309
OS2WinDOffset: 0
HheadAscent: 1154
HheadAOffset: 0
HheadDescent: -309
HheadDOffset: 0
OS2SubXSize: 650
OS2SubYSize: 600
OS2SubXOff: 0
OS2SubYOff: 75
OS2SupXSize: 650
OS2SupYSize: 600
OS2SupXOff: 0
OS2SupYOff: 350
OS2StrikeYSize: 40
OS2StrikeYPos: 266
OS2CapHeight: 694
OS2XHeight: 444
OS2Vendor: 'UKWN'
OS2CodePages: 20000193.00000000
OS2UnicodeRanges: 20000007.00000000.00000000.00000000
Lookup: 1 0 0 "'aalt' Access All Alternates lookup 0" { "'aalt' Access All Alternates lookup 0 subtable"  } ['aalt' ('DFLT' <'dflt' > 'cyrl' <'dflt' > 'latn' <'AZE ' 'CRT ' 'MOL ' 'NLD ' 'PLK ' 'ROM ' 'TRK ' 'dflt' > ) ]
Lookup: 3 0 0 "'aalt' Access All Alternates lookup 1" { "'aalt' Access All Alternates lookup 1 subtable"  } ['aalt' ('DFLT' <'dflt' > 'cyrl' <'dflt' > 'latn' <'AZE ' 'CRT ' 'MOL ' 'NLD ' 'PLK ' 'ROM ' 'TRK ' 'dflt' > ) ]
Lookup: 1 0 0 "'locl' Localized Forms in Latin lookup 2" { "'locl' Localized Forms in Latin lookup 2 subtable"  } ['locl' ('latn' <'MOL ' 'ROM ' > ) ]

StartChar: acute.dup
Encoding: 1114113 -1 1
Width: 500
Flags: W
HStem: 527 167
VStem: 176 220
LayerCount: 2
Fore
SplineSet
244 527 m 1
 176 527 l 1
 310 694 l 1
 396 694 l 1
 244 527 l 1
EndSplineSet
Validated: 1
EndChar

StartChar: AE.dup
Encoding: 1114114 -1 2
Width: 861
Flags: W
HStem: 0 77<510 818> 219 64<225 415> 326 68<510 777> 623 71<364 415 510 804>
VStem: 415 95<77 219 283 326 394 623>
LayerCount: 2
Fore
SplineSet
415 0 m 1
 415 219 l 1
 199 219 l 1
 109 0 l 1
 26 0 l 1
 310 694 l 1
 804 694 l 1
 804 622 l 1
 631 622 l 2
 623 622.666666667 617 623 613 623 c 2
 510 623 l 1
 510 394 l 1
 777 394 l 1
 777 326 l 1
 510 326 l 1
 510 77 l 1
 674 77 l 2
 678 77 684 77.3333333333 692 78 c 2
 818 78 l 1
 818 0 l 1
 415 0 l 1
415 623 m 1
 364 623 l 1
 225 283 l 1
 415 283 l 1
 415 623 l 1
EndSplineSet
Validated: 1
EndChar

StartChar: ae.dup
Encoding: 1114115 -1 3
Width: 722
Flags: W
HStem: -11 68<145.059 301.098 474.491 628.112> 215 62<410 626> 395 66<137.485 288.31 470.466 581.318>
VStem: 47 79<76.1621 153.934> 324 80<135.868 188>
LayerCount: 2
Fore
SplineSet
319 287 m 2
 319 344.110627071 290.276028287 395 237 395 c 0
 184.333333333 395 133 377.666666667 83 343 c 1
 76 417 l 1
 128 446.333333333 181.333333333 461 236 461 c 0
 296.666666667 461 343 436.666666667 375 388 c 1
 417 436.666666667 467 461 525 461 c 0
 580.333333333 461 620 442.333333333 644 405 c 0
 676.666666667 354.333333333 693 291 693 215 c 1
 404 215 l 1
 409.140490612 134.037272855 459.981623878 57 542 57 c 0
 591.333333333 57 637.666666667 76.6666666667 681 116 c 1
 688 42 l 1
 644 6.66666666667 595 -11 541 -11 c 0
 478.333333333 -11 424.666666667 13.3333333333 380 62 c 1
 358 30 319.333333333 9 264 -1 c 0
 223.333333333 -7.66666666667 190 -11 164 -11 c 0
 118 -11 86 6.33333333333 68 41 c 0
 54 67.6666666667 47 92.6666666667 47 116 c 0
 47 196 137.666666667 240.666666667 319 250 c 1
 319 287 l 2
582 373 m 0
 563.333333333 386.333333333 544.666666667 393 526 393 c 0
 465.45726272 393 423.01690582 331.434333431 410 277 c 1
 626 277 l 1
 619.333333333 324.333333333 604.666666667 356.333333333 582 373 c 0
126 117 m 0
 126 77.2805932848 169.748023233 57 213 57 c 0
 229.666666667 57 249.666666667 60 273 66 c 0
 307 74 324 95 324 129 c 0
 324 151 322.666666667 170.666666667 320 188 c 1
 287.333333333 187.333333333 250.666666667 183.333333333 210 176 c 0
 154 166 126 146.333333333 126 117 c 0
EndSplineSet
Validated: 1
EndChar

StartChar: cedilla.dup
Encoding: 1114116 -1 4
Width: 444
Flags: W
HStem: -192 168
VStem: 143 139
LayerCount: 2
Fore
SplineSet
216 -192 m 1
 143 -192 l 1
 216 -24 l 1
 282 -24 l 1
 216 -192 l 1
EndSplineSet
Validated: 1
EndChar

StartChar: circumflex.dup
Encoding: 1114117 -1 5
Width: 500
Flags: W
HStem: 525 172
VStem: 91 318
LayerCount: 2
Fore
SplineSet
342 525 m 1
 250 640 l 1
 158 525 l 1
 91 525 l 1
 219 697 l 1
 281 697 l 1
 409 525 l 1
 342 525 l 1
EndSplineSet
Validated: 1
EndChar

StartChar: dieresis.dup
Encoding: 1114118 -1 6
Width: 500
Flags: W
HStem: 571 80<137 222 278 363>
VStem: 137 85<571 651> 278 85<571 651>
LayerCount: 2
Fore
SplineSet
278 571 m 1
 278 651 l 1
 363 651 l 1
 363 571 l 1
 278 571 l 1
137 571 m 1
 137 651 l 1
 222 651 l 1
 222 571 l 1
 137 571 l 1
EndSplineSet
Validated: 1
EndChar

StartChar: Gcedilla
Encoding: 1114119 -1 7
Width: 667
Flags: W
HStem: -13 71<299.486 510.908> 235 68<383 513> 635 71<299.237 493.487>
VStem: 66 96<223.748 470.637> 292 44<-266 -244.243> 293 80<-155 -73> 513 85<71.7158 235>
CounterMasks: 1 e0
LayerCount: 2
Fore
SplineSet
387 -13 m 0xf2
 293.666666667 -13 216 24 154 98 c 0
 95.3333333333 168 66 250.666666667 66 346 c 256
 66 441.333333333 95.3333333333 524 154 594 c 0
 216 668.666666667 293.666666667 706 387 706 c 0
 460.333333333 706 528.333333333 689 591 655 c 1
 574 564 l 1
 518 611.333333333 455.666666667 635 387 635 c 0
 317.666666667 635 261.666666667 603 219 539 c 0
 181 483 162 418.666666667 162 346 c 0
 162 274 181 210 219 154 c 0
 262.333333333 90 318.333333333 58 387 58 c 0
 431 58 473 64.6666666667 513 78 c 1
 513 235 l 1
 383 235 l 1
 383 303 l 1
 598 303 l 1
 598 37 l 1
 530 3.66666666667 459.666666667 -13 387 -13 c 0xf2
336 -266 m 1xfa
 292 -266 l 1xfa
 313 -155 l 1
 293 -155 l 1
 293 -73 l 1
 373 -73 l 1
 373 -151 l 1xf6
 336 -266 l 1xfa
EndSplineSet
Validated: 1
EndChar

StartChar: gcedilla
Encoding: 1114120 -1 8
Width: 500
Flags: W
HStem: -206 64<145.764 353.696> -5 80<130.706 372.041> 126 65<165.751 278.09> 386 71<355.238 422.398> 393 64<166.351 277.913 355.583 474>
VStem: 28 77<-108.072 -20.8112> 61 77<220.02 363.473> 65 60<81.2529 152.312> 175 81<534 612> 306 77<219.443 363.973> 395 76<-108.84 -27.3594>
CounterMasks: 1 e8
LayerCount: 2
Fore
SplineSet
175 534 m 1xe0e0
 175 612 l 1
 213 727 l 1
 257 727 l 1
 235 616 l 1
 256 616 l 1
 256 534 l 1
 175 534 l 1xe0e0
61 292 m 0xf2e0
 61 381.911149022 131.986933876 457 222 457 c 0
 258 457 289.333333333 446.666666667 316 426 c 1
 364 446.666666667 416.666666667 457 474 457 c 1xeae0
 486 387 l 1
 456 389 435 390 423 390 c 0
 410.647510915 390 366.943822174 386 355 386 c 1
 373.666666667 357.333333333 383 326 383 292 c 0
 383 201.268480116 312.537045242 126 222 126 c 0
 189.333333333 126 159.666666667 135 133 153 c 1
 127.666666667 145 125 135 125 123 c 0xf1e0
 125 91 142.666666667 75 178 75 c 2
 265 75 l 2
 280.333333333 75 303.333333333 73.3333333333 334 70 c 0
 362 66.6666666667 392.333333333 54.3333333333 425 33 c 0
 455.666666667 13 471 -20.3333333333 471 -67 c 0
 471 -113 444 -149 390 -175 c 0
 347.333333333 -195.666666667 300.333333333 -206 249 -206 c 0
 198.333333333 -206 151.666666667 -195.666666667 109 -175 c 0
 55 -149 28 -113.333333333 28 -68 c 0xf4e0
 28 -24.6666666667 48.3333333333 9.66666666667 89 35 c 1
 73 56.3333333333 65 81 65 109 c 0xf1e0
 65 138.333333333 74.3333333333 166.333333333 93 193 c 1
 71.6666666667 221.666666667 61 254.666666667 61 292 c 0xf2e0
306 292 m 0
 306 349.189629957 277.007365164 393 222 393 c 256
 166.998234135 393 138 349.17504606 138 292 c 256
 138 235.634406707 165.533776573 191 222 191 c 0
 258.654598608 191 294.04587086 218.555960924 303 249 c 0
 305 257 306 271.333333333 306 292 c 0
177 -5 m 2
 132.72555442 -5 105 -30.1150672873 105 -68 c 0xe4e0
 105 -94 124 -113.666666667 162 -127 c 0
 189.333333333 -137 218.666666667 -142 250 -142 c 0
 280.666666667 -142 310 -137 338 -127 c 0
 376 -113.666666667 395 -94.3333333333 395 -69 c 0
 395 -26.3333333333 352 -5 266 -5 c 2
 177 -5 l 2
EndSplineSet
Validated: 1
EndChar

StartChar: germandbls.dup
Encoding: 1114121 -1 9
Width: 481
Flags: W
HStem: -11 68<200.421 331.699> 0 21G<82 163> 379 68<210 286.969> 637 68<186.67 314.578>
VStem: 82 81<0 612.56> 341 84<492.793 610.373> 369 83<98.2804 284.262>
LayerCount: 2
Fore
SplineSet
334 410 m 1x7c
 399.828569406 366.506123785 452 283.953396131 452 181 c 0
 452 129 435.333333333 84 402 46 c 0
 368.666666667 8 326.666666667 -11 276 -11 c 0
 249.333333333 -11 224 -6.66666666667 200 2 c 0
 190 5.33333333333 185 9 185 13 c 1
 191.738524498 33.5948088352 199.696447564 52.9702191029 207 73 c 1
 230.333333333 62.3333333333 253 57 275 57 c 0
 337.003227548 57 369 115.299369116 369 181 c 0xba
 369 235 355 281.166666667 327 319.5 c 0
 299 357.833333333 260 377.666666667 210 379 c 1
 210 447 l 1
 284.956129879 448.135698938 341 488.299071934 341 557 c 0
 341 606.669788078 301.76799195 637 252 637 c 0
 235.333333333 637 218 632.666666667 200 624 c 0
 175.333333333 612 163 587 163 549 c 2
 163 0 l 1
 82 0 l 1
 82 550 l 2
 82 640.883983089 159.519140062 705 253 705 c 0
 342.959806826 705 425 643.110184004 425 556 c 0
 425 496 394.666666667 447.333333333 334 410 c 1x7c
EndSplineSet
Validated: 1
EndChar

StartChar: hyphen.dup
Encoding: 1114122 -1 10
Width: 333
Flags: W
HStem: 193 58<11 276>
VStem: 11 265<193 251>
LayerCount: 2
Fore
SplineSet
11 193 m 1
 11 251 l 1
 276 251 l 1
 276 193 l 1
 11 193 l 1
EndSplineSet
Validated: 1
EndChar

StartChar: Kcedilla
Encoding: 1114123 -1 11
Width: 694
Flags: W
HStem: -2 21G<96 188 540.592 654> 674 20G<96 188 520.552 643>
VStem: 96 92<-2 225 332 694> 307 81<-151 -73>
LayerCount: 2
Fore
SplineSet
554 -2 m 1
 314 356 l 1
 188 225 l 1
 188 -2 l 1
 96 -2 l 1
 96 694 l 1
 188 694 l 1
 188 332 l 1
 540 694 l 1
 643 694 l 1
 374 418 l 1
 654 -2 l 1
 554 -2 l 1
350 -266 m 1
 306 -266 l 1
 328 -155 l 1
 307 -155 l 1
 307 -73 l 1
 388 -73 l 1
 388 -151 l 1
 350 -266 l 1
EndSplineSet
Validated: 1
EndChar

StartChar: kcedilla
Encoding: 1114124 -1 12
Width: 489
Flags: W
HStem: -2 21G<84 159 371.182 475> 426 20G<336.6 455> 674 20G<84 162>
VStem: 84 78<-2 140 246 694> 204 44<-266 -244.243> 205 80<-155 -73>
CounterMasks: 1 e0
LayerCount: 2
Fore
SplineSet
385 -2 m 1xf0
 233 218 l 1
 159 140 l 1
 159 -2 l 1
 84 -2 l 1
 84 694 l 1
 162 694 l 1
 162 246 l 1
 356 446 l 1
 455 446 l 1
 286 271 l 1
 475 -2 l 1
 385 -2 l 1xf0
248 -266 m 1xf8
 204 -266 l 1xf8
 225 -155 l 1
 205 -155 l 1
 205 -73 l 1
 285 -73 l 1
 285 -151 l 1xf4
 248 -266 l 1xf8
EndSplineSet
Validated: 1
EndChar

StartChar: Lcedilla
Encoding: 1114125 -1 13
Width: 542
Flags: W
HStem: -2 71<189 499> 674 20G<94 189>
VStem: 94 95<69 694> 231 81<-151 -73>
LayerCount: 2
Fore
SplineSet
94 -2 m 1
 94 694 l 1
 189 694 l 1
 189 69 l 1
 233 69 l 1
 499 71 l 1
 499 -2 l 1
 94 -2 l 1
274 -266 m 1
 230 -266 l 1
 252 -155 l 1
 231 -155 l 1
 231 -73 l 1
 312 -73 l 1
 312 -151 l 1
 274 -266 l 1
EndSplineSet
Validated: 1
EndChar

StartChar: lcedilla
Encoding: 1114126 -1 14
Width: 239
Flags: W
HStem: -2 21G<81 156> 674 20G<81 156>
VStem: 81 75<-155 -73 -2 694> 81 41<-266 -242.324>
LayerCount: 2
Fore
SplineSet
81 -2 m 1xe0
 81 694 l 1
 156 694 l 1
 156 -2 l 1
 81 -2 l 1xe0
122 -266 m 1xd0
 81 -266 l 1xd0
 101 -155 l 1
 82 -155 l 1
 82 -73 l 1
 156 -73 l 1
 156 -151 l 1xe0
 122 -266 l 1xd0
EndSplineSet
Validated: 1
EndChar

StartChar: macron.dup
Encoding: 1114127 -1 15
Width: 500
Flags: W
HStem: 579 64<70 431>
LayerCount: 2
Fore
SplineSet
70 579 m 1
 70 643 l 1
 431 643 l 1
 431 579 l 1
 70 579 l 1
EndSplineSet
Validated: 1
EndChar

StartChar: Ncedilla
Encoding: 1114128 -1 16
Width: 708
Flags: W
HStem: -2 21G<96 181 473.049 611> 674 20G<96 233.951 526 611>
VStem: 96 85<-2 605> 313 44<-266 -244.243> 314 80<-155 -73> 526 85<87 694>
LayerCount: 2
Fore
SplineSet
526 87 m 1xe4
 526 694 l 1
 611 694 l 1
 611 -2 l 1
 483 -2 l 1
 181 605 l 1
 181 -2 l 1
 96 -2 l 1
 96 694 l 1
 224 694 l 1
 526 87 l 1xe4
357 -266 m 1xf4
 313 -266 l 1xf4
 334 -155 l 1
 314 -155 l 1
 314 -73 l 1
 394 -73 l 1
 394 -151 l 1xec
 357 -266 l 1xf4
EndSplineSet
Validated: 1
EndChar

StartChar: ncedilla
Encoding: 1114129 -1 17
Width: 517
Flags: W
HStem: -3 21G<81 165 351 435> 387 68<212.594 326.192>
VStem: 81 84<-3 339.835 387 450> 217 44<-266 -244.243> 218 80<-155 -73> 351 84<-3 361.797>
LayerCount: 2
Fore
SplineSet
260 387 m 0xe4
 193.515076018 387 165 316.016225972 165 243 c 2
 165 -3 l 1
 81 -3 l 1
 81 450 l 1
 159 450 l 1
 159 387 l 1
 195.666666667 432.333333333 241.666666667 455 297 455 c 0
 389 455 435 402 435 296 c 2
 435 -3 l 1
 351 -3 l 1
 351 289 l 2
 351 353.312193713 324.51950698 387 260 387 c 0xe4
261 -266 m 1xf4
 217 -266 l 1xf4
 239 -155 l 1
 218 -155 l 1
 218 -73 l 1
 298 -73 l 1
 298 -151 l 1xec
 261 -266 l 1xf4
EndSplineSet
Validated: 1
EndChar

StartChar: OE.dup
Encoding: 1114130 -1 18
Width: 972
Flags: W
HStem: -22 68<270.67 439.5> 0 77<562 929> 326 68<562 888> 622 72<562 915> 648 68<268.583 439.199>
VStem: 28 93<229.141 477.695> 464 98<77.8657 326 394 621.635>
LayerCount: 2
Fore
SplineSet
359 716 m 0xae
 389.50821029 716 488.519868235 694 519 694 c 2
 915 694 l 1
 915 622 l 1
 731 622 l 2
 727 622 721 622.333333333 713 623 c 2
 562 623 l 1
 562 394 l 1
 888 394 l 1
 888 326 l 1
 562 326 l 1
 562 77 l 1
 783 77 l 2
 791 77.6666666667 797 78 801 78 c 2
 929 78 l 1
 929 0 l 1
 519 0 l 2x76
 488.49178971 0 389.480131765 -22 359 -22 c 0
 263.666666667 -22 184 16 120 92 c 0
 58.6666666667 164 28 248.333333333 28 345 c 0
 28 442.333333333 58.3333333333 527.333333333 119 600 c 0
 183.666666667 677.333333333 263.666666667 716 359 716 c 0xae
464 557 m 0
 455.046400393 623.512454226 437.029011525 648 364 648 c 0
 290.666666667 648 231 617.333333333 185 556 c 0
 142.333333333 500.666666667 121 435.333333333 121 360 c 0
 121 281.333333333 141.333333333 211.333333333 182 150 c 0
 228.666666667 80.6666666667 289.333333333 46 364 46 c 0xae
 437.960050947 46 455.781702246 69.623334258 464 134 c 0
 466.666666667 153.333333333 468 224.333333333 468 347 c 0
 468 467 466.666666667 537 464 557 c 0
EndSplineSet
Validated: 1
EndChar

StartChar: oe.dup
Encoding: 1114131 -1 19
Width: 778
Flags: W
HStem: -11 68<174.392 310.875 526.878 684.501> 215 62<464 682> 393 68<172.367 313.513 522.701 640.161>
VStem: 30 79<131.955 323.299>
LayerCount: 2
Fore
SplineSet
458 215 m 1
 464.467528349 132.21563713 514.230139807 57 598 57 c 0
 648 57 694.333333333 76.6666666667 737 116 c 1
 744 42 l 1
 700.666666667 6.66666666667 651.333333333 -11 596 -11 c 0
 520.666666667 -11 461 21 417 85 c 1
 370.333333333 21 312.333333333 -11 243 -11 c 0
 181 -11 129.666666667 13.3333333333 89 62 c 0
 49.6666666667 108 30 162.333333333 30 225 c 0
 30 287 50.1666666667 341.833333333 90.5 389.5 c 0
 130.833333333 437.166666667 181.666666667 461 243 461 c 0
 313 461 370.333333333 429.666666667 415 367 c 1
 455.666666667 429.666666667 511 461 581 461 c 0
 635.666666667 461 676.666666667 441 704 401 c 0
 737.492901977 351.239117062 749 294.295014933 749 215 c 1
 458 215 l 1
581 393 m 0
 520.824071379 393 475.94447877 331.944602342 464 277 c 1
 682 277 l 1
 670 354.333333333 636.333333333 393 581 393 c 0
373 230 m 0
 373 318.762258652 327.751360195 393 243 393 c 0
 157.705902554 393 109 318.683628337 109 230 c 0
 109 138.766291997 156.425430215 57 243 57 c 0
 329.020208388 57 373 138.72291651 373 230 c 0
EndSplineSet
Validated: 1
EndChar

StartChar: Oslash.dup
Encoding: 1114132 -1 20
Width: 778
Flags: W
HStem: -22 68<295.071 485.719> 648 68<291.281 479.802>
VStem: 56 92<213.475 476.12> 629 92<214.361 475.936>
LayerCount: 2
Fore
SplineSet
596 635 m 1
 666.088905568 575.424430267 721 468.87829898 721 345 c 0
 721 247 690.333333333 162 629 90 c 0
 565 15.3333333333 484.666666667 -22 388 -22 c 0
 337.333333333 -22 287.333333333 -9 238 17 c 1
 191 -66 l 1
 130 -31 l 1
 180 59 l 1
 97.3333333333 133.666666667 56 229 56 345 c 0
 56 443 86.6666666667 528.333333333 148 601 c 0
 212 677.666666667 292.333333333 716 389 716 c 0
 437 716 487 703 539 677 c 1
 586 760 l 1
 647 725 l 1
 596 635 l 1
557 567 m 1
 275 78 l 1
 311.666666667 56.6666666667 349.666666667 46 389 46 c 0
 465 46 525.333333333 78 570 142 c 0
 609.333333333 198 629 265.666666667 629 345 c 0
 629 437 605 511 557 567 c 1
388 648 m 0
 312 648 251.666666667 615.333333333 207 550 c 0
 167.666666667 492.666666667 148 424.333333333 148 345 c 0
 148 255.666666667 171.666666667 182.666666667 219 126 c 1
 502 615 l 1
 464 637 426 648 388 648 c 0
EndSplineSet
Validated: 1
EndChar

StartChar: oslash.dup
Encoding: 1114133 -1 21
Width: 500
Flags: W
HStem: -12 68<201.847 320.834> 394 68<180.283 299.089>
VStem: 32 82<124.417 319.764> 385 82<125.006 322.085>
LayerCount: 2
Fore
SplineSet
249 -12 m 0
 221 -12 193.333333333 -6.33333333333 166 5 c 1
 100 -113 l 1
 41 -80 l 1
 110 42 l 1
 58 93.3333333333 32 152.666666667 32 220 c 0
 32 284 52 339.666666667 92 387 c 0
 134.666666667 437 187.333333333 462 250 462 c 0
 278 462 306.333333333 455.666666667 335 443 c 1
 399 558 l 1
 458 525 l 1
 390 405 l 1
 441.333333333 357 467 295.333333333 467 220 c 0
 467 157.333333333 446.666666667 103.333333333 406 58 c 0
 363.333333333 11.3333333333 311 -12 249 -12 c 0
249 56 m 0
 335.805280105 56 385 129.3944748 385 220 c 0
 385 268 374.666666667 307.333333333 354 338 c 1
 201 65 l 1
 214.333333333 59 230.333333333 56 249 56 c 0
250 394 m 0
 161.915802023 394 114 313.13884257 114 220 c 0
 114 174.666666667 124.333333333 137.333333333 145 108 c 1
 300 383 l 1
 284.666666667 390.333333333 268 394 250 394 c 0
EndSplineSet
Validated: 1
EndChar

StartChar: quoteleft.dup
Encoding: 1114134 -1 22
Width: 278
Flags: W
HStem: 486 208<136 158>
VStem: 97 83<486 574> 136 45<671.564 694>
LayerCount: 2
Fore
SplineSet
97 486 m 1xc0
 97 569 l 1xc0
 136 694 l 1
 181 694 l 1xa0
 158 574 l 1
 180 574 l 1
 180 486 l 1
 97 486 l 1xc0
EndSplineSet
Validated: 1
EndChar

StartChar: quoteright.dup
Encoding: 1114135 -1 23
Width: 278
Flags: W
HStem: 486 208<36 58>
VStem: 96 45<486 508.436> 97 83<606 694>
LayerCount: 2
Fore
SplineSet
141 486 m 1xc0
 96 486 l 1xc0
 119 606 l 1
 97 606 l 1
 97 694 l 1
 180 694 l 1
 180 611 l 1xa0
 141 486 l 1xc0
EndSplineSet
Validated: 1
EndChar

StartChar: Rcedilla
Encoding: 1114136 -1 24
Width: 646
Flags: W
HStem: -2 21G<96 189 511.217 620> 312 69<189 338> 631 63<189 427.355>
VStem: 96 93<-2 312 381 631> 283 81<-151 -73> 502 87<441.378 568.799>
LayerCount: 2
Fore
SplineSet
589 506 m 0
 589 409.917249437 505.046862419 348.841028598 424 323 c 1
 620 -2 l 1
 523 -2 l 1
 338 312 l 1
 189 312 l 1
 189 -2 l 1
 96 -2 l 1
 96 694 l 1
 337 694 l 2
 398.333333333 694 454 678.333333333 504 647 c 0
 560.666666667 611 589 564 589 506 c 0
326 -266 m 1
 282 -266 l 1
 304 -155 l 1
 283 -155 l 1
 283 -73 l 1
 364 -73 l 1
 364 -151 l 1
 326 -266 l 1
502 506 m 0
 502 588.113224983 414.640794312 631 326 631 c 2
 189 631 l 1
 189 381 l 1
 326 381 l 2
 417.907995818 381 502 421.422503251 502 506 c 0
EndSplineSet
Validated: 1
EndChar

StartChar: rcedilla
Encoding: 1114137 -1 25
Width: 342
Flags: W
HStem: -3 21G<82 162> 381 74<246.137 327>
VStem: 82 80<-155 -73 -3 298.176 369 450> 82 43<-266 -244.243>
LayerCount: 2
Fore
SplineSet
327 381 m 1xe0
 230.875846908 378.402049916 162 310.546792155 162 213 c 2
 162 -3 l 1
 82 -3 l 1
 82 450 l 1
 158 450 l 1
 158 369 l 1
 199.333333333 425.666666667 255.666666667 454.333333333 327 455 c 1
 327 381 l 1xe0
125 -266 m 1xd0
 82 -266 l 1xd0
 103 -155 l 1
 83 -155 l 1
 83 -73 l 1
 162 -73 l 1
 162 -151 l 1xe0
 125 -266 l 1xd0
EndSplineSet
Validated: 1
EndChar

StartChar: tilde.dup
Encoding: 1114138 -1 26
Width: 500
Flags: W
HStem: 551 65<261.272 344.234> 605 65<157.886 239.728>
VStem: 84 67<551 601.072> 350 67<619.529 670>
LayerCount: 2
Fore
SplineSet
417 670 m 1x70
 415.684328938 606.847789006 379.469018976 551 317 551 c 0xb0
 298.333333333 551 277 559 253 575 c 0
 222.333333333 595 200 605 186 605 c 0x70
 164 605 152.333333333 587 151 551 c 1
 84 551 l 1xb0
 85.2966024863 613.236919342 120.522557121 670 184 670 c 0x70
 202.666666667 670 224 662 248 646 c 0
 278.666666667 626 301 616 315 616 c 0xb0
 337 616 348.666666667 634 350 670 c 1
 417 670 l 1x70
EndSplineSet
Validated: 1
EndChar

StartChar: A
Encoding: 65 65 27
Width: 667
Flags: W
HStem: 0 21G<26 115.525 532.574 640> 202 63<207 441> 674 20G<279.478 386.522>
LayerCount: 2
Fore
SplineSet
540 0 m 1
 465 202 l 1
 184 202 l 1
 108 0 l 1
 26 0 l 1
 287 694 l 1
 379 694 l 1
 640 0 l 1
 540 0 l 1
324 603 m 1
 317.333333333 576.333333333 299.333333333 521.666666667 270 439 c 0
 249.423235808 380.576764192 228.475956526 322.524043474 207 265 c 1
 441 265 l 1
 353 514 l 2
 339 554 329.333333333 583.666666667 324 603 c 1
EndSplineSet
Validated: 1
Position2: "'cpsp' Capital Spacing lookup 0 subtable" dx=7 dy=0 dh=14 dv=0
EndChar

StartChar: a
Encoding: 97 97 28
Width: 481
Flags: W
HStem: -11 68<150.495 291.313> 0 21G<328 409> 190 59<186.813 325> 395 66<146.203 294.697>
VStem: 54 78<76.9195 152.901> 325 84<0 31 80.0286 190 249 363.237>
LayerCount: 2
Fore
SplineSet
244 461 m 0xbc
 339.96684502 461 409 384.082940604 409 288 c 2
 409 0 l 1
 328 0 l 1x7c
 328 31 l 1
 288 3 235 -11 169 -11 c 0
 100.336476273 -11 54 45.9687358115 54 115 c 0
 54 214.976888841 205.667469952 245.270858436 325 249 c 1
 325 287 l 2
 325 343.516675025 297.103179939 395 244 395 c 0
 192 395 141.666666667 377.666666667 93 343 c 1
 86 417 l 1
 136.666666667 446.333333333 189.333333333 461 244 461 c 0xbc
132 117 m 0
 132 77.2805932848 175.748023233 57 219 57 c 0xbc
 289.666666667 57 325 82.6666666667 325 134 c 2
 325 190 l 1
 196.333333333 183.333333333 132 159 132 117 c 0
EndSplineSet
Validated: 1
Substitution2: "'smcp' Lowercase to Small Capitals in lookup 1 subtable" A.sc
EndChar

StartChar: ampersand
Encoding: 38 38 29
Width: 758
Flags: W
HStem: -22 71<165.542 336.039 505.266 699.064> 648 68<256.685 336.663>
VStem: 42 85<87.6842 222.029> 161 72<416.774 623.849> 356 76<497.174 630.716> 597 69<346.947 391.029>
LayerCount: 2
Fore
SplineSet
434 130 m 1
 507.201590914 190.02530455 565.211750319 294.073251154 597 409 c 1
 666 389 l 1
 628.666666667 257.666666667 569 155.333333333 487 82 c 1
 519.666666667 60 551.666666667 49 583 49 c 0
 621 49 660.333333333 55.3333333333 701 68 c 1
 701 -6 l 1
 659 -16.6666666667 619.333333333 -22 582 -22 c 0
 526 -22 473 -3 423 35 c 1
 356.333333333 -3 291 -22 227 -22 c 0
 177 -22 133.666666667 -6 97 26 c 0
 60.3333333333 58 42 98.6666666667 42 148 c 0
 42 190 57 227.666666667 87 261 c 0
 103.271260623 278.288214412 165.72650194 328.72650194 182 345 c 1
 190 354 l 1
 190 356 l 1
 187 362 l 1
 169.666666667 413.333333333 161 464.666666667 161 516 c 0
 161 566 171.666666667 610 193 648 c 0
 218.333333333 693.333333333 254.333333333 716 301 716 c 0
 379.132909593 716 432 638.262131087 432 557 c 0
 432 501.666666667 382.666666667 430 284 342 c 1
 317.333333333 271.333333333 367.333333333 200.666666667 434 130 c 1
356 558 m 0
 356 598.536196766 340.591675625 648 300 648 c 0
 255.552479501 648 233 597.854188127 233 550 c 0
 233 500.666666667 241 454 257 410 c 1
 323 470.666666667 356 520 356 558 c 0
127 155 m 0
 127 95.416837321 168.287584239 49 228 49 c 0
 274 49 320 60.6666666667 366 84 c 1
 306 147.333333333 257.333333333 214.666666667 220 286 c 1
 180.666666667 252.666666667 160.666666667 235.333333333 160 234 c 0
 138 214.666666667 127 188.333333333 127 155 c 0
EndSplineSet
Validated: 1
Substitution2: "'lnum' Lining Figures lookup 5 subtable" ampersand
Substitution2: "'onum' Oldstyle Figures lookup 4 subtable" ampersand
Substitution2: "'aalt' Access All Alternates lookup 0 subtable" ampersand
EndChar

StartChar: asciicircum
Encoding: 94 94 30
Width: 556
Flags: W
HStem: 561 184
LayerCount: 2
Fore
SplineSet
547 561 m 1
 277 679 l 1
 8 561 l 1
 -6 588 l 1
 278 745 l 1
 562 588 l 1
 547 561 l 1
EndSplineSet
Validated: 1
EndChar

StartChar: asciitilde
Encoding: 126 126 31
Width: 556
Flags: W
HStem: 193 48<309.304 454.971> 259 48<102.512 244.765>
LayerCount: 2
Fore
SplineSet
500 243 m 2
 456.666666667 209.666666667 413.333333333 193 370 193 c 0
 342 193 308.333333333 203.666666667 269 225 c 0
 227.666666667 247.666666667 194.333333333 259 169 259 c 0
 125 259 74.3333333333 236.333333333 17 191 c 1
 -2 213 l 1
 33.2055930376 239.404194778 70.2162332665 271.893701082 112 290 c 0
 137.333333333 301.333333333 161.666666667 307 185 307 c 0
 213 307 247.166666667 296 287.5 274 c 0
 327.833333333 252 360.666666667 241 386 241 c 0
 430 241 480.666666667 263.666666667 538 309 c 1
 557 287 l 1
 500 243 l 2
EndSplineSet
Validated: 1
EndChar

StartChar: asterisk
Encoding: 42 42 32
Width: 500
Flags: W
HStem: 638 20G<90.3987 105.333 394 408.602>
VStem: 212 75<308.375 469.554 586.446 747.625>
LayerCount: 2
Fore
SplineSet
435 438 m 0
 435 416.875085327 419.202613225 398 398 398 c 0
 391.333333333 398 380 403.666666667 364 415 c 2
 280 473 l 1
 284.666666667 399 287 356 287 344 c 0
 287 318.666666667 274.333333333 306 249 306 c 0
 224.333333333 306 212 318.666666667 212 344 c 0
 212 356 214.333333333 399 219 473 c 1
 132 412 l 2
 119.333333333 402.666666667 109 398 101 398 c 0
 79.7969283295 398 64 416.87581884 64 438 c 0
 64 452 73.3333333333 463.666666667 92 473 c 2
 192 528 l 1
 157.447400505 547.06350317 125.037825091 562.433913587 91 581 c 0
 73 591.666666667 64 604 64 618 c 0
 64 639.124914673 79.7973867753 658 101 658 c 0
 109.666666667 658 119.333333333 654 130 646 c 2
 219 583 l 1
 214.333333333 657 212 700 212 712 c 0
 212 737.333333333 224.666666667 750 250 750 c 0
 274.666666667 750 287 737.333333333 287 712 c 0
 287 700 284.666666667 657 280 583 c 1
 367 644 l 2
 379.666666667 653.333333333 390 658 398 658 c 0
 419.203071671 658 435 639.12418116 435 618 c 0
 435 604 425.666666667 592.333333333 407 583 c 2
 307 528 l 1
 341.552599495 508.93649683 373.962174909 493.566086413 408 475 c 0
 426 464.333333333 435 452 435 438 c 0
EndSplineSet
Validated: 1
EndChar

StartChar: at
Encoding: 64 64 33
Width: 667
Flags: W
HStem: -11 68<290.7 499.446> 119 68<369.718 476.334> 507 68<369.718 477.436> 637 68<289.278 452.901>
VStem: 56 82<227.949 464.654> 237 82<248.411 445.589> 528 82<248.265 443.982>
CounterMasks: 2 f0 0e
LayerCount: 2
Fore
SplineSet
615 92 m 1
 565.831185345 36.5274911583 489.430384201 -11 387 -11 c 0
 292.333333333 -11 212.666666667 25.3333333333 148 98 c 0
 86.6666666667 168 56 251 56 347 c 0
 56 442.333333333 87 525 149 595 c 0
 213 668.333333333 292 705 386 705 c 0
 535.333333333 705 610 590.666666667 610 362 c 0
 610 274 587.333333333 210 542 170 c 0
 503.333333333 136 464 119 424 119 c 0
 368 119 322 143.666666667 286 193 c 0
 253.333333333 237.666666667 237 289 237 347 c 256
 237 405 253.333333333 456.333333333 286 501 c 0
 322 550.333333333 368 575 424 575 c 0
 450 575 475 568.666666667 499 556 c 1
 476.333333333 610 438.333333333 637 385 637 c 0
 312.333333333 637 252 606 204 544 c 0
 160 487.333333333 138 421.666666667 138 347 c 0
 138 270.333333333 160.333333333 204 205 148 c 0
 253.666666667 87.3333333333 315.333333333 57 390 57 c 0
 438.666666667 57 486.333333333 67.3333333333 533 88 c 0
 539 90.6666666667 547.666666667 92 559 92 c 2
 615 92 l 1
424 507 m 0
 390 507 363 488 343 450 c 0
 327 418.666666667 319 384.333333333 319 347 c 256
 319 309.666666667 327 275.333333333 343 244 c 0
 363 206 390 187 424 187 c 0
 452 187 476.333333333 202.333333333 497 233 c 0
 523.457111803 273.315598938 528 285.008356478 528 347 c 0
 528 384.333333333 520 418.666666667 504 450 c 0
 484 488 457.333333333 507 424 507 c 0
EndSplineSet
Validated: 1
EndChar

StartChar: B
Encoding: 66 66 34
Width: 667
Flags: W
HStem: 0 63<187 437.52> 326 68<187 415.148> 631 63<187 419.25>
VStem: 97 90<63 326 394 631> 499 84<459.021 571.515> 522 88<129.129 254.033>
LayerCount: 2
Fore
SplineSet
434 364 m 1xf8
 516.979928355 344.758277483 610 283.164877648 610 190 c 0xf4
 610 131.333333333 582 84 526 48 c 0
 477.333333333 16 422.333333333 0 361 0 c 2
 97 0 l 1
 97 694 l 1
 334 694 l 2
 393.333333333 694 447.666666667 679.666666667 497 651 c 0
 554.333333333 617.666666667 583 573.333333333 583 518 c 0
 583 437.105246344 504.497706035 385.14931181 434 364 c 1xf8
307 631 m 2
 187 631 l 1
 187 394 l 1
 297 394 l 2
 359.666666667 394 409 406.666666667 445 432 c 0
 469.666666667 449.333333333 485.333333333 464.333333333 492 477 c 0
 496.666666667 485 499 498.333333333 499 517 c 0xf8
 499 555 475 584.666666667 427 606 c 0
 389.666666667 622.666666667 349.666666667 631 307 631 c 2
325 326 m 2
 187 326 l 1
 187 63 l 1
 333 63 l 2
 377.666666667 63 418.333333333 73 455 93 c 0
 499.666666667 117 522 149.666666667 522 191 c 0xf4
 522 233 499 267 453 293 c 0
 413.666666667 315 371 326 325 326 c 2
EndSplineSet
Validated: 1
Position2: "'cpsp' Capital Spacing lookup 0 subtable" dx=7 dy=0 dh=14 dv=0
EndChar

StartChar: b
Encoding: 98 98 35
Width: 517
Flags: W
HStem: -11 68<207.931 328.967> 0 21G<82 166> 389 69<216.818 335.3> 674 20G<82 163>
VStem: 82 84<0 40 87.1575 359.338 404 694> 396 84<130.487 322.508>
LayerCount: 2
Fore
SplineSet
294 -11 m 0xbc
 248 -11 205.333333333 6 166 40 c 1
 166 0 l 1
 82 0 l 1x7c
 82 694 l 1
 163 694 l 1
 163 404 l 1
 209.666666667 440 261 458 317 458 c 0
 369 458 410.333333333 430.666666667 441 376 c 0
 467 330.666666667 480 280 480 224 c 0
 480 164.666666667 464 112 432 66 c 0
 396.666666667 14.6666666667 350.666666667 -11 294 -11 c 0xbc
396 224 m 0
 396 314.067034595 352.034022601 389 267 389 c 256
 224.333333333 389 190.666666667 370.666666667 166 334 c 1
 166 118 l 1
 188 77.3333333333 218.333333333 57 257 57 c 0xbc
 345.099330772 57 396 132.092107922 396 224 c 0
EndSplineSet
Validated: 1
Substitution2: "'smcp' Lowercase to Small Capitals in lookup 1 subtable" B.sc
EndChar

StartChar: backslash
Encoding: 92 92 36
Width: 500
Flags: W
LayerCount: 2
Fore
SplineSet
419 -250 m 0
 408.333333333 -250 400 -242 394 -226 c 2
 56 726 l 1
 56 742 64 750 80 750 c 0
 90.6666666667 750 99 742 105 726 c 2
 443 -226 l 1
 443 -242 435 -250 419 -250 c 0
EndSplineSet
Validated: 1
EndChar

StartChar: bar
Encoding: 124 124 37
Width: 278
Flags: W
VStem: 119 40<-249.991 749.991>
LayerCount: 2
Fore
SplineSet
139 -250 m 256
 125.666666667 -250 119 -237.666666667 119 -213 c 2
 119 713 l 2
 119 737.666666667 125.666666667 750 139 750 c 256
 152.333333333 750 159 737.666666667 159 713 c 2
 159 -213 l 2
 159 -237.666666667 152.333333333 -250 139 -250 c 256
EndSplineSet
Validated: 1
EndChar

StartChar: braceleft
Encoding: 123 123 38
Width: 500
Flags: W
HStem: -250 30<342.62 426.994> 236 29<72.0166 144> 720 30<350.21 426.994>
VStem: 72 214<250 382> 213 73<-176.461 189.371 311.679 674.148>
LayerCount: 2
Fore
SplineSet
404 -250 m 0xe8
 320.203247377 -250 239.352625435 -217.863663936 220 -154 c 0
 215.333333333 -139.333333333 213 -114.666666667 213 -80 c 2
 213 116 l 2xe8
 213 161.333333333 197.666666667 192.666666667 167 210 c 0
 140.550650724 226.008816667 112.936234227 236 85 236 c 0
 76.3333333333 236 72 240.666666667 72 250 c 256xf0
 72 259.333333333 77.6666666667 264.333333333 89 265 c 0
 129 267 162.333333333 281.333333333 189 308 c 0
 202.333333333 322.666666667 210.333333333 344 213 372 c 1
 213 624 l 2
 213 664.666666667 235.666666667 697 281 721 c 0
 318.333333333 740.333333333 359.333333333 750 404 750 c 0
 419.333333333 750 427 745 427 735 c 0
 427 727 423 722 415 720 c 0
 366.124089852 716.846715474 334.92250207 703.100797619 309 676 c 0
 297 663.333333333 289.666666667 645 287 621 c 0
 286.333333333 616.333333333 286 596.333333333 286 561 c 2xe8
 286 382 l 2xf0
 286 318 250.666666667 274 180 250 c 1
 240 230 274.666666667 196.333333333 284 149 c 0
 285.333333333 141.666666667 286 111.333333333 286 58 c 2
 286 -91 l 2
 286 -115 287 -130.666666667 289 -138 c 0
 301.666666667 -189.333333333 341.333333333 -216.666666667 408 -220 c 0
 410.666666667 -220.666666667 412.666666667 -221 414 -221 c 0
 422.666666667 -221 427 -225.666666667 427 -235 c 0
 427 -245 419.333333333 -250 404 -250 c 0xe8
EndSplineSet
Validated: 1
EndChar

StartChar: braceright
Encoding: 125 125 39
Width: 500
Flags: W
HStem: -250 30<72.0056 148.593> 235 29<355 426.983> 721 29<72.0225 152.414>
VStem: 213 214<118 250> 213 73<-174.148 188.321 310.629 676.41>
LayerCount: 2
Fore
SplineSet
410 235 m 0xf0
 370 233 336.666666667 218.666666667 310 192 c 0
 296.666666667 177.333333333 288.666666667 156 286 128 c 1
 286 -124 l 2
 286 -164.666666667 263.333333333 -197 218 -221 c 0
 180.666666667 -240.333333333 139.666666667 -250 95 -250 c 0
 79.6666666667 -250 72 -245 72 -235 c 0
 72 -227 76 -222 84 -220 c 0
 132.145574901 -216.790295007 164.225514496 -202.946053027 190 -176 c 0
 202 -163.333333333 209.333333333 -145 212 -121 c 0
 212.666666667 -116.333333333 213 -96.3333333333 213 -61 c 2xe8
 213 118 l 2xf0
 213 182 248.333333333 226 319 250 c 1
 259 270 224.333333333 303.666666667 215 351 c 0
 213.666666667 358.333333333 213 388.666666667 213 442 c 2
 213 591 l 2
 213 615 212 630.666666667 210 638 c 0
 197.333333333 689.333333333 157.666666667 716.666666667 91 720 c 0
 88.3333333333 720.666666667 86.3333333333 721 85 721 c 0
 76.3333333333 721 72 725.666666667 72 735 c 0
 72 745 79.6666666667 750 95 750 c 0
 179.129722657 750 257.771196115 717.686411655 279 654 c 0
 283.666666667 639.333333333 286 614.666666667 286 580 c 2
 286 384 l 2xe8
 286 338.666666667 301.333333333 307.333333333 332 290 c 0
 358.449349276 273.991183333 386.063765773 264 414 264 c 0
 422.666666667 264 427 259.333333333 427 250 c 256
 427 240.666666667 421.333333333 235.666666667 410 235 c 0xf0
EndSplineSet
Validated: 1
EndChar

StartChar: bracketleft
Encoding: 91 91 40
Width: 289
Flags: W
HStem: -250 68<178 266> 682 68<178 266>
VStem: 102 164<-250 -182 682 750> 102 76<-182 682>
LayerCount: 2
Fore
SplineSet
102 -250 m 1xe0
 102 750 l 1
 266 750 l 1
 266 682 l 1xe0
 178 682 l 1
 178 -182 l 1xd0
 266 -182 l 1
 266 -250 l 1
 102 -250 l 1xe0
EndSplineSet
Validated: 1
EndChar

StartChar: bracketright
Encoding: 93 93 41
Width: 289
Flags: W
HStem: -250 68<22 110> 682 68<22 110>
VStem: 22 164<-250 -182 682 750> 110 76<-182 682>
LayerCount: 2
Fore
SplineSet
22 -250 m 1xe0
 22 -182 l 1xe0
 110 -182 l 1
 110 682 l 1xd0
 22 682 l 1
 22 750 l 1
 186 750 l 1
 186 -250 l 1
 22 -250 l 1xe0
EndSplineSet
Validated: 1
EndChar

StartChar: C
Encoding: 67 67 42
Width: 639
Flags: W
HStem: -11 71<299.486 509.821> 635 71<297.296 498.425>
VStem: 66 96<224.85 469.438>
LayerCount: 2
Fore
SplineSet
491 0 m 0
 463.666666667 -7.33333333333 429 -11 387 -11 c 0
 293.666666667 -11 216 26 154 100 c 0
 95.3333333333 169.333333333 66 251.666666667 66 347 c 256
 66 442.333333333 95.3333333333 525 154 595 c 0
 216 669 293.666666667 706 387 706 c 0
 451.666666667 706 515 693.666666667 577 669 c 1
 561 579 l 1
 507.666666667 616.333333333 449.666666667 635 387 635 c 0
 317.666666667 635 261.666666667 603.333333333 219 540 c 0
 181 483.333333333 162 419 162 347 c 256
 162 275 181 211 219 155 c 0
 262.333333333 91.6666666667 318.333333333 60 387 60 c 0
 428.333333333 60 461.333333333 64 486 72 c 0
 510.666666667 80 542 97.3333333333 580 124 c 1
 587 46 l 1
 548.333333333 22.6666666667 516.333333333 7.33333333333 491 0 c 0
EndSplineSet
Validated: 1
Position2: "'cpsp' Capital Spacing lookup 0 subtable" dx=7 dy=0 dh=14 dv=0
EndChar

StartChar: c
Encoding: 99 99 43
Width: 444
Flags: W
HStem: -11 71<183.634 349.573> 390 71<183.448 352.826>
VStem: 36 84<129.238 320.275>
LayerCount: 2
Fore
SplineSet
120 223 m 0
 120 134.978614135 168.071848724 60 252 60 c 0
 308 60 360 79 408 117 c 1
 415 41 l 1
 365 6.33333333333 310.333333333 -11 251 -11 c 0
 189 -11 137.333333333 12.6666666667 96 60 c 0
 56 104.666666667 36 158.666666667 36 222 c 0
 36 287.333333333 56.5 343.5 97.5 390.5 c 0
 138.5 437.5 191 461 255 461 c 0
 307 461 359 446.333333333 411 417 c 1
 397 344 l 1
 350.333333333 374.666666667 303.333333333 390 256 390 c 0
 165.156429888 390 120 315.033254738 120 223 c 0
EndSplineSet
Validated: 1
Substitution2: "'smcp' Lowercase to Small Capitals in lookup 1 subtable" C.sc
EndChar

StartChar: colon
Encoding: 58 58 44
Width: 278
Flags: W
HStem: 0 89<97 180> 355 89<97 180>
VStem: 97 83<0 89 355 444>
LayerCount: 2
Fore
SplineSet
97 355 m 1
 97 444 l 1
 180 444 l 1
 180 355 l 1
 97 355 l 1
97 0 m 1
 97 89 l 1
 180 89 l 1
 180 0 l 1
 97 0 l 1
EndSplineSet
Validated: 1
EndChar

StartChar: comma
Encoding: 44 44 45
Width: 278
Flags: W
HStem: -125 208<36 58>
VStem: 96 45<-125 -102.564> 97 83<-5 83>
LayerCount: 2
Fore
SplineSet
141 -125 m 1xc0
 96 -125 l 1xc0
 119 -5 l 1
 97 -5 l 1
 97 83 l 1
 180 83 l 1
 180 0 l 1xa0
 141 -125 l 1xc0
EndSplineSet
Validated: 1
EndChar

StartChar: D
Encoding: 68 68 46
Width: 722
Flags: W
HStem: 0 63<189 434.508> 631 63<189 433.708>
VStem: 96 93<63 631> 572 93<218.006 470.613>
LayerCount: 2
Fore
SplineSet
359 0 m 2
 96 0 l 1
 96 694 l 1
 358 694 l 2
 448.666666667 694 523.333333333 657 582 583 c 0
 637.333333333 514.333333333 665 433.666666667 665 341 c 0
 665 250.333333333 637 171.666666667 581 105 c 0
 522.333333333 35 448.333333333 0 359 0 c 2
336 631 m 2
 189 631 l 1
 189 63 l 1
 336 63 l 2
 410 63 468.666666667 91.6666666667 512 149 c 0
 552 201 572 265 572 341 c 0
 572 419 552.666666667 485 514 539 c 0
 470 600.333333333 410.666666667 631 336 631 c 2
EndSplineSet
Validated: 1
Position2: "'cpsp' Capital Spacing lookup 0 subtable" dx=7 dy=0 dh=14 dv=0
EndChar

StartChar: d
Encoding: 100 100 47
Width: 517
Flags: W
HStem: -11 68<181.793 298.638> 0 21G<350 434> 389 69<186.356 307.703> 674 20G<353 434>
VStem: 36 84<124.482 316.84> 350 84<0 46 92.8041 362.653 408 694>
LayerCount: 2
Fore
SplineSet
350 0 m 1x7c
 350 46 l 1
 308 8 261 -11 209 -11 c 0xbc
 154.333333333 -11 110.666666667 15.6666666667 78 69 c 0
 50 114.333333333 36 165.666666667 36 223 c 0
 36 281.666666667 50.6666666667 333.666666667 80 379 c 0
 114 431.666666667 158.333333333 458 213 458 c 0
 263.666666667 458 310.333333333 441.333333333 353 408 c 1
 353 694 l 1
 434 694 l 1
 434 0 l 1
 350 0 l 1x7c
249 57 m 0
 294.261792657 57 350 95.5977699756 350 141 c 2
 350 338 l 1
 326 372 295.666666667 389 259 389 c 0
 169.230620305 389 120 314.78329864 120 222 c 0
 120 132.766962835 164.86430033 57 249 57 c 0
EndSplineSet
Validated: 1
Substitution2: "'smcp' Lowercase to Small Capitals in lookup 1 subtable" D.sc
EndChar

StartChar: dollar
Encoding: 36 36 48
Width: 500
Flags: W
HStem: -10 71<138.922 218> 633 71<181.688 218 282 353.218>
VStem: 56 79<456.355 587.57> 218 64<-56 -7.22632 65 303 419 630 702.152 750> 364 79<113.172 254.18>
LayerCount: 2
Fore
SplineSet
443 196 m 0
 443 92.3646847547 371.049950604 8.07846330353 282 -8 c 1
 282 -56 l 1
 218 -56 l 1
 218 -10 l 1
 156 -3.33333333333 98 19.6666666667 44 59 c 1
 57 136 l 1
 104.333333333 93.3333333333 158 68.3333333333 218 61 c 1
 218 319 l 1
 150.666666667 335.666666667 105.666666667 366.666666667 83 412 c 0
 65 448 56 481 56 511 c 0
 56 613.158201867 129.407154462 685.773613368 218 703 c 1
 218 750 l 1
 282 750 l 1
 282 704 l 1
 331.333333333 700 380 681.333333333 428 648 c 1
 414 573 l 1
 371.333333333 607.666666667 327.333333333 627.666666667 282 633 c 1
 282 402 l 1
 372.75268526 382.109000491 443 303.141073238 443 196 c 0
218 630 m 1
 173.156977977 617.880264318 135 578.618731911 135 524 c 0
 135 469.333333333 162.666666667 434.333333333 218 419 c 1
 218 630 l 1
282 65 m 1
 328.103294561 80.7721797183 364 124.820636074 364 184 c 0
 364 240.442707719 326.567043288 288.545823798 282 303 c 1
 282 65 l 1
EndSplineSet
Validated: 1
Substitution2: "'onum' Oldstyle Figures lookup 4 subtable" dollar.oldstyle
Substitution2: "'aalt' Access All Alternates lookup 0 subtable" dollar.oldstyle
EndChar

StartChar: E
Encoding: 69 69 49
Width: 597
Flags: W
HStem: 0 77<189 554> 325 68<189 514> 619 72<189 540>
VStem: 94 95<77 325 393 620>
LayerCount: 2
Fore
SplineSet
94 0 m 1
 94 691 l 1
 540 691 l 1
 540 619 l 1
 339 619 l 2
 331 619.666666667 325 620 321 620 c 2
 189 620 l 1
 189 393 l 1
 514 393 l 1
 514 325 l 1
 189 325 l 1
 189 77 l 1
 391 77 l 2
 395 77 401 77.3333333333 409 78 c 2
 554 78 l 1
 554 0 l 1
 94 0 l 1
EndSplineSet
Validated: 1
Position2: "'cpsp' Capital Spacing lookup 0 subtable" dx=7 dy=0 dh=14 dv=0
EndChar

StartChar: e
Encoding: 101 101 50
Width: 444
Flags: W
HStem: -11 68<182.461 346.146> 215 62<117 350> 393 68<175.196 300.369>
VStem: 35 77<135.609 215>
LayerCount: 2
Fore
SplineSet
112 215 m 1
 114.588807611 133.452560266 170.196522971 57 251 57 c 0
 305 57 356 76.6666666667 404 116 c 1
 410 42 l 1
 361.333333333 6.66666666667 308 -11 250 -11 c 0
 187.333333333 -11 135.333333333 13 94 61 c 0
 54.6666666667 107 35 162 35 226 c 0
 35 286.666666667 53 340 89 386 c 0
 127.666666667 436 176.666666667 461 236 461 c 0
 363.384491808 461 414 353.119088703 414 215 c 1
 112 215 l 1
350 277 m 1
 340.005235301 339.467279368 303.102502549 393 236 393 c 0
 173.546878793 393 130.098427587 332.966008779 117 277 c 1
 350 277 l 1
EndSplineSet
Validated: 1
Substitution2: "'smcp' Lowercase to Small Capitals in lookup 1 subtable" E.sc
EndChar

StartChar: eight
Encoding: 56 56 51
Width: 500
Flags: W
HStem: -22 68<179.692 319.093> 320 68<179.873 317.339> 613 65<177.356 322.74>
VStem: 42 87<99.0663 264.968> 56 76<431.66 568.827> 367 76<430.7 568.63> 370 87<100.188 264.979>
CounterMasks: 1 e0
LayerCount: 2
Fore
SplineSet
330 355 m 1xec
 395.925275034 328.398573232 457 268.740411703 457 182 c 0
 457 124.666666667 436.666666667 76.3333333333 396 37 c 0
 355.333333333 -2.33333333333 306.333333333 -22 249 -22 c 0
 192.333333333 -22 143.666666667 -2.16666666667 103 37.5 c 0
 62.3333333333 77.1666666667 42 125.333333333 42 182 c 0xf2
 42 268.687687471 103.131953403 328.421665408 169 355 c 1
 109.891265846 376.279144295 56 427.774532924 56 501 c 0
 56 552.333333333 75.3333333333 594.666666667 114 628 c 0
 152.666666667 661.333333333 198 678 250 678 c 0
 301.333333333 678 346.333333333 661.166666667 385 627.5 c 0
 423.666666667 593.833333333 443 551.666666667 443 501 c 0
 443 427.82415489 389.045628175 376.256426143 330 355 c 1xec
367 501 m 0xec
 367 569.247911872 317.426281969 613 249 613 c 0
 181.390784988 613 132 568.738559783 132 501 c 0
 132 431.391485137 180.183642665 388 250 388 c 0
 318.99465301 388 367 431.901962862 367 501 c 0xec
370 183 m 0xf2
 370 259.224378539 325.305052298 320 249 320 c 256
 172.673101326 320 129 259.217620243 129 183 c 0
 129 103.188479269 172.741045605 46 250 46 c 0
 325.409554927 46 370 104.671268285 370 183 c 0xf2
EndSplineSet
Validated: 1
Substitution2: "'pnum' Proportional Numbers lookup 6 subtable" eight.prop
Substitution2: "'onum' Oldstyle Figures lookup 4 subtable" eight.oldstyle
AlternateSubs2: "'aalt' Access All Alternates lookup 1 subtable" eight.oldstyle eight.prop
EndChar

StartChar: equal
Encoding: 61 61 52
Width: 778
Flags: W
HStem: 130 46<56.0371 720.963> 324 46<56.0371 720.963>
LayerCount: 2
Fore
SplineSet
683 324 m 2
 94 324 l 2
 68.6666666667 324 56 331.666666667 56 347 c 256
 56 362.333333333 68.3333333333 370 93 370 c 2
 684 370 l 2
 708.666666667 370 721 362.333333333 721 347 c 256
 721 331.666666667 708.333333333 324 683 324 c 2
684 130 m 2
 93 130 l 2
 68.3333333333 130 56 137.666666667 56 153 c 256
 56 168.333333333 68.6666666667 176 94 176 c 2
 683 176 l 2
 708.333333333 176 721 168.333333333 721 153 c 256
 721 137.666666667 708.666666667 130 684 130 c 2
EndSplineSet
Validated: 1
EndChar

StartChar: exclam
Encoding: 33 33 53
Width: 319
Flags: W
HStem: 0 90<118 201> 674 20G<118 201>
VStem: 118 83<0 90 219 694> 125 69<173 694>
LayerCount: 2
Fore
SplineSet
194 173 m 1xd0
 125 173 l 1
 125 219 l 1xd0
 118 694 l 1
 201 694 l 1xe0
 194 173 l 1xd0
118 0 m 1xe0
 118 90 l 1
 201 90 l 1
 201 0 l 1
 118 0 l 1xe0
EndSplineSet
Validated: 1
EndChar

StartChar: F
Encoding: 70 70 54
Width: 569
Flags: W
HStem: 0 21G<94 189> 311 69<189 486> 619 72<189 526>
VStem: 94 95<0 311 380 620>
LayerCount: 2
Fore
SplineSet
526 619 m 1
 332 619 l 2
 324 619.666666667 318 620 314 620 c 2
 189 620 l 1
 189 380 l 1
 486 380 l 1
 486 311 l 1
 189 311 l 1
 189 0 l 1
 94 0 l 1
 94 691 l 1
 526 691 l 1
 526 619 l 1
EndSplineSet
Validated: 1
Position2: "'cpsp' Capital Spacing lookup 0 subtable" dx=7 dy=0 dh=14 dv=0
EndChar

StartChar: f
Encoding: 102 102 55
Width: 306
Flags: W
HStem: 0 21G<99 180> 382 65<27 99 180 287> 637 68<197.868 345.611>
VStem: 99 81<0 382 447 618.594>
LayerCount: 2
Fore
SplineSet
99 532 m 2
 99 628.629920354 168.189547101 705 265 705 c 0
 289 705 316.333333333 701 347 693 c 1
 347 618 l 1
 318.333333333 630.666666667 290.666666667 637 264 637 c 0
 246.666666667 637 229.333333333 633 212 625 c 0
 188.666666667 614.333333333 177 593 177 561 c 2
 177 447 l 1
 287 447 l 1
 287 382 l 1
 180 382 l 1
 180 0 l 1
 99 0 l 1
 99 382 l 1
 27 382 l 1
 27 447 l 1
 99 447 l 1
 99 532 l 2
EndSplineSet
Validated: 1
Substitution2: "'smcp' Lowercase to Small Capitals in lookup 1 subtable" F.sc
EndChar

StartChar: five
Encoding: 53 53 56
Width: 500
Flags: W
HStem: -22 68<147.414 295.479> 361 69<191.555 311.659> 585 71<159 417>
VStem: 80 79<394 585> 80 71<283 320.705> 354 95<109.5 309.279>
CounterMasks: 1 e0
LayerCount: 2
Fore
SplineSet
354 206 m 0xf4
 354 282.474401804 327.339675855 361 259 361 c 0
 208.333333333 361 172.333333333 335 151 283 c 1
 80 283 l 1
 80 656 l 1xec
 417 656 l 1
 417 585 l 1
 159 585 l 1
 159 394 l 1
 188.333333333 418 222 430 260 430 c 0
 316 430 362.333333333 405.666666667 399 357 c 0
 432.333333333 313 449 262 449 204 c 0
 449 142 428 88.8333333333 386 44.5 c 0
 344 0.166666666667 292 -22 230 -22 c 0
 150.666666667 -22 86.6666666667 11.6666666667 38 79 c 1
 75 142 l 1
 103.154859761 90.1950580398 155.759022921 46 229 46 c 0
 243 46 258.666666667 49.6666666667 276 57 c 0
 324.895310028 75.8913697836 354 132.945654963 354 206 c 0xf4
EndSplineSet
Validated: 1
Substitution2: "'pnum' Proportional Numbers lookup 6 subtable" five.prop
Substitution2: "'onum' Oldstyle Figures lookup 4 subtable" five.oldstyle
AlternateSubs2: "'aalt' Access All Alternates lookup 1 subtable" five.oldstyle five.prop
EndChar

StartChar: four
Encoding: 52 52 57
Width: 500
Flags: W
HStem: 0 21G<288 374> 169 68<116 288 374 471> 636 20G<266.152 374>
VStem: 294 80<0 169 237 573>
LayerCount: 2
Fore
SplineSet
374 169 m 1
 374 0 l 1
 288 0 l 1
 288 169 l 1
 28 169 l 1
 28 234 l 1
 278 656 l 1
 374 656 l 1
 374 237 l 1
 471 237 l 1
 471 169 l 1
 374 169 l 1
294 573 m 1
 274 513.666666667 214.666666667 401.666666667 116 237 c 1
 294 237 l 1
 294 573 l 1
EndSplineSet
Validated: 1
Substitution2: "'pnum' Proportional Numbers lookup 6 subtable" four.prop
Substitution2: "'onum' Oldstyle Figures lookup 4 subtable" four.oldstyle
AlternateSubs2: "'aalt' Access All Alternates lookup 1 subtable" four.oldstyle four.prop
EndChar

StartChar: G
Encoding: 71 71 58
Width: 667
Flags: W
HStem: -11 71<299.486 510.908> 236 68<383 513> 635 71<297.296 493.487>
VStem: 66 96<224.85 469.438> 513 85<73.7158 236>
LayerCount: 2
Fore
SplineSet
387 -11 m 0
 293.666666667 -11 216 26 154 100 c 0
 95.3333333333 169.333333333 66 251.666666667 66 347 c 256
 66 442.333333333 95.3333333333 525 154 595 c 0
 216 669 293.666666667 706 387 706 c 0
 460.333333333 706 528.333333333 689 591 655 c 1
 574 564 l 1
 518 611.333333333 455.666666667 635 387 635 c 0
 317.666666667 635 261.666666667 603.333333333 219 540 c 0
 181 483.333333333 162 419 162 347 c 256
 162 275 181 211 219 155 c 0
 262.333333333 91.6666666667 318.333333333 60 387 60 c 0
 431 60 473 66.6666666667 513 80 c 1
 513 236 l 1
 383 236 l 1
 383 304 l 1
 598 304 l 1
 598 39 l 1
 530 5.66666666667 459.666666667 -11 387 -11 c 0
EndSplineSet
Validated: 1
Position2: "'cpsp' Capital Spacing lookup 0 subtable" dx=7 dy=0 dh=14 dv=0
EndChar

StartChar: g
Encoding: 103 103 59
Width: 500
Flags: W
HStem: -206 64<145.764 354.752> -5 79<131.017 372.041> 125 64<166.059 275.401> 384 71<355.238 474> 391 64<166.351 277.913>
VStem: 28 77<-108.385 -21.94> 61 77<218.321 361.473> 65 60<80.2529 151.312> 306 77<218.079 361.973> 395 76<-108.224 -28.0356>
LayerCount: 2
Fore
SplineSet
61 290 m 0xf2c0
 61 379.911149022 131.986933876 455 222 455 c 0xeac0
 258 455 289.333333333 444.666666667 316 424 c 1
 364 444.666666667 416.666666667 455 474 455 c 1
 486 384 l 1
 456 386.666666667 435 388 423 388 c 0
 410.647510915 388 366.943822174 384 355 384 c 1
 373.666666667 355.333333333 383 324 383 290 c 0
 383 200.088850978 312.013066124 125 222 125 c 0
 189.333333333 125 159.666666667 134 133 152 c 1
 127.666666667 144 125 134 125 122 c 0xf1c0
 125 90 142.666666667 74 178 74 c 2
 265 74 l 2
 280.333333333 74 303.333333333 72.3333333333 334 69 c 0
 362 65.6666666667 392.333333333 53.3333333333 425 32 c 0
 455.666666667 12 471 -21.3333333333 471 -68 c 0
 471 -113.333333333 444 -149 390 -175 c 0
 347.333333333 -195.666666667 300.333333333 -206 249 -206 c 0
 198.333333333 -206 151.666666667 -195.666666667 109 -175 c 0
 55 -149 28 -113.666666667 28 -69 c 0xf4c0
 28 -25.6666666667 48.3333333333 8.66666666667 89 34 c 1
 73 55.3333333333 65 80 65 108 c 0xf1c0
 65 137.333333333 74.3333333333 165.333333333 93 192 c 1
 71.6666666667 220.666666667 61 253.333333333 61 290 c 0xf2c0
306 290 m 0
 306 347.189629957 277.007365164 391 222 391 c 256
 166.998234135 391 138 347.17504606 138 290 c 256
 138 232.810370043 166.992634836 189 222 189 c 0
 258.211394948 189 294.056778917 217.593048317 303 248 c 0
 305 255.333333333 306 269.333333333 306 290 c 0
177 -5 m 2
 133.615908142 -5 105 -30.5373926794 105 -69 c 0xe4c0
 105 -94.3333333333 124 -113.666666667 162 -127 c 0
 189.333333333 -137 218.666666667 -142 250 -142 c 0
 280.666666667 -142 310 -137 338 -127 c 0
 376 -113.666666667 395 -94.6666666667 395 -70 c 0
 395 -26.6666666667 352 -5 266 -5 c 2
 177 -5 l 2
EndSplineSet
Validated: 1
Substitution2: "'smcp' Lowercase to Small Capitals in lookup 1 subtable" G.sc
EndChar

StartChar: grave
Encoding: 96 96 60
Width: 500
Flags: W
HStem: 527 167
VStem: 104 220
LayerCount: 2
Fore
SplineSet
256 527 m 1
 104 694 l 1
 190 694 l 1
 324 527 l 1
 256 527 l 1
EndSplineSet
Validated: 1
EndChar

StartChar: greater
Encoding: 62 62 61
Width: 778
Flags: W
HStem: -40 49<83.2871 104> 491 49<83.2871 104>
LayerCount: 2
Fore
SplineSet
673 225 m 2
 126 -33 l 2
 116 -37.6666666667 109.666666667 -40 107 -40 c 0
 91 -40 83 -32 83 -16 c 0
 83 -6 90 2.33333333333 104 9 c 2
 615 250 l 1
 104 491 l 2
 90 497.666666667 83 506 83 516 c 0
 83 532 91 540 107 540 c 0
 109.666666667 540 116 537.666666667 126 533 c 2
 673 275 l 2
 687 268.333333333 694 260 694 250 c 256
 694 240 687 231.666666667 673 225 c 2
EndSplineSet
Validated: 1
EndChar

StartChar: H
Encoding: 72 72 62
Width: 708
Flags: W
HStem: 0 21G<94 190 517 613> 326 68<190 517> 674 20G<94 190 517 613>
VStem: 94 96<0 326 394 694> 517 96<0 326 394 694>
LayerCount: 2
Fore
SplineSet
517 0 m 1
 517 326 l 1
 190 326 l 1
 190 0 l 1
 94 0 l 1
 94 694 l 1
 190 694 l 1
 190 394 l 1
 517 394 l 1
 517 694 l 1
 613 694 l 1
 613 0 l 1
 517 0 l 1
EndSplineSet
Validated: 1
Position2: "'cpsp' Capital Spacing lookup 0 subtable" dx=7 dy=0 dh=14 dv=0
EndChar

StartChar: h
Encoding: 104 104 63
Width: 517
Flags: W
HStem: 0 21G<81 165 351 435> 390 68<212.71 326.115> 674 20G<81 162>
VStem: 81 81<0 337.576 394 694> 351 84<0 364.797>
LayerCount: 2
Fore
SplineSet
260 390 m 0
 194.313000195 390 165 318.983252654 165 246 c 2
 165 0 l 1
 81 0 l 1
 81 694 l 1
 162 694 l 1
 162 394 l 1
 198 436.666666667 243 458 297 458 c 0
 389 458 435 405 435 299 c 2
 435 0 l 1
 351 0 l 1
 351 292 l 2
 351 356.177880478 324.132385444 390 260 390 c 0
EndSplineSet
Validated: 1
Substitution2: "'smcp' Lowercase to Small Capitals in lookup 1 subtable" H.sc
EndChar

StartChar: hyphen
Encoding: 45 45 64
Width: 333
Flags: W
HStem: 193 58<11 276>
VStem: 11 265<193 251>
LayerCount: 2
Fore
SplineSet
11 193 m 1
 11 251 l 1
 276 251 l 1
 276 193 l 1
 11 193 l 1
EndSplineSet
Validated: 1
EndChar

StartChar: I
Encoding: 73 73 65
Width: 278
Flags: W
HStem: 0 21G<93 184> 674 20G<93 184>
VStem: 93 91<0 694>
LayerCount: 2
Fore
SplineSet
93 0 m 5
 93 694 l 5
 184 694 l 1
 184 0 l 1
 93 0 l 5
EndSplineSet
Validated: 1
Position2: "'cpsp' Capital Spacing lookup 0 subtable" dx=7 dy=0 dh=14 dv=0
EndChar

StartChar: i
Encoding: 105 105 66
Width: 239
Flags: W
HStem: 0 21G<79 159> 427 20G<79 159> 559 96<72 166>
VStem: 72 94<559 655> 79 80<0 447>
LayerCount: 2
Fore
SplineSet
72 559 m 5xf0
 72 655 l 5
 166 655 l 5
 166 559 l 5
 72 559 l 5xf0
79 0 m 1xe8
 79 447 l 1
 159 447 l 1
 159 0 l 1
 79 0 l 1xe8
EndSplineSet
Validated: 1
Substitution2: "'smcp' Lowercase to Small Capitals in lookup 1 subtable" I.sc
EndChar

StartChar: J
Encoding: 74 74 67
Width: 472
Flags: W
HStem: -22 68<103.458 258.058> 674 20G<296 388>
VStem: 296 92<83.4204 694>
LayerCount: 2
Fore
SplineSet
388 151 m 2
 388 41.9011376597 322.045749094 -22 213 -22 c 0
 155.666666667 -22 98.6666666667 -7.66666666667 42 21 c 1
 57 106 l 1
 92.3333333333 66 135 46 185 46 c 0
 256.238915637 46 296 85.1292543336 296 154 c 2
 296 694 l 1
 388 694 l 1
 388 151 l 2
EndSplineSet
Validated: 1
Position2: "'cpsp' Capital Spacing lookup 0 subtable" dx=7 dy=0 dh=14 dv=0
EndChar

StartChar: j
Encoding: 106 106 68
Width: 267
Flags: W
HStem: -205 71<-24.1918 89.5191> 426 20G<104 184> 559 96<90 184>
VStem: 90 94<559 655> 104 80<-119.257 446>
LayerCount: 2
Fore
SplineSet
90 559 m 5xf0
 90 655 l 5
 184 655 l 5
 184 559 l 5
 90 559 l 5xf0
184 -56 m 2xe8
 184 -135.429581968 135.243421821 -205 59 -205 c 0
 18.3333333333 -205 -22 -193 -62 -169 c 1
 -38 -100 l 1
 -15.3333333333 -122.666666667 9 -134 35 -134 c 0
 77.1917660192 -134 104 -111.900418826 104 -66 c 2
 104 446 l 1
 184 446 l 1
 184 -56 l 2xe8
EndSplineSet
Validated: 1
Substitution2: "'smcp' Lowercase to Small Capitals in lookup 1 subtable" J.sc
EndChar

StartChar: K
Encoding: 75 75 69
Width: 694
Flags: W
HStem: 0 21G<96 188 540.592 654> 674 20G<96 188 520.499 643>
VStem: 96 92<0 227 333 694>
LayerCount: 2
Fore
SplineSet
554 0 m 1
 314 358 l 1
 188 227 l 1
 188 0 l 1
 96 0 l 1
 96 694 l 1
 188 694 l 1
 188 333 l 1
 540 694 l 1
 643 694 l 1
 374 419 l 1
 654 0 l 1
 554 0 l 1
EndSplineSet
Validated: 1
Position2: "'cpsp' Capital Spacing lookup 0 subtable" dx=7 dy=0 dh=14 dv=0
EndChar

StartChar: k
Encoding: 107 107 70
Width: 489
Flags: W
HStem: 0 21G<84 159 371.119 475> 427 20G<336.6 455> 674 20G<84 162>
VStem: 84 78<0 142 247 694>
LayerCount: 2
Fore
SplineSet
385 0 m 1
 233 219 l 1
 159 142 l 1
 159 0 l 1
 84 0 l 1
 84 694 l 1
 162 694 l 1
 162 247 l 1
 356 447 l 1
 455 447 l 1
 286 272 l 1
 475 0 l 1
 385 0 l 1
EndSplineSet
Validated: 1
Substitution2: "'smcp' Lowercase to Small Capitals in lookup 1 subtable" K.sc
EndChar

StartChar: L
Encoding: 76 76 71
Width: 542
Flags: W
HStem: 0 71<189 499> 674 20G<94 189>
VStem: 94 95<71 694>
LayerCount: 2
Fore
SplineSet
94 0 m 1
 94 694 l 1
 189 694 l 1
 189 71 l 1
 233 71 l 1
 499 73 l 1
 499 0 l 1
 94 0 l 1
EndSplineSet
Validated: 1
Position2: "'cpsp' Capital Spacing lookup 0 subtable" dx=7 dy=0 dh=14 dv=0
EndChar

StartChar: l
Encoding: 108 108 72
Width: 239
Flags: W
HStem: 0 21G<79 158> 674 20G<79 158>
VStem: 79 79<0 694>
LayerCount: 2
Fore
SplineSet
79 0 m 5
 79 694 l 5
 158 694 l 1
 158 0 l 1
 79 0 l 5
EndSplineSet
Validated: 1
Substitution2: "'smcp' Lowercase to Small Capitals in lookup 1 subtable" L.sc
EndChar

StartChar: less
Encoding: 60 60 73
Width: 778
Flags: W
HStem: -40 49<673 693.713> 491 49<673 693.713>
LayerCount: 2
Fore
SplineSet
670 -40 m 0
 667.333333333 -40 661 -37.6666666667 651 -33 c 2
 104 225 l 2
 90 231.666666667 83 240 83 250 c 256
 83 260 90 268.333333333 104 275 c 2
 651 533 l 2
 661 537.666666667 667.333333333 540 670 540 c 0
 686 540 694 532 694 516 c 0
 694 506 687 497.666666667 673 491 c 2
 162 250 l 1
 673 9 l 2
 687 2.33333333333 694 -6 694 -16 c 0
 694 -32 686 -40 670 -40 c 0
EndSplineSet
Validated: 1
EndChar

StartChar: M
Encoding: 77 77 74
Width: 875
Flags: W
HStem: 0 21G<100 185 689 774> 674 20G<100 250.448 647.308 774>
VStem: 100 85<0 590> 689 85<0 593>
LayerCount: 2
Fore
SplineSet
437 110 m 1
 447.666666667 148.666666667 477 230.666666667 525 356 c 2
 655 694 l 1
 774 694 l 1
 774 0 l 1
 689 0 l 1
 689 593 l 1
 680.333333333 565 668.666666667 532 654 494 c 0
 595.428268079 335.238398587 534.088335178 179.244998155 474 22 c 1
 397 22 l 1
 249 409 l 2
 217 494.333333333 195.666666667 554.666666667 185 590 c 1
 185 0 l 1
 100 0 l 1
 100 694 l 1
 218 694 l 1
 282.895124529 529.561791196 344.554476755 361.887810089 408 196 c 0
 420.666666667 162.666666667 430.333333333 134 437 110 c 1
EndSplineSet
Validated: 1
Position2: "'cpsp' Capital Spacing lookup 0 subtable" dx=7 dy=0 dh=14 dv=0
EndChar

StartChar: m
Encoding: 109 109 75
Width: 794
Flags: W
HStem: 0 21G<81 166 355 439 628 713> 387 68<214.841 331.614 487.743 603.789>
VStem: 81 85<0 340.854 387 450> 355 84<0 337.772> 628 85<0 362.383>
CounterMasks: 1 38
LayerCount: 2
Fore
SplineSet
262 387 m 0
 196.248074373 387 166 317.944093902 166 245 c 2
 166 0 l 1
 81 0 l 1
 81 450 l 1
 160 450 l 1
 160 387 l 1
 198 432.333333333 244.666666667 455 300 455 c 0
 364.666666667 455 407.333333333 429.666666667 428 379 c 1
 464.666666667 429.666666667 513.333333333 455 574 455 c 0
 666.666666667 455 713 402.333333333 713 297 c 2
 713 0 l 1
 628 0 l 1
 628 290 l 2
 628 353.666746009 604.764118883 387 535 387 c 0
 469.666237748 387 439 316.607143397 439 245 c 2
 439 0 l 1
 355 0 l 1
 355 290 l 2
 355 353.666746009 331.764118883 387 262 387 c 0
EndSplineSet
Validated: 1
Substitution2: "'smcp' Lowercase to Small Capitals in lookup 1 subtable" M.sc
EndChar

StartChar: N
Encoding: 78 78 76
Width: 708
Flags: W
HStem: 0 21G<96 181 473.017 611> 674 20G<96 233.983 526 611>
VStem: 96 85<0 605> 526 85<89 694>
LayerCount: 2
Fore
SplineSet
526 89 m 1
 526 694 l 1
 611 694 l 1
 611 0 l 1
 483 0 l 1
 181 605 l 1
 181 0 l 1
 96 0 l 1
 96 694 l 1
 224 694 l 1
 526 89 l 1
EndSplineSet
Validated: 1
Position2: "'cpsp' Capital Spacing lookup 0 subtable" dx=7 dy=0 dh=14 dv=0
EndChar

StartChar: n
Encoding: 110 110 77
Width: 517
Flags: W
HStem: 0 21G<81 165 351 435> 387 68<212.776 326.285>
VStem: 81 84<0 340.599 388 450> 351 84<0 362.383>
LayerCount: 2
Fore
SplineSet
260 387 m 0
 194.349995401 387 165 317.284326477 165 245 c 2
 165 0 l 1
 81 0 l 1
 81 450 l 1
 159 450 l 1
 159 388 l 1
 195.666666667 432.666666667 241.666666667 455 297 455 c 0
 389 455 435 402.333333333 435 297 c 2
 435 0 l 1
 351 0 l 1
 351 290 l 2
 351 354.597794756 324.991491813 387 260 387 c 0
EndSplineSet
Validated: 1
Substitution2: "'smcp' Lowercase to Small Capitals in lookup 1 subtable" N.sc
EndChar

StartChar: nine
Encoding: 57 57 78
Width: 500
Flags: W
HStem: -22 68<130.583 273.124> 192 68<180.766 298.479> 613 65<187.931 312.548>
VStem: 42 88<319.206 543.243> 365 92<255.494 517.006>
CounterMasks: 1 e0
LayerCount: 2
Fore
SplineSet
206 -22 m 0
 159.333333333 -22 114 -6 70 26 c 1
 105 86 l 1
 136.333333333 59.3333333333 170.333333333 46 207 46 c 0
 307.415486369 46 356.074820198 161.785612077 366 266 c 1
 322 216.666666667 268.333333333 192 205 192 c 0
 151.666666667 192 109.666666667 220 79 276 c 0
 54.3333333333 322.666666667 42 375 42 433 c 0
 42 497.666666667 60.6666666667 553.666666667 98 601 c 0
 138.666666667 652.333333333 190.333333333 678 253 678 c 0
 302.333333333 678 346.666666667 656 386 612 c 0
 433.333333333 559.333333333 457 467 457 335 c 0
 457 247.666666667 437.333333333 169.666666667 398 101 c 0
 350.666666667 19 286.666666667 -22 206 -22 c 0
243 260 m 0
 317.979825923 260 365 331.936392891 365 410 c 0
 365 456.539092758 357.174777414 495.475667759 342 541 c 0
 326.666666667 589 297 613 253 613 c 256
 166.256460794 613 130 528.302716014 130 433 c 0
 130 336.388105081 161.554255816 260 243 260 c 0
EndSplineSet
Validated: 1
Substitution2: "'pnum' Proportional Numbers lookup 6 subtable" nine.prop
Substitution2: "'onum' Oldstyle Figures lookup 4 subtable" nine.oldstyle
AlternateSubs2: "'aalt' Access All Alternates lookup 1 subtable" nine.oldstyle nine.prop
EndChar

StartChar: numbersign
Encoding: 35 35 79
Width: 833
Flags: W
HStem: 127 48<56.0835 245 307 471 534 775.917> 325 48<56.0835 298 361 525 587 775.917> 674 20G<413.333 424 639.333 650>
VStem: 166 49<-188.533 -140.615> 392 50<-188.533 -148.154 655.975 688.533>
LayerCount: 2
Fore
SplineSet
739 127 m 2
 520 127 l 1
 442 -167 l 2
 440.666666667 -171.666666667 437 -179 431 -189 c 0
 426.333333333 -192.333333333 421.333333333 -194 416 -194 c 0
 400 -194 392 -186 392 -170 c 0
 392 -163.333333333 393.333333333 -157 396 -151 c 1
 471 127 l 1
 293 127 l 1
 215 -167 l 2
 213.666666667 -171.666666667 210 -179 204 -189 c 0
 200 -192.333333333 195.333333333 -194 190 -194 c 0
 174 -194 166 -186 166 -170 c 0
 166 -163.333333333 167.333333333 -157 170 -151 c 1
 245 127 l 1
 93 127 l 2
 68.3333333333 127 56 135 56 151 c 256
 56 167 68.6666666667 175 94 175 c 2
 259 175 l 1
 298 325 l 1
 94 325 l 2
 68.6666666667 325 56 333 56 349 c 256
 56 365 68.3333333333 373 93 373 c 2
 312 373 l 1
 390 667 l 2
 391.333333333 671.666666667 395 679 401 689 c 0
 405.666666667 692.333333333 410.666666667 694 416 694 c 0
 432 694 440 686 440 670 c 0
 440 663.333333333 438.666666667 657 436 651 c 1
 361 373 l 1
 539 373 l 1
 617 667 l 2
 618.333333333 671.666666667 622 679 628 689 c 0
 632 692.333333333 636.666666667 694 642 694 c 0
 658 694 666 686 666 670 c 0
 666 663.333333333 664.666666667 657 662 651 c 1
 587 373 l 1
 739 373 l 2
 763.666666667 373 776 365 776 349 c 256
 776 333 763.333333333 325 738 325 c 2
 573 325 l 1
 534 175 l 1
 738 175 l 2
 763.333333333 175 776 167 776 151 c 256
 776 135 763.666666667 127 739 127 c 2
347 325 m 1
 307 175 l 1
 485 175 l 1
 525 325 l 1
 347 325 l 1
EndSplineSet
Validated: 1
EndChar

StartChar: O
Encoding: 79 79 80
Width: 736
Flags: W
HStem: -22 72<281.494 452.102> 645 71<281.22 454.317>
VStem: 56 96<222.218 480.735> 583 96<222.411 488.462>
LayerCount: 2
Fore
SplineSet
367 -22 m 0
 275 -22 199 17 139 95 c 0
 83.6666666667 167 56 250.333333333 56 345 c 0
 56 440.333333333 83.6666666667 524.333333333 139 597 c 0
 199 676.333333333 275.333333333 716 368 716 c 0
 452 716 525 680 587 608 c 0
 629 558.666666667 655.666666667 514 667 474 c 0
 675 448 679 405 679 345 c 0
 679 249.666666667 651.333333333 166.333333333 596 95 c 0
 536 17 459.666666667 -22 367 -22 c 0
367 645 m 0
 299 645 244.666666667 613.333333333 204 550 c 0
 169.333333333 495.333333333 152 432 152 360 c 0
 152 284 168.666666667 216.333333333 202 157 c 0
 242 85.6666666667 297.333333333 50 368 50 c 0
 438 50 493 86 533 158 c 0
 566.333333333 217.333333333 583 284.666666667 583 360 c 0
 583 432 565.666666667 495.333333333 531 550 c 0
 490.333333333 613.333333333 435.666666667 645 367 645 c 0
EndSplineSet
Validated: 1
Position2: "'cpsp' Capital Spacing lookup 0 subtable" dx=7 dy=0 dh=14 dv=0
EndChar

StartChar: o
Encoding: 111 111 81
Width: 500
Flags: W
HStem: -11 71<179.976 319.649> 393 68<177.241 321.921>
VStem: 30 84<133.947 323.614> 385 84<133.518 323.903>
LayerCount: 2
Fore
SplineSet
249 -11 m 256
 186.333333333 -11 134.166666667 11.8333333333 92.5 57.5 c 0
 50.8333333333 103.166666667 30 157.333333333 30 220 c 0
 30 284.666666667 50.3333333333 340.333333333 91 387 c 0
 133.666666667 436.333333333 186.666666667 461 250 461 c 256
 313.333333333 461 365.666666667 436.833333333 407 388.5 c 0
 448.333333333 340.166666667 469 284 469 220 c 0
 469 156.666666667 448 102.333333333 406 57 c 0
 364 11.6666666667 311.666666667 -11 249 -11 c 256
385 230 m 0
 385 320.715289757 336.274412448 393 249 393 c 0
 162.626784762 393 114 319.419627849 114 230 c 0
 114 139.293721141 163.00272249 60 249 60 c 0
 335.878191239 60 385 138.739353773 385 230 c 0
EndSplineSet
Validated: 1
Substitution2: "'smcp' Lowercase to Small Capitals in lookup 1 subtable" O.sc
EndChar

StartChar: one
Encoding: 49 49 82
Width: 500
Flags: W
HStem: 0 65<95 217 302 424> 547 66<89 209.161> 658 20G<257.667 302>
VStem: 217 85<65 569>
LayerCount: 2
Fore
SplineSet
95 0 m 1
 95 65 l 1
 217 65 l 1
 217 569 l 1
 184.333333333 555.666666667 141.666666667 548.333333333 89 547 c 1
 89 613 l 1
 175.666666667 616.333333333 238.333333333 638 277 678 c 1
 302 678 l 1
 302 65 l 1
 424 65 l 1
 424 0 l 1
 95 0 l 1
EndSplineSet
Validated: 1
Substitution2: "'pnum' Proportional Numbers lookup 6 subtable" one.prop
Substitution2: "'onum' Oldstyle Figures lookup 4 subtable" one.oldstyle
AlternateSubs2: "'aalt' Access All Alternates lookup 1 subtable" one.oldstyle one.prop
EndChar

StartChar: P
Encoding: 80 80 83
Width: 639
Flags: W
HStem: 0 21G<96 191> 286 65<191 418.179> 631 63<188 418.983>
VStem: 96 95<0 286 351 631> 494 88<418.077 563.23>
LayerCount: 2
Fore
SplineSet
352 286 m 2
 191 286 l 1
 191 0 l 1
 96 0 l 1
 96 694 l 1
 345 694 l 2
 407 694 461 676 507 640 c 0
 557 600.666666667 582 550.666666667 582 490 c 0
 582 430.666666667 558 381.333333333 510 342 c 0
 464.666666667 304.666666667 412 286 352 286 c 2
494 490 m 0
 494 580.849765726 418.295244859 631 323 631 c 2
 188 631 l 1
 188 351 l 1
 323 351 l 2
 416.465887479 351 494 400.914136389 494 490 c 0
EndSplineSet
Validated: 1
Position2: "'cpsp' Capital Spacing lookup 0 subtable" dx=7 dy=0 dh=14 dv=0
EndChar

StartChar: p
Encoding: 112 112 84
Width: 517
Flags: W
HStem: -13 68<207.924 324.102> 384 71<216.883 332.276> 424 20G<82 163>
VStem: 82 84<-194 38 84.707 354.338 400 444> 396 84<133.956 311.201>
LayerCount: 2
Fore
SplineSet
295 -13 m 0xd8
 248.333333333 -13 205.333333333 4 166 38 c 1
 166 -194 l 1
 82 -194 l 1
 82 444 l 1
 163 444 l 1xb8
 163 400 l 1
 209 436.666666667 261.333333333 455 320 455 c 0
 372 455 413 428 443 374 c 0
 467.666666667 328.666666667 480 278 480 222 c 0
 480 162.666666667 464.333333333 110 433 64 c 0
 397.666666667 12.6666666667 351.666666667 -13 295 -13 c 0xd8
256 55 m 0
 338.27890833 55 396 136.188715074 396 222 c 0
 396 262.666666667 384.666666667 299 362 331 c 0
 337.333333333 366.333333333 305.333333333 384 266 384 c 0xd8
 224.666666667 384 191.333333333 365.666666667 166 329 c 1
 166 132 l 2
 166 118.666666667 169 108 175 100 c 0
 197 70 224 55 256 55 c 0
EndSplineSet
Validated: 1
Substitution2: "'smcp' Lowercase to Small Capitals in lookup 1 subtable" P.sc
EndChar

StartChar: parenleft
Encoding: 40 40 85
Width: 389
Flags: W
VStem: 79 83<50.6941 450.711>
LayerCount: 2
Fore
SplineSet
337 750 m 1
 219.390570931 629.833844213 162 478.322528035 162 250 c 0
 162 57.3154873022 212.947546879 -105.537056255 295 -204 c 0
 305 -216 319 -231.333333333 337 -250 c 1
 267 -250 l 1
 141.666666667 -132 79 34.6666666667 79 250 c 0
 79 450.549804717 133.452650493 610.043441149 236 719 c 0
 248 731 248 731 267 750 c 1
 337 750 l 1
EndSplineSet
Validated: 1
EndChar

StartChar: parenright
Encoding: 41 41 86
Width: 389
Flags: W
VStem: 226 83<48.8289 448.447>
LayerCount: 2
Fore
SplineSet
51 -250 m 1
 168.609429069 -129.833844213 226 21.6774719651 226 250 c 0
 226 405.167832212 190.376067875 550.373220208 136 641 c 0
 99.145742295 700.230057026 93.7685190633 704.063442488 51 750 c 1
 121 750 l 1
 246.333333333 632 309 465.333333333 309 250 c 0
 309 78.3988322771 263.420960438 -84.3743816864 186 -179 c 0
 165.333333333 -204.333333333 143.666666667 -228 121 -250 c 1
 51 -250 l 1
EndSplineSet
Validated: 1
EndChar

StartChar: percent
Encoding: 37 37 87
Width: 833
Flags: W
HStem: -56 68<601.057 672.034> 283 68<600.752 670.43> 343 68<163.788 231.878> 682 68<162.413 233.471>
VStem: 56 82<439.465 654.574> 262 76<446.041 648.823> 494 82<40.5208 255.564> 700 76<44.3052 247.74>
LayerCount: 2
Fore
SplineSet
637 -56 m 0xdf
 591.666666667 -56 555.333333333 -32 528 16 c 0
 505.333333333 56 494 100 494 148 c 0
 494 196.666666667 505.333333333 240.666666667 528 280 c 0
 555.333333333 327.333333333 591.666666667 351 637 351 c 0
 681.666666667 351 717 327 743 279 c 0
 765 239 776 195 776 147 c 256
 776 99 765 55.3333333333 743 16 c 0
 716.333333333 -32 681 -56 637 -56 c 0xdf
652 706 m 2
 223 -38 l 2
 215.666666667 -50 207.333333333 -56 198 -56 c 0
 182.666666667 -56 175 -47.6666666667 175 -31 c 1
 182 -13 l 1
 612 732 l 2
 619.333333333 744 627.666666667 750 637 750 c 0
 652.333333333 750 660 742 660 726 c 0
 660 722.666666667 657.333333333 716 652 706 c 2
198 343 m 256xbf
 153.333333333 343 117.333333333 367 90 415 c 0
 67.3333333333 455 56 499 56 547 c 0
 56 595.666666667 67.3333333333 639.666666667 90 679 c 0
 117.333333333 726.333333333 153.333333333 750 198 750 c 256
 242.666666667 750 278.333333333 726 305 678 c 0
 327 638 338 594 338 546 c 256
 338 498 327 454.333333333 305 415 c 0
 278.333333333 367 242.666666667 343 198 343 c 256xbf
700 148 m 0
 700 199.955451352 679.04363333 283 637 283 c 0xdf
 627.666666667 283 618.666666667 279.333333333 610 272 c 0
 585.75720644 251.393625474 576 197.946035698 576 147 c 0
 576 94.2275366255 586.796800162 41.16255987 612 21 c 0
 620 15 628.333333333 12 637 12 c 0
 659 12 675.666666667 30.3333333333 687 67 c 0
 695.666666667 93 700 120 700 148 c 0
198 411 m 0xbf
 241.38161179 411 262 493.799206623 262 547 c 0
 262 574.333333333 257.666666667 601 249 627 c 0
 237 663.666666667 220 682 198 682 c 0
 189.333333333 682 180.666666667 678.333333333 172 671 c 0
 147.236610198 649.951118668 138 598.894950301 138 546 c 0
 138 493.198732674 149.122525808 439.901979354 174 420 c 0
 182 414 190 411 198 411 c 0xbf
EndSplineSet
Validated: 1
EndChar

StartChar: period
Encoding: 46 46 88
Width: 278
Flags: W
HStem: 0 83<97 180>
VStem: 97 83<0 83>
LayerCount: 2
Fore
SplineSet
97 0 m 1
 97 83 l 1
 180 83 l 1
 180 0 l 1
 97 0 l 1
EndSplineSet
Validated: 1
EndChar

StartChar: plus
Encoding: 43 43 89
Width: 778
Flags: W
HStem: 226 48<56.0813 365 413 720.919>
VStem: 365 48<-82.9187 226 274 582.919>
LayerCount: 2
Fore
SplineSet
684 226 m 2
 413 226 l 1
 413 -46 l 2
 413 -70.6666666667 405 -83 389 -83 c 256
 373 -83 365 -70.6666666667 365 -46 c 2
 365 226 l 1
 93 226 l 2
 68.3333333333 226 56 234 56 250 c 256
 56 266 68.3333333333 274 93 274 c 2
 365 274 l 1
 365 546 l 2
 365 570.666666667 373 583 389 583 c 256
 405 583 413 570.666666667 413 546 c 2
 413 274 l 1
 684 274 l 2
 708.666666667 274 721 266 721 250 c 256
 721 234 708.666666667 226 684 226 c 2
EndSplineSet
Validated: 1
EndChar

StartChar: Q
Encoding: 81 81 90
Width: 736
Flags: W
HStem: -23 71<280.308 416.318> 645 71<281.715 453.361>
VStem: 56 93<211.665 476.026> 586 93<210.908 478.29>
LayerCount: 2
Fore
SplineSet
536 35 m 1
 656 -125 l 1
 545 -125 l 1
 460 -6 l 1
 430.666666667 -17.3333333333 399.666666667 -23 367 -23 c 0
 275 -23 199 16 139 94 c 0
 83.6666666667 166 56 249.666666667 56 345 c 256
 56 440.333333333 83.6666666667 524.333333333 139 597 c 0
 199 676.333333333 275.333333333 716 368 716 c 0
 460 716 536 676 596 596 c 0
 651.333333333 523.333333333 679 439.666666667 679 345 c 0
 679 215 631.333333333 111.666666667 536 35 c 1
367 645 m 0
 297.666666667 645 242.333333333 610.666666667 201 542 c 0
 166.333333333 484 149 418.333333333 149 345 c 0
 149 270.333333333 166.333333333 204.666666667 201 148 c 0
 242.333333333 81.3333333333 298 48 368 48 c 0
 388.666666667 48 405 50.3333333333 417 55 c 1
 316 199 l 1
 413 199 l 1
 490 97 l 1
 554 157 586 239.666666667 586 345 c 0
 586 419.666666667 568.666666667 485.666666667 534 543 c 0
 492.666666667 611 437 645 367 645 c 0
EndSplineSet
Validated: 1
Position2: "'cpsp' Capital Spacing lookup 0 subtable" dx=7 dy=0 dh=14 dv=0
EndChar

StartChar: q
Encoding: 113 113 91
Width: 517
Flags: W
HStem: -13 68<185.88 299.786> 384 71<188.67 302.327>
VStem: 36 84<130.664 307.07> 353 81<-194 42 93.4434 343.32 394 455>
LayerCount: 2
Fore
SplineSet
222 455 m 0
 276.422585956 455 326.506438872 423.805256269 353 394 c 1
 353 455 l 1
 434 455 l 1
 434 -194 l 1
 350 -194 l 1
 350 42 l 1
 306.666666667 5.33333333333 258.666666667 -13 206 -13 c 0
 152 -13 109 13.6666666667 77 67 c 0
 49.6666666667 112.333333333 36 163.333333333 36 220 c 0
 36 279.333333333 51.6666666667 332 83 378 c 0
 119 429.333333333 165.333333333 455 222 455 c 0
120 220 m 0
 120 137.580839431 172.470183333 55 250 55 c 0
 288 55 319 73 343 109 c 0
 349.666666667 118.333333333 353 128.666666667 353 140 c 2
 353 278 l 2
 353 331.471595514 312.46687328 384 259 384 c 0
 217.666666667 384 183.666666667 366.333333333 157 331 c 0
 132.333333333 299 120 262 120 220 c 0
EndSplineSet
Validated: 1
Substitution2: "'smcp' Lowercase to Small Capitals in lookup 1 subtable" Q.sc
EndChar

StartChar: question
Encoding: 63 63 92
Width: 472
Flags: W
HStem: 0 90<177 266> 637 68<132.157 301.51>
VStem: 177 89<0 90> 185 73<173 325.906> 331 84<488.391 609.943>
LayerCount: 2
Fore
SplineSet
224 705 m 0xd8
 334.518185413 705 415 652.740918395 415 548 c 0
 415 499.333333333 396 458.666666667 358 426 c 0
 291.333333333 369.333333333 258 304 258 230 c 2
 258 173 l 1
 185 173 l 1
 185 209 l 2
 185 321.666666667 222.666666667 411 298 477 c 0
 320 495.666666667 331 519.666666667 331 549 c 0
 331 607.666666667 295.333333333 637 224 637 c 0
 170 637 122.333333333 617.666666667 81 579 c 1
 55 650 l 1
 108.333333333 686.666666667 164.666666667 705 224 705 c 0xd8
177 0 m 1xe8
 177 90 l 1
 266 90 l 1
 266 0 l 1
 177 0 l 1xe8
EndSplineSet
Validated: 1
EndChar

StartChar: quotedbl
Encoding: 34 34 93
Width: 434
Flags: W
HStem: 430 286<100 183 251 334>
VStem: 100 83<430 716> 251 83<430 716>
LayerCount: 2
Fore
SplineSet
251 430 m 1
 251 716 l 1
 334 716 l 1
 334 430 l 1
 251 430 l 1
100 430 m 1
 100 716 l 1
 183 716 l 1
 183 430 l 1
 100 430 l 1
EndSplineSet
Validated: 1
EndChar

StartChar: quotesingle
Encoding: 39 39 94
Width: 278
Flags: W
HStem: 430 286<100 178>
VStem: 100 78<430 716>
LayerCount: 2
Fore
SplineSet
100 430 m 1
 100 716 l 1
 178 716 l 1
 178 430 l 1
 100 430 l 1
EndSplineSet
Validated: 1
EndChar

StartChar: R
Encoding: 82 82 95
Width: 646
Flags: W
HStem: 0 21G<96 189 511.179 620> 313 69<189 338> 631 63<189 428.17>
VStem: 96 93<0 313 382 631> 502 87<443.569 569.066>
LayerCount: 2
Fore
SplineSet
589 506 m 0
 589 409.669623822 505.496998032 349.984550097 424 324 c 1
 620 0 l 1
 523 0 l 1
 338 313 l 1
 189 313 l 1
 189 0 l 1
 96 0 l 1
 96 694 l 1
 337 694 l 2
 398.333333333 694 454 678.333333333 504 647 c 0
 560.666666667 611 589 564 589 506 c 0
502 506 m 256
 502 589.326281594 415.908592159 631 326 631 c 2
 189 631 l 1
 189 382 l 1
 326 382 l 2
 417.302973936 382 502 422.346618095 502 506 c 256
EndSplineSet
Validated: 1
Position2: "'cpsp' Capital Spacing lookup 0 subtable" dx=7 dy=0 dh=14 dv=0
EndChar

StartChar: r
Encoding: 114 114 96
Width: 342
Flags: W
HStem: 0 21G<82 162> 381 74<246.139 327>
VStem: 82 80<0 298.931 369 450>
LayerCount: 2
Fore
SplineSet
327 381 m 1
 230.880753594 378.40218253 162 311.563943642 162 214 c 2
 162 0 l 1
 82 0 l 1
 82 450 l 1
 158 450 l 1
 158 369 l 1
 199.333333333 425.666666667 255.666666667 454.333333333 327 455 c 1
 327 381 l 1
EndSplineSet
Validated: 1
Substitution2: "'smcp' Lowercase to Small Capitals in lookup 1 subtable" R.sc
EndChar

StartChar: S
Encoding: 83 83 97
Width: 556
Flags: W
HStem: -22 76<161.681 351.942> 643 73<198.589 379.571>
VStem: 56 85<465.678 590.837> 413 86<112.683 249.128>
LayerCount: 2
Fore
SplineSet
281 643 m 0
 208.200722023 643 141 598.650394922 141 529 c 0
 141 497.666666667 152 472.666666667 174 454 c 0
 193.333333333 437.333333333 227 423 275 411 c 0
 319.666666667 400.333333333 350.666666667 391.333333333 368 384 c 0
 439.448034742 353.833051998 499 282.528904994 499 191 c 0
 499 130.333333333 477 79.6666666667 433 39 c 0
 389 -1.66666666667 336.333333333 -22 275 -22 c 0
 195 -22 118 1.33333333333 44 48 c 1
 60 138 l 1
 125.333333333 82 196.666666667 54 274 54 c 0
 348.792515695 54 413 106.221658985 413 181 c 0
 413 243.808118355 370.381892401 283.729387753 317 301 c 0
 310.333333333 303 289.333333333 308.5 254 317.5 c 0
 182.838762132 335.625975683 150.461425931 345.748130902 110 389 c 0
 74 427.666666667 56 470.333333333 56 517 c 0
 56 575.666666667 79.3333333333 624.333333333 126 663 c 0
 170 698.333333333 222 716 282 716 c 0
 348 716 409.333333333 699 466 665 c 1
 450 576 l 1
 397.333333333 620.666666667 341 643 281 643 c 0
EndSplineSet
Validated: 1
Position2: "'cpsp' Capital Spacing lookup 0 subtable" dx=7 dy=0 dh=14 dv=0
EndChar

StartChar: s
Encoding: 115 115 98
Width: 383
Flags: W
HStem: -11 70<93.1895 266.902> 395 66<122.545 294.837>
VStem: 33 77<298.593 381.706> 283 77<77.1272 165.325>
LayerCount: 2
Fore
SplineSet
360 130 m 0
 360 35.2309918725 293.494419401 -11 196 -11 c 0
 143.333333333 -11 87.3333333333 4 28 34 c 1
 41 110 l 1
 91 76 142.333333333 59 195 59 c 0
 253.666666667 59 283 80.3333333333 283 123 c 0
 283 158.725168322 251.183365241 176.70415869 218 185 c 0
 202 187.666666667 178.666666667 192.666666667 148 200 c 0
 84.602384978 214.088358894 33 265.006503041 33 328 c 0
 33 421.567110941 106.429437035 461 199 461 c 0
 248.333333333 461 296.666666667 450 344 428 c 1
 331 355 l 1
 286.333333333 381.666666667 239 395 189 395 c 0
 136.333333333 395 110 376 110 338 c 0
 110 322.666666667 115.666666667 310 127 300 c 0
 138.333333333 290 164.333333333 281 205 273 c 0
 255 263.666666667 293.666666667 247 321 223 c 1
 324 219 l 1
 348 194.333333333 360 164.666666667 360 130 c 0
EndSplineSet
Validated: 1
Substitution2: "'smcp' Lowercase to Small Capitals in lookup 1 subtable" S.sc
EndChar

StartChar: semicolon
Encoding: 59 59 99
Width: 278
Flags: W
HStem: 354 90<97 180>
VStem: 96 45<-125 -102.026> 97 83<-2 88 354 444>
LayerCount: 2
Fore
SplineSet
97 354 m 1xa0
 97 444 l 1
 180 444 l 1
 180 354 l 1
 97 354 l 1xa0
141 -125 m 1xc0
 96 -125 l 1xc0
 119 -2 l 1
 97 -2 l 1
 97 88 l 1
 180 88 l 1
 180 3 l 1xa0
 141 -125 l 1xc0
EndSplineSet
Validated: 1
EndChar

StartChar: seven
Encoding: 55 55 100
Width: 500
Flags: W
HStem: -11 21G<150 240> 578 78<42 378>
VStem: 150 90<-11 180.021>
LayerCount: 2
Fore
SplineSet
320 369 m 0
 266.666666667 257.666666667 240 131 240 -11 c 1
 150 -11 l 1
 150 211 226 407.666666667 378 579 c 1
 268 579 l 2
 264 579 258 578.666666667 250 578 c 2
 42 578 l 1
 42 656 l 1
 457 656 l 1
 457 586 l 1
 409.666666667 533.333333333 364 461 320 369 c 0
EndSplineSet
Validated: 1
Substitution2: "'pnum' Proportional Numbers lookup 6 subtable" seven.prop
Substitution2: "'onum' Oldstyle Figures lookup 4 subtable" seven.oldstyle
AlternateSubs2: "'aalt' Access All Alternates lookup 1 subtable" seven.oldstyle seven.prop
EndChar

StartChar: six
Encoding: 54 54 101
Width: 500
Flags: W
HStem: -22 68<189.201 313.474> 396 68<200.481 317.714> 613 65<233.478 412.565>
VStem: 42 92<220.003 332.08> 369 88<113.709 335.17>
CounterMasks: 1 e0
LayerCount: 2
Fore
SplineSet
393 47 m 0
 353 1 305.666666667 -22 251 -22 c 0
 209.666666667 -22 173 -8.66666666667 141 18 c 0
 74.0035463272 71.8168234421 42 190.007167644 42 322 c 0
 42 411.333333333 63.3333333333 490 106 558 c 0
 156 638 223.333333333 678 308 678 c 0
 344.666666667 678 380.666666667 671 416 657 c 1
 416 590 l 1
 378 605.333333333 342.333333333 613 309 613 c 0
 200.021283366 613 144.217551735 500.929122715 133 390 c 1
 177 439.333333333 230.666666667 464 294 464 c 0
 347.333333333 464 389.333333333 436 420 380 c 0
 444.666666667 333.333333333 457 281 457 223 c 0
 457 154.333333333 435.666666667 95.6666666667 393 47 c 0
369 223 m 0
 369 317.402035302 335.100153033 396 256 396 c 0
 180.318213497 396 135.323263588 326.07255167 134 248 c 0
 134 223.333333333 133 220 133 220 c 1
 134.333333333 195.333333333 142 162.666666667 156 122 c 0
 172.666666667 71.3333333333 204.333333333 46 251 46 c 0
 290.333333333 46 322 66 346 106 c 0
 361.333333333 131.333333333 369 170.333333333 369 223 c 0
EndSplineSet
Validated: 1
Substitution2: "'pnum' Proportional Numbers lookup 6 subtable" six.prop
Substitution2: "'onum' Oldstyle Figures lookup 4 subtable" six.oldstyle
AlternateSubs2: "'aalt' Access All Alternates lookup 1 subtable" six.oldstyle six.prop
EndChar

StartChar: slash
Encoding: 47 47 102
Width: 500
Flags: W
VStem: 56 48<-249.866 -228>
LayerCount: 2
Fore
SplineSet
438 707 m 2
 104 -228 l 2
 98.6666666667 -242.666666667 90.6666666667 -250 80 -250 c 0
 64 -250 56 -242 56 -226 c 0
 56 -222.666666667 57.6666666667 -216.333333333 61 -207 c 2
 395 728 l 2
 400.333333333 742.666666667 408.333333333 750 419 750 c 0
 435 750 443 742 443 726 c 0
 443 722.666666667 441.333333333 716.333333333 438 707 c 2
EndSplineSet
Validated: 1
EndChar

StartChar: T
Encoding: 84 84 104
Width: 681
Flags: W
HStem: 0 21G<293 388> 616 72<36 293 388 644>
VStem: 293 95<0 617>
LayerCount: 2
Fore
SplineSet
644 616 m 1
 490 616 l 2
 482 616.666666667 476 617 472 617 c 2
 388 617 l 1
 388 0 l 1
 293 0 l 1
 293 617 l 1
 208 617 l 2
 204 617 198 616.666666667 190 616 c 2
 36 616 l 1
 36 688 l 1
 644 688 l 1
 644 616 l 1
EndSplineSet
Validated: 1
Position2: "'cpsp' Capital Spacing lookup 0 subtable" dx=7 dy=0 dh=14 dv=0
EndChar

StartChar: t
Encoding: 116 116 105
Width: 361
Flags: W
HStem: -11 71<157.667 295.671> 381 65<19 101 179 316>
VStem: 101 78<69.5664 381 446 571>
LayerCount: 2
Fore
SplineSet
186 -11 m 0
 129.333333333 -11 101 33 101 121 c 2
 101 381 l 1
 19 381 l 1
 19 446 l 1
 104 446 l 1
 104 571 l 1
 179 571 l 1
 179 446 l 1
 316 446 l 1
 316 381 l 1
 179 381 l 1
 179 138 l 2
 179 86 194.333333333 60 225 60 c 256
 255.666666667 60 285.666666667 71.6666666667 315 95 c 1
 333 28 l 1
 283 2 234 -11 186 -11 c 0
EndSplineSet
Validated: 1
Substitution2: "'smcp' Lowercase to Small Capitals in lookup 1 subtable" T.sc
EndChar

StartChar: three
Encoding: 51 51 106
Width: 500
Flags: W
HStem: -22 68<150.167 311.051> 320 68<165 279.23> 613 65<167.879 312.253>
VStem: 342 89<451.323 583.115> 362 95<100.896 265.941>
CounterMasks: 1 e0
LayerCount: 2
Fore
SplineSet
327 355 m 1xf0
 394.901116544 330.415112976 457 269.333177321 457 182 c 0
 457 124.666666667 436.333333333 76.3333333333 395 37 c 0
 353.666666667 -2.33333333333 304.333333333 -22 247 -22 c 0
 164.333333333 -22 96 13.3333333333 42 84 c 1
 55 155 l 1
 93.7179007952 94.7721543186 157.761690372 46 245 46 c 0
 317.561804226 46 362 107.966574134 362 183 c 0xe8
 362 212.333333333 354.333333333 241 339 269 c 0
 320.333333333 303 286.666666667 320 238 320 c 2
 165 320 l 1
 165 388 l 1
 215.666666667 392 242.333333333 394.333333333 245 395 c 0
 298.700738096 407.488543743 342 459.635808626 342 524 c 0
 342 578.988197116 302.168359715 613 247 613 c 0
 171.538568975 613 120.998436105 563.778868947 96 504 c 1
 55 565 l 1
 99.6666666667 640.333333333 164 678 248 678 c 0
 295.333333333 678 336.666666667 664.333333333 372 637 c 0
 411.333333333 607.666666667 431 570 431 524 c 0
 431 450.666666667 396.333333333 394.333333333 327 355 c 1xf0
EndSplineSet
Validated: 1
Substitution2: "'pnum' Proportional Numbers lookup 6 subtable" three.prop
Substitution2: "'onum' Oldstyle Figures lookup 4 subtable" three.oldstyle
AlternateSubs2: "'aalt' Access All Alternates lookup 1 subtable" three.oldstyle three.prop
EndChar

StartChar: two
Encoding: 50 50 107
Width: 500
Flags: W
HStem: 0 78<135 449> 448 21G<83.974 94.3333> 607 71<153.743 296.57>
VStem: 42 46<480.621 515.967> 361 88<373.903 538.837>
LayerCount: 2
Fore
SplineSet
236 678 m 0
 360.160767222 678 449 585.749473865 449 462 c 0
 449 412 432 367.333333333 398 328 c 0
 387.333333333 316 371.666666667 299.333333333 351 278 c 0
 331 260.666666667 301.666666667 235 263 201 c 0
 254.401514927 192.401514927 149.584931578 90.1958904757 135 77 c 1
 231 77 l 2
 235 77 241 77.3333333333 249 78 c 2
 449 78 l 1
 449 0 l 1
 50 0 l 1
 50 69 l 1
 173 193 l 1
 209.296049692 225.263155281 285.180974591 294.415069155 325 351 c 0
 349 384.333333333 361 420.666666667 361 460 c 0
 361 542.067463018 304.274506341 607 222 607 c 0
 181.333333333 607 151 591.333333333 131 560 c 0
 115 534 100.666666667 496.666666667 88 448 c 1
 79.9480883971 460.525195827 63.3395434191 479.990684871 52 497 c 0
 49.3333333333 501 46 505.666666667 42 511 c 1
 72.6666666667 622.333333333 137.333333333 678 236 678 c 0
EndSplineSet
Validated: 1
Substitution2: "'pnum' Proportional Numbers lookup 6 subtable" two.prop
Substitution2: "'onum' Oldstyle Figures lookup 4 subtable" two.oldstyle
AlternateSubs2: "'aalt' Access All Alternates lookup 1 subtable" two.oldstyle two.prop
EndChar

StartChar: U
Encoding: 85 85 108
Width: 688
Flags: W
HStem: -22 63<270.277 425.471> 674 20G<94 189 508 593>
VStem: 94 95<130.196 694> 508 85<133.897 694>
LayerCount: 2
Fore
SplineSet
347 41 m 256
 447.149530913 41 508 127.987093769 508 233 c 2
 508 694 l 1
 593 694 l 1
 593 234 l 2
 593 163.333333333 569.333333333 103 522 53 c 0
 474.666666667 3 416 -22 346 -22 c 0
 275.333333333 -22 215.666666667 3 167 53 c 0
 118.333333333 103 94 163.333333333 94 234 c 2
 94 694 l 1
 189 694 l 1
 189 233 l 2
 189 128.503099163 246.892812151 41 347 41 c 256
EndSplineSet
Validated: 1
Position2: "'cpsp' Capital Spacing lookup 0 subtable" dx=7 dy=0 dh=14 dv=0
EndChar

StartChar: u
Encoding: 117 117 109
Width: 517
Flags: W
HStem: -11 62<172.841 302.548> 0 21G<354 435> 424 20G<81 165 351 435>
VStem: 81 84<60.5142 444> 351 84<0 42 89.0232 444>
LayerCount: 2
Fore
SplineSet
237 51 m 0xb8
 303.59318646 51 351 88.8300622617 351 155 c 2
 351 444 l 1
 435 444 l 1
 435 0 l 1
 354 0 l 1x78
 354 42 l 1
 310.666666667 6.66666666667 255.666666667 -11 189 -11 c 0
 117 -11 81 29.6666666667 81 111 c 2
 81 444 l 1
 165 444 l 1
 165 115 l 2
 165 62.9756064112 180.552856579 51 237 51 c 0xb8
EndSplineSet
Validated: 1
Substitution2: "'smcp' Lowercase to Small Capitals in lookup 1 subtable" U.sc
EndChar

StartChar: underscore
Encoding: 95 95 110
Width: 667
Flags: W
HStem: -164 78<0 667>
LayerCount: 2
Fore
SplineSet
0 -164 m 1
 0 -86 l 1
 667 -86 l 1
 667 -164 l 1
 0 -164 l 1
EndSplineSet
Validated: 1
EndChar

StartChar: V
Encoding: 86 86 111
Width: 667
Flags: W
HStem: 0 21G<277.133 388.867> 674 20G<12 120.685 560.258 654>
LayerCount: 2
Fore
SplineSet
340 90 m 1
 350.666666667 127.333333333 382.666666667 215 436 353 c 2
 568 694 l 1
 654 694 l 1
 381 0 l 1
 285 0 l 1
 12 694 l 1
 113 694 l 1
 284 249 l 2
 312.666666667 175.666666667 331.333333333 122.666666667 340 90 c 1
EndSplineSet
Validated: 1
Position2: "'cpsp' Capital Spacing lookup 0 subtable" dx=7 dy=0 dh=14 dv=0
EndChar

StartChar: v
Encoding: 118 118 112
Width: 461
Flags: W
HStem: 0 21G<176.252 283.748> 424 20G<12 104.471 358.367 448>
LayerCount: 2
Fore
SplineSet
231 72 m 1
 239 104.666666667 257.666666667 159.666666667 287 237 c 2
 366 444 l 1
 448 444 l 1
 276 0 l 1
 184 0 l 1
 12 444 l 1
 97 444 l 1
 193 187 l 2
 211.666666667 137 224.333333333 98.6666666667 231 72 c 1
EndSplineSet
Validated: 1
Substitution2: "'smcp' Lowercase to Small Capitals in lookup 1 subtable" V.sc
EndChar

StartChar: W
Encoding: 87 87 113
Width: 944
Flags: W
HStem: 0 21G<210.15 307.78 629.236 732.85> 674 20G<13 111.727 426.212 524.765 845.185 930>
LayerCount: 2
Fore
SplineSet
684 95 m 1
 692.666666667 141.666666667 718 237 760 381 c 2
 851 694 l 1
 930 694 l 1
 727 0 l 1
 635 0 l 1
 520 399 l 2
 494 489 477 555 469 597 c 1
 460.333333333 552.333333333 438 468.666666667 402 346 c 2
 302 0 l 1
 216 0 l 1
 13 694 l 1
 106 694 l 1
 234 247 l 2
 250 190.333333333 261.666666667 141.333333333 269 100 c 1
 278.333333333 151.333333333 302.666666667 245.666666667 342 383 c 2
 432 694 l 1
 519 694 l 1
 617 354 l 2
 644.741903267 255.912556307 666.231703203 181.303155871 684 95 c 1
EndSplineSet
Validated: 1
Position2: "'cpsp' Capital Spacing lookup 0 subtable" dx=7 dy=0 dh=14 dv=0
EndChar

StartChar: w
Encoding: 119 119 114
Width: 683
Flags: W
HStem: 0 21G<143.829 240.049 433.065 538.171> 424 20G<13 102.012 294.797 382.132 582.934 669>
LayerCount: 2
Fore
SplineSet
483 78 m 1
 489 108.666666667 503 160.333333333 525 233 c 2
 589 444 l 1
 669 444 l 1
 532 0 l 1
 439 0 l 1
 366 246 l 2
 351.333333333 295.333333333 341.666666667 333 337 359 c 1
 331 326.333333333 317.333333333 275 296 205 c 2
 234 0 l 1
 150 0 l 1
 13 444 l 1
 96 444 l 1
 148 271 l 2
 173.333333333 188.333333333 190 125.333333333 198 82 c 1
 204 119.333333333 219 177.666666667 243 257 c 2
 301 444 l 1
 376 444 l 1
 441 232 l 2
 461.666666667 163.333333333 475.666666667 112 483 78 c 1
EndSplineSet
Validated: 1
Substitution2: "'smcp' Lowercase to Small Capitals in lookup 1 subtable" W.sc
EndChar

StartChar: X
Encoding: 88 88 115
Width: 667
Flags: W
HStem: 0 21G<10 129.067 528.533 656> 674 20G<24 150.902 495.569 614>
LayerCount: 2
Fore
SplineSet
543 0 m 1
 326 300 l 1
 115 0 l 1
 10 0 l 1
 279 366 l 1
 24 694 l 1
 136 694 l 1
 326 439 l 1
 510 694 l 1
 614 694 l 1
 373 366 l 1
 656 0 l 1
 543 0 l 1
EndSplineSet
Validated: 1
Position2: "'cpsp' Capital Spacing lookup 0 subtable" dx=7 dy=0 dh=14 dv=0
EndChar

StartChar: x
Encoding: 120 120 116
Width: 461
Flags: W
HStem: 0 21G<-5 101.495 356.956 465> 424 20G<1 109.75 340.75 448>
LayerCount: 2
Fore
SplineSet
373 0 m 1
 227 182 l 1
 86 0 l 1
 -5 0 l 1
 189 229 l 1
 1 444 l 1
 93 444 l 1
 227 284 l 1
 357 444 l 1
 448 444 l 1
 265 229 l 1
 465 0 l 1
 373 0 l 1
EndSplineSet
Validated: 1
Substitution2: "'smcp' Lowercase to Small Capitals in lookup 1 subtable" X.sc
EndChar

StartChar: Y
Encoding: 89 89 117
Width: 667
Flags: W
HStem: 0 21G<287 379> 674 20G<-1 139.667 517 667>
VStem: 287 92<0 277>
LayerCount: 2
Fore
SplineSet
379 277 m 1
 379 0 l 1
 287 0 l 1
 287 278 l 1
 -1 694 l 1
 113 694 l 1
 166.333333333 618.666666667 242.666666667 505.333333333 342 354 c 1
 399 443 l 2
 407 455.666666667 464 539.333333333 570 694 c 1
 667 694 l 1
 379 277 l 1
EndSplineSet
Validated: 1
Position2: "'cpsp' Capital Spacing lookup 0 subtable" dx=7 dy=0 dh=14 dv=0
EndChar

StartChar: y
Encoding: 121 121 118
Width: 461
Flags: W
HStem: -205 64<43.5663 151.738> 424 20G<12 111.842 328.667 448>
LayerCount: 2
Fore
SplineSet
237 81 m 1
 248.333333333 139.666666667 291.333333333 260.666666667 366 444 c 1
 448 444 l 1
 232 -90 l 2
 207.759530037 -148.39749582 181.686635528 -205 117 -205 c 0
 92.3333333333 -205 67.6666666667 -202 43 -196 c 1
 36 -123 l 1
 66 -135 93 -141 117 -141 c 0
 144.43196057 -141 160.150832434 -108.614539334 169 -86 c 2
 204 1 l 1
 12 444 l 1
 98 444 l 1
 125.684199299 381.454216399 180.939409021 252.739087156 215 155 c 0
 225.666666667 124.333333333 233 99.6666666667 237 81 c 1
EndSplineSet
Validated: 1
Substitution2: "'smcp' Lowercase to Small Capitals in lookup 1 subtable" Y.sc
EndChar

StartChar: Z
Encoding: 90 90 119
Width: 611
Flags: W
HStem: 0 71<178 560> 625 69<69 432>
LayerCount: 2
Fore
SplineSet
56 0 m 1
 56 48 l 1
 432 626 l 1
 305 626 l 2
 301 626 295 625.666666667 287 625 c 2
 69 625 l 1
 69 694 l 1
 554 694 l 1
 554 648 l 1
 178 71 l 1
 203 71 l 1
 560 73 l 1
 560 0 l 1
 56 0 l 1
EndSplineSet
Validated: 1
Position2: "'cpsp' Capital Spacing lookup 0 subtable" dx=7 dy=0 dh=14 dv=0
EndChar

StartChar: z
Encoding: 122 122 120
Width: 435
Flags: W
HStem: 0 69<144 402> 378 66<42 285>
LayerCount: 2
Fore
SplineSet
28 0 m 1
 28 46 l 1
 285 379 l 1
 199 379 l 2
 191.666666667 378.333333333 186 378 182 378 c 2
 42 378 l 1
 42 444 l 1
 400 444 l 1
 400 400 l 1
 144 68 l 1
 237 68 l 2
 244.333333333 68.6666666667 250 69 254 69 c 2
 402 69 l 1
 402 0 l 1
 28 0 l 1
EndSplineSet
Validated: 1
Substitution2: "'smcp' Lowercase to Small Capitals in lookup 1 subtable" Z.sc
EndChar

StartChar: zero
Encoding: 48 48 121
Width: 500
Flags: W
HStem: -22 68<189.461 307.122> 610 68<187.718 310.073>
VStem: 42 84<140.207 515.846> 373 84<140.764 515.626>
LayerCount: 2
Fore
SplineSet
457 326 m 0
 457 141.774301066 412.986663055 -22 249 -22 c 0
 203 -22 162 -5.66666666667 126 27 c 0
 70 79.6666666667 42 179.333333333 42 326 c 0
 42 498.666666667 79.3333333333 607 154 651 c 0
 184.666666667 669 216.666666667 678 250 678 c 0
 326.306540357 678 383.115588368 631.445122294 411 578 c 0
 441.666666667 519.333333333 457 435.333333333 457 326 c 0
354 519 m 0
 333.333333333 579.666666667 298.333333333 610 249 610 c 0
 198.333333333 610 163 577.666666667 143 513 c 0
 131.666666667 477.666666667 126 419.333333333 126 338 c 0
 126 253.333333333 131.666666667 191.333333333 143 152 c 0
 162.333333333 81.3333333333 198 46 250 46 c 0
 300.666666667 46 335.666666667 80.3333333333 355 149 c 0
 367 189.666666667 373 252.666666667 373 338 c 0
 373 424 366.666666667 484.333333333 354 519 c 0
EndSplineSet
Validated: 1
Substitution2: "'zero' Slashed Zero lookup 14 subtable" zero.slash
Substitution2: "'pnum' Proportional Numbers lookup 6 subtable" zero.prop
Substitution2: "'onum' Oldstyle Figures lookup 4 subtable" zero.oldstyle
AlternateSubs2: "'aalt' Access All Alternates lookup 1 subtable" zero.oldstyle zero.prop zero.slash
EndChar

StartChar: ff
Encoding: 64256 64256 122
Width: 583
Flags: W
HStem: 0 21G<100 182 373 455> 382 65<27 100 182 290 455 564> 618 75<269.128 351 542.128 624> 637 68<199.931 349.58 473.113 622.595>
VStem: 100 82<0 382 447 619.21> 373 82<0 382 447 618.971>
LayerCount: 2
Fore
SplineSet
373 532 m 2xdc
 373 629.479542839 443.720439757 705 541 705 c 0xdc
 565 705 592.666666667 701 624 693 c 1
 624 618 l 1xec
 595.333333333 630.666666667 567.333333333 637 540 637 c 0
 522 637 504.333333333 633 487 625 c 0
 463.666666667 614.333333333 452 593 452 561 c 2
 452 447 l 1
 564 447 l 1
 564 382 l 1
 455 382 l 1
 455 0 l 1
 373 0 l 1
 373 532 l 2xdc
100 532 m 2
 100 630.015358353 169.856213768 705 268 705 c 0xdc
 292 705 319.666666667 701 351 693 c 1
 351 618 l 1xec
 321.666666667 630.666666667 293.666666667 637 267 637 c 0
 249 637 231.333333333 633 214 625 c 0
 190.666666667 614.333333333 179 593 179 561 c 2
 179 447 l 1
 290 447 l 1
 290 382 l 1
 182 382 l 1
 182 0 l 1
 100 0 l 1
 100 382 l 1
 27 382 l 1
 27 447 l 1
 100 447 l 1
 100 532 l 2
EndSplineSet
Validated: 1
Ligature2: "'liga' Standard Ligatures lookup 9 subtable" f f
Substitution2: "'smcp' Lowercase to Small Capitals in lookup 1 subtable" FF.sc
EndChar

StartChar: ffi
Encoding: 64259 64259 123
Width: 814
Flags: W
HStem: 0 21G<100 182 375 457 649 731> 382 65<27 100 182 299 457 574> 605 90<645 735> 617 76<252.156 324 512 574> 637 68<195.422 322.844 466.869 573>
VStem: 100 82<0 382 447 620.795> 375 82<0 382 447 626.323> 649 82<0 447 605 695>
LayerCount: 2
Fore
SplineSet
645 605 m 1xe7
 645 695 l 1
 735 695 l 1
 735 605 l 1
 645 605 l 1xe7
649 0 m 1
 649 447 l 1
 731 447 l 1
 731 0 l 1
 649 0 l 1
375 533 m 2
 375 621.521964801 426.881386268 705 511 705 c 0xcf
 532.333333333 705 553.333333333 701.333333333 574 694 c 1
 574 617 l 1xd7
 552 630.333333333 531 637 511 637 c 0xcf
 473 637 454 612.333333333 454 563 c 2
 454 447 l 1
 574 447 l 1
 574 382 l 1
 457 382 l 1
 457 0 l 1
 375 0 l 1
 375 533 l 2
100 532 m 2
 100 625.49221038 159.957692246 705 251 705 c 0xcf
 275.666666667 705 300 701 324 693 c 1
 324 617 l 1xd7
 298.666666667 630.333333333 274 637 250 637 c 0
 235.333333333 637 220.666666667 632.666666667 206 624 c 0
 188 614 179 593.333333333 179 562 c 2
 179 447 l 1
 299 447 l 1
 299 382 l 1
 182 382 l 1
 182 0 l 1
 100 0 l 1
 100 382 l 1
 27 382 l 1
 27 447 l 1
 100 447 l 1
 100 532 l 2
EndSplineSet
Validated: 1
Ligature2: "'liga' Standard Ligatures lookup 9 subtable" f f i
Substitution2: "'smcp' Lowercase to Small Capitals in lookup 1 subtable" FFI.sc
EndChar

StartChar: ffl
Encoding: 64260 64260 124
Width: 814
Flags: W
HStem: 0 21G<100 182 375 457 649 731> 382 65<27 100 182 299 457 574> 617 76<252.156 324 511.938 574> 637 68<195.422 322.844 466.869 572.923> 674 20G<649 731>
VStem: 100 82<0 382 447 620.795> 375 82<0 382 447 626.323> 649 82<0 694>
LayerCount: 2
Fore
SplineSet
649 0 m 1xcf
 649 694 l 1
 731 694 l 1
 731 0 l 1
 649 0 l 1xcf
375 533 m 2
 375 621.521964801 426.881386268 705 511 705 c 0xd7
 529 705 550 701 574 693 c 1
 574 617 l 1xe7
 552 630.333333333 531 637 511 637 c 0xd7
 473 637 454 612.333333333 454 563 c 2
 454 447 l 1
 574 447 l 1
 574 382 l 1
 457 382 l 1
 457 0 l 1
 375 0 l 1
 375 533 l 2
100 532 m 2
 100 625.49221038 159.957692246 705 251 705 c 0xd7
 275.666666667 705 300 701 324 693 c 1
 324 617 l 1xe7
 298.666666667 630.333333333 274 637 250 637 c 0
 235.333333333 637 220.666666667 632.666666667 206 624 c 0
 188 614 179 593.333333333 179 562 c 2
 179 447 l 1
 299 447 l 1
 299 382 l 1
 182 382 l 1
 182 0 l 1
 100 0 l 1
 100 382 l 1
 27 382 l 1
 27 447 l 1
 100 447 l 1
 100 532 l 2
EndSplineSet
Validated: 1
Ligature2: "'liga' Standard Ligatures lookup 9 subtable" f f l
Substitution2: "'smcp' Lowercase to Small Capitals in lookup 1 subtable" FFL.sc
EndChar

StartChar: fi
Encoding: 64257 64257 125
Width: 536
Flags: W
HStem: 0 21G<100 181 372 453> 382 65<27 100 181 297> 605 90<368 457> 637 68<190.47 295.923>
VStem: 100 81<0 382 447 626.337> 372 81<0 447 605 695>
LayerCount: 2
Fore
SplineSet
368 605 m 1xec
 368 695 l 1
 457 695 l 1
 457 605 l 1
 368 605 l 1xec
372 0 m 1
 372 447 l 1
 453 447 l 1
 453 0 l 1
 372 0 l 1
100 533 m 2
 100 621.553410927 150.520251841 705 234 705 c 0
 252 705 273 701 297 693 c 1
 297 616 l 1
 275 630 254 637 234 637 c 0xdc
 196.666666667 637 178 612.333333333 178 563 c 2
 178 447 l 1
 297 447 l 1
 297 382 l 1
 181 382 l 1
 181 0 l 1
 100 0 l 1
 100 382 l 1
 27 382 l 1
 27 447 l 1
 100 447 l 1
 100 533 l 2
EndSplineSet
Validated: 1
Ligature2: "'liga' Standard Ligatures lookup 9 subtable" f i
Substitution2: "'smcp' Lowercase to Small Capitals in lookup 1 subtable" FI.sc
EndChar

StartChar: fl
Encoding: 64258 64258 126
Width: 536
Flags: W
HStem: 0 21G<100 181 372 453> 382 65<27 100 181 297> 637 68<190.47 295.923> 674 20G<372 453>
VStem: 100 81<0 382 447 626.337> 372 81<0 694>
LayerCount: 2
Fore
SplineSet
372 0 m 1xdc
 372 694 l 1
 453 694 l 1
 453 0 l 1
 372 0 l 1xdc
100 533 m 2
 100 621.553410927 150.520251841 705 234 705 c 0
 252 705 273 701 297 693 c 1
 297 617 l 1
 275 630.333333333 254 637 234 637 c 0xec
 196.666666667 637 178 612.333333333 178 563 c 2
 178 447 l 1
 297 447 l 1
 297 382 l 1
 181 382 l 1
 181 0 l 1
 100 0 l 1
 100 382 l 1
 27 382 l 1
 27 447 l 1
 100 447 l 1
 100 533 l 2
EndSplineSet
Validated: 1
Ligature2: "'liga' Standard Ligatures lookup 9 subtable" f l
Substitution2: "'smcp' Lowercase to Small Capitals in lookup 1 subtable" FL.sc
EndChar

StartChar: Aacute
Encoding: 193 193 127
Width: 667
Flags: W
HStem: 0 21G<26 115.525 532.574 640> 202 64<207 441> 676 20G<279.5 386.5>
LayerCount: 2
Fore
SplineSet
328 739 m 1
 227 739 l 1
 411 868 l 1
 535 868 l 1
 328 739 l 1
540 0 m 1
 465 202 l 1
 184 202 l 1
 108 0 l 1
 26 0 l 1
 287 696 l 1
 379 696 l 1
 640 0 l 1
 540 0 l 1
324 604 m 1
 317.333333333 577.333333333 299.333333333 522.666666667 270 440 c 0
 249.673838918 381.326161082 228.780492981 323.219507019 207 266 c 1
 441 266 l 1
 353 515 l 2
 339 555 329.333333333 584.666666667 324 604 c 1
EndSplineSet
Validated: 1
Position2: "'cpsp' Capital Spacing lookup 0 subtable" dx=7 dy=0 dh=14 dv=0
EndChar

StartChar: aacute
Encoding: 225 225 128
Width: 481
Flags: W
HStem: -11 68<152.022 289.255> 0 21G<328 409> 191 59<186.47 325> 397 67<146.203 294.859> 674 20G<284.162 386>
VStem: 54 78<77.4794 153.099> 325 84<0 32 80.0286 191 250 365.656>
LayerCount: 2
Fore
SplineSet
233 521 m 1x3e
 163 521 l 1
 300 694 l 1
 386 694 l 1
 233 521 l 1x3e
244 464 m 0
 340.838339015 464 409 386.601300725 409 290 c 2
 409 0 l 1
 328 0 l 1x7e
 328 32 l 1
 288 3.33333333333 235 -11 169 -11 c 0xbe
 99.456382009 -11 54 46.4417768354 54 116 c 0
 54 165.333333333 89 201.666666667 159 225 c 0
 205.666666667 240.333333333 261 248.666666667 325 250 c 1
 325 289 l 2
 325 345.516675025 297.103179939 397 244 397 c 0
 192 397 141.666666667 379.666666667 93 345 c 1
 86 419 l 1
 136.666666667 449 189.333333333 464 244 464 c 0
132 118 m 0
 132 77.833781253 176.42223574 57 219 57 c 0xbe
 289.666666667 57 325 82.6666666667 325 134 c 2
 325 191 l 1
 196.333333333 184.333333333 132 160 132 118 c 0
EndSplineSet
Validated: 1
Substitution2: "'smcp' Lowercase to Small Capitals in lookup 1 subtable" Aacute.sc
EndChar

StartChar: Abreve
Encoding: 258 258 129
Width: 667
Flags: W
HStem: 0 21G<26 115.525 532.574 640> 202 64<207 441> 676 20G<279.5 386.5> 740 74<272.113 394.694>
VStem: 163 68<855.537 924> 436 68<856.863 924>
LayerCount: 2
Fore
SplineSet
504 924 m 1
 502.673460601 823.183005685 432.979324505 740 333 740 c 256
 283 740 242.333333333 758 211 794 c 0
 179.666666667 830 163.666666667 873.333333333 163 924 c 1
 231 924 l 1
 231.666666667 888.666666667 242.5 861.5 263.5 842.5 c 0
 284.5 823.5 308 814 334 814 c 0
 359.333333333 814 382.5 823.333333333 403.5 842 c 0
 424.5 860.666666667 435.333333333 888 436 924 c 1
 504 924 l 1
540 0 m 1
 465 202 l 1
 184 202 l 1
 108 0 l 1
 26 0 l 1
 287 696 l 1
 379 696 l 1
 640 0 l 1
 540 0 l 1
324 605 m 1
 317.333333333 578.333333333 299.333333333 523.333333333 270 440 c 0
 249.423235808 381.576764192 228.475956526 323.524043474 207 266 c 1
 441 266 l 1
 353 515 l 2
 339 555 329.333333333 585 324 605 c 1
EndSplineSet
Validated: 1
Position2: "'cpsp' Capital Spacing lookup 0 subtable" dx=7 dy=0 dh=14 dv=0
EndChar

StartChar: abreve
Encoding: 259 259 130
Width: 481
Flags: W
HStem: -11 68<152.022 289.255> 0 21G<328 409> 192 58<186.47 325> 397 67<146.203 294.859> 516 74<179.481 300.679> 680 20G<72 139.591 341.667 409>
VStem: 54 78<77.4794 154.143> 72 67<633.179 700> 325 84<0 32 80.0286 192 250 365.656> 342 67<629.414 700>
LayerCount: 2
Fore
SplineSet
409 700 m 1x3d40
 407.690691648 600.492565251 337.975605416 516 240 516 c 0
 141.098926107 516 73.3164654256 599.948627653 72 700 c 1
 139 700 l 1
 140.181507947 637.380078802 181.662139627 590 241 590 c 0
 265.666666667 590 288.5 599.333333333 309.5 618 c 0
 330.5 636.666666667 341.333333333 664 342 700 c 1
 409 700 l 1x3d40
244 464 m 0
 340.838339015 464 409 386.601300725 409 290 c 2
 409 0 l 1
 328 0 l 1x7e80
 328 32 l 1
 288 3.33333333333 235 -11 169 -11 c 0
 99.456382009 -11 54 46.4417768354 54 116 c 0
 54 165.333333333 89 201.666666667 159 225 c 0
 205.666666667 240.333333333 261 248.666666667 325 250 c 1
 325 289 l 2xbe80
 325 345.516675025 297.103179939 397 244 397 c 0
 192 397 141.666666667 379.666666667 93 345 c 1
 86 419 l 1
 136.666666667 449 189.333333333 464 244 464 c 0
132 118 m 0
 132 77.833781253 176.42223574 57 219 57 c 0xbe80
 289.666666667 57 325 82.6666666667 325 134 c 2
 325 192 l 1
 196.333333333 184.666666667 132 160 132 118 c 0
EndSplineSet
Validated: 1
Substitution2: "'smcp' Lowercase to Small Capitals in lookup 1 subtable" Abreve.sc
EndChar

StartChar: Abreveacute
Encoding: 7854 7854 131
Width: 667
Flags: W
HStem: 0 21G<26 115.525 532.574 640> 202 64<207 441> 677 20G<279.511 386.489> 741 74<272.113 394.694>
VStem: 163 68<856.537 925> 436 68<857.863 925>
LayerCount: 2
Fore
SplineSet
282 952 m 1
 180 952 l 1
 364 1081 l 1
 489 1081 l 1
 282 952 l 1
504 925 m 1
 502.673460601 824.183005685 432.979324505 741 333 741 c 256
 283 741 242.333333333 759 211 795 c 0
 179.666666667 831 163.666666667 874.333333333 163 925 c 1
 231 925 l 1
 231.666666667 889.666666667 242.5 862.5 263.5 843.5 c 0
 284.5 824.5 308 815 334 815 c 0
 359.333333333 815 382.5 824.333333333 403.5 843 c 0
 424.5 861.666666667 435.333333333 889 436 925 c 1
 504 925 l 1
540 0 m 1
 465 202 l 1
 184 202 l 1
 108 0 l 1
 26 0 l 1
 287 697 l 1
 379 697 l 1
 640 0 l 1
 540 0 l 1
324 605 m 1
 317.333333333 578.333333333 299.333333333 523.333333333 270 440 c 0
 249.423235808 381.576764192 228.475956526 323.524043474 207 266 c 1
 441 266 l 1
 353 516 l 2
 339 556 329.333333333 585.666666667 324 605 c 1
EndSplineSet
Validated: 1
Position2: "'cpsp' Capital Spacing lookup 0 subtable" dx=7 dy=0 dh=14 dv=0
EndChar

StartChar: abreveacute
Encoding: 7855 7855 132
Width: 481
Flags: W
HStem: -11 68<152.022 289.255> 0 21G<328 409> 192 59<186.47 325> 398 67<146.203 292.858> 517 74<179.593 300.679> 681 20G<72 139.593 341.667 409>
VStem: 54 78<77.4794 154.363> 72 67<634.472 701> 325 84<0 32 80.3276 192 251 364.673> 342 67<634.403 701>
LayerCount: 2
Fore
SplineSet
189 728 m 1x3c
 88 728 l 1
 271 857 l 1
 394 857 l 1
 189 728 l 1x3c
409 701 m 1x3d40
 407.690691648 601.492565251 337.975605416 517 240 517 c 0
 141.092857561 517 73.3245121849 601.661586134 72 701 c 1
 139 701 l 1
 140.186857934 639.283387444 182.186041958 591 241 591 c 0
 265.666666667 591 288.5 600.5 309.5 619.5 c 0
 330.5 638.5 341.333333333 665.666666667 342 701 c 1
 409 701 l 1x3d40
244 465 m 0
 341.347884935 465 409 387.413442053 409 290 c 2
 409 0 l 1
 328 0 l 1x7e80
 328 32 l 1
 288 3.33333333333 235 -11 169 -11 c 0
 99.456382009 -11 54 46.4417768354 54 116 c 0
 54 165.333333333 89 201.666666667 159 225 c 0
 205.666666667 240.333333333 261 249 325 251 c 1
 325 289 l 2xbe80
 325 345.461854249 296.677747665 398 244 398 c 0
 192 398 141.666666667 380.333333333 93 345 c 1
 86 420 l 1
 136.666666667 450 189.333333333 465 244 465 c 0
132 118 m 0
 132 77.833781253 176.42223574 57 219 57 c 0xbe80
 289.666666667 57 325 83 325 135 c 2
 325 192 l 1
 196.333333333 185.333333333 132 160.666666667 132 118 c 0
EndSplineSet
Validated: 1
EndChar

StartChar: Abrevedotbelow
Encoding: 7862 7862 133
Width: 667
Flags: W
HStem: -200 96<285 380> -1 21G<26 115.525 532.574 640> 201 64<207 441> 676 20G<279.511 386.489> 739 75<272.003 394.594>
VStem: 163 68<857.008 924> 285 95<-200 -104> 436 68<856.776 924>
LayerCount: 2
Fore
SplineSet
504 924 m 1
 502.675126613 823.309622583 432.478026121 739 333 739 c 256
 233.66206201 739 164.317481201 823.871428733 163 924 c 1
 231 924 l 1
 231.666666667 888.666666667 242.5 861.5 263.5 842.5 c 0
 284.5 823.5 308 814 334 814 c 0
 359.333333333 814 382.5 823.333333333 403.5 842 c 0
 424.5 860.666666667 435.333333333 888 436 924 c 1
 504 924 l 1
540 -1 m 1
 465 201 l 1
 184 201 l 1
 108 -1 l 1
 26 -1 l 1
 287 696 l 1
 379 696 l 1
 640 -1 l 1
 540 -1 l 1
285 -200 m 1
 285 -104 l 1
 380 -104 l 1
 380 -200 l 1
 285 -200 l 1
324 604 m 1
 317.333333333 577.333333333 299.333333333 522.333333333 270 439 c 0
 249.423235808 380.576764192 228.475956526 322.524043474 207 265 c 1
 441 265 l 1
 353 515 l 2
 339 555 329.333333333 584.666666667 324 604 c 1
EndSplineSet
Validated: 1
Position2: "'cpsp' Capital Spacing lookup 0 subtable" dx=7 dy=0 dh=14 dv=0
EndChar

StartChar: abrevedotbelow
Encoding: 7863 7863 134
Width: 481
Flags: W
HStem: -200 96<192 287> -13 69<150.394 289.255> -2 21G<328 409> 190 59<186.47 325> 397 66<146.203 292.768> 516 74<179.477 301.016> 680 20G<72 139.591 341.667 409>
VStem: 54 78<75.7755 152.285> 72 67<631.537 700> 192 95<-200 -104> 325 84<-2 30 79.0286 190 249 363.673> 342 67<629.558 700>
LayerCount: 2
Fore
SplineSet
409 700 m 1x9ed0
 407.69966017 601.174172927 339.655781294 516 240 516 c 0
 190 516 149.666666667 534 119 570 c 0
 88.3333333333 606 72.6666666667 649.333333333 72 700 c 1
 139 700 l 1
 140.181507947 637.380078802 181.662139627 590 241 590 c 0
 265.666666667 590 288.5 599.333333333 309.5 618 c 0
 330.5 636.666666667 341.333333333 664 342 700 c 1
 409 700 l 1x9ed0
244 463 m 0
 340.838339015 463 409 385.601300725 409 289 c 2
 409 -2 l 1
 328 -2 l 1xbf60
 328 30 l 1
 288 1.33333333333 235 -13 169 -13 c 0
 99.456382009 -13 54 44.4417768354 54 114 c 0
 54 214.311308128 204.301245508 246.511365887 325 249 c 1
 325 288 l 2xdf60
 325 344.461854249 296.677747665 397 244 397 c 0
 192 397 141.666666667 379.333333333 93 344 c 1
 86 419 l 1
 136.666666667 448.333333333 189.333333333 463 244 463 c 0
192 -200 m 1
 192 -104 l 1
 287 -104 l 1
 287 -200 l 1
 192 -200 l 1
132 116 m 0
 132 76.2805932848 175.748023233 56 219 56 c 0xdf60
 289.666666667 56 325 81.6666666667 325 133 c 2
 325 190 l 1
 196.333333333 183.333333333 132 158.666666667 132 116 c 0
EndSplineSet
Validated: 1
EndChar

StartChar: Abrevegrave
Encoding: 7856 7856 135
Width: 667
Flags: W
HStem: 0 21G<26 115.525 532.574 640> 202 64<207 441> 677 20G<279.511 386.489> 741 74<272.113 394.694>
VStem: 163 68<856.537 925> 436 68<857.863 925>
LayerCount: 2
Fore
SplineSet
386 952 m 1
 179 1081 l 1
 304 1081 l 1
 488 952 l 1
 386 952 l 1
504 925 m 1
 502.673460601 824.183005685 432.979324505 741 333 741 c 256
 283 741 242.333333333 759 211 795 c 0
 179.666666667 831 163.666666667 874.333333333 163 925 c 1
 231 925 l 1
 231.666666667 889.666666667 242.5 862.5 263.5 843.5 c 0
 284.5 824.5 308 815 334 815 c 0
 359.333333333 815 382.5 824.333333333 403.5 843 c 0
 424.5 861.666666667 435.333333333 889 436 925 c 1
 504 925 l 1
540 0 m 1
 465 202 l 1
 184 202 l 1
 108 0 l 1
 26 0 l 1
 287 697 l 1
 379 697 l 1
 640 0 l 1
 540 0 l 1
324 605 m 1
 317.333333333 578.333333333 299.333333333 523.333333333 270 440 c 0
 249.423235808 381.576764192 228.475956526 323.524043474 207 266 c 1
 441 266 l 1
 353 516 l 2
 339 556 329.333333333 585.666666667 324 605 c 1
EndSplineSet
Validated: 1
Position2: "'cpsp' Capital Spacing lookup 0 subtable" dx=7 dy=0 dh=14 dv=0
EndChar

StartChar: abrevegrave
Encoding: 7857 7857 136
Width: 481
Flags: W
HStem: -11 68<152.022 289.255> 0 21G<328 409> 192 59<186.47 325> 398 67<146.203 292.858> 517 74<179.593 300.679> 681 20G<72 139.593 341.667 409>
VStem: 54 78<77.4794 154.363> 72 67<634.472 701> 325 84<0 32 80.3276 192 251 364.673> 342 67<634.403 701>
LayerCount: 2
Fore
SplineSet
292 728 m 1x3c
 87 857 l 1
 211 857 l 1
 393 728 l 1
 292 728 l 1x3c
409 701 m 1x3d40
 407.690691648 601.492565251 337.975605416 517 240 517 c 0
 141.092857561 517 73.3245121849 601.661586134 72 701 c 1
 139 701 l 1
 140.186857934 639.283387444 182.186041958 591 241 591 c 0
 265.666666667 591 288.5 600.5 309.5 619.5 c 0
 330.5 638.5 341.333333333 665.666666667 342 701 c 1
 409 701 l 1x3d40
244 465 m 0
 341.347884935 465 409 387.413442053 409 290 c 2
 409 0 l 1
 328 0 l 1x7e80
 328 32 l 1
 288 3.33333333333 235 -11 169 -11 c 0
 99.456382009 -11 54 46.4417768354 54 116 c 0
 54 165.333333333 89 201.666666667 159 225 c 0
 205.666666667 240.333333333 261 249 325 251 c 1
 325 289 l 2xbe80
 325 345.461854249 296.677747665 398 244 398 c 0
 192 398 141.666666667 380.333333333 93 345 c 1
 86 420 l 1
 136.666666667 450 189.333333333 465 244 465 c 0
132 118 m 0
 132 77.833781253 176.42223574 57 219 57 c 0xbe80
 289.666666667 57 325 83 325 135 c 2
 325 192 l 1
 196.333333333 185.333333333 132 160.666666667 132 118 c 0
EndSplineSet
Validated: 1
EndChar

StartChar: Abrevehookabove
Encoding: 7858 7858 137
Width: 667
Flags: W
HStem: 0 21G<26 115.488 532.611 640> 203 63<207 441> 677 20G<279.511 386.489> 741 74<272.511 394.796> 1107 47<272.321 373.895>
VStem: 163 68<858.713 926> 309 36<936 989.514> 376 58<1048.84 1102.77> 436 68<858.39 926>
LayerCount: 2
Fore
SplineSet
434 1073 m 0
 434 1041.9417671 415.63852781 1025.18311669 392 1011 c 0
 372.666666667 998.333333333 360 988.5 354 981.5 c 0
 348 974.5 345 966 345 956 c 2
 345 936 l 1
 342 933 l 1
 313 933 l 1
 309 936 l 1
 309 956 l 2
 309 1001.33333333 327.666666667 1034.33333333 365 1055 c 0
 372.333333333 1059.66666667 376 1065.66666667 376 1073 c 0
 376 1095.66666667 359.666666667 1107 327 1107 c 0
 295.666666667 1107 272 1092.66666667 256 1064 c 1
 249 1064 l 1
 234 1108 l 1
 258 1138.66666667 289 1154 327 1154 c 0
 398.333333333 1154 434 1127 434 1073 c 0
504 926 m 1
 502.680181762 824.373995696 433.483035822 741 333 741 c 256
 233.667957863 741 164.309651043 825.156869674 163 926 c 1
 231 926 l 1
 231.666666667 890.666666667 242.5 863.333333333 263.5 844 c 0
 284.5 824.666666667 308 815 334 815 c 0
 359.333333333 815 382.5 824.5 403.5 843.5 c 0
 424.5 862.5 435.333333333 890 436 926 c 1
 504 926 l 1
540 0 m 1
 465 203 l 1
 184 203 l 1
 108 0 l 1
 26 0 l 1
 287 697 l 1
 379 697 l 1
 640 0 l 1
 540 0 l 1
324 606 m 1
 317.333333333 578.666666667 299.333333333 523.666666667 270 441 c 0
 249.545358159 382.121308508 228.622102798 323.711230535 207 266 c 1
 441 266 l 1
 353 516 l 2
 339 556 329.333333333 586 324 606 c 1
EndSplineSet
Validated: 1
Position2: "'cpsp' Capital Spacing lookup 0 subtable" dx=7 dy=0 dh=14 dv=0
EndChar

StartChar: abrevehookabove
Encoding: 7859 7859 138
Width: 481
Flags: W
HStem: -11 68<152.698 289.255> 0 21G<328 409> 192 59<186.47 325> 399 66<146.203 292.956> 518 74<179.477 301.016> 682 20G<72 139.591 341.667 409> 709 21G<216 252> 883 47<179.709 280.677>
VStem: 54 78<77.6348 154.363> 72 67<633.537 702> 216 36<712 764.25> 283 57<824.926 878.773> 325 84<0 32 80.3276 192 251 366.203> 342 67<631.558 702>
LayerCount: 2
Fore
SplineSet
340 849 m 0x3f30
 340 817.94334113 321.630627356 802.087084904 299 787 c 0
 267.666666667 767 252 749 252 733 c 2
 252 712 l 1
 248 709 l 1
 220 709 l 1
 216 712 l 1
 216 733 l 2
 216 777.666666667 234.333333333 810.333333333 271 831 c 0
 279 835.666666667 283 841.666666667 283 849 c 0
 283 871.666666667 266.666666667 883 234 883 c 0
 202.666666667 883 179.333333333 868.666666667 164 840 c 1
 157 840 l 1
 142 884 l 1
 165.333333333 914.666666667 196 930 234 930 c 0
 304.666666667 930 340 903 340 849 c 0x3f30
409 702 m 1x3f64
 407.69966017 603.174172927 339.655781294 518 240 518 c 0
 190 518 149.666666667 536 119 572 c 0
 88.3333333333 608 72.6666666667 651.333333333 72 702 c 1
 139 702 l 1
 140.181507947 639.380078802 181.662139627 592 241 592 c 0
 265.666666667 592 288.5 601.333333333 309.5 620 c 0
 330.5 638.666666667 341.333333333 666 342 702 c 1
 409 702 l 1x3f64
244 465 m 0
 341.347884935 465 409 387.413442053 409 290 c 2
 409 0 l 1
 328 0 l 1x7fa8
 328 32 l 1
 288 3.33333333333 235 -11 169 -11 c 0
 99.456382009 -11 54 46.4417768354 54 116 c 0
 54 165.333333333 89 201.666666667 159 225 c 0
 205 241 260.333333333 249.666666667 325 251 c 1
 325 289 l 2xbfa8
 325 346.209670626 297.126193094 399 244 399 c 0
 192 399 141.666666667 381.333333333 93 346 c 1
 86 421 l 1
 136.666666667 450.333333333 189.333333333 465 244 465 c 0
132 118 m 0
 132 78.5820667155 176.42223574 57 219 57 c 0xbfa8
 289.666666667 57 325 83 325 135 c 2
 325 192 l 1
 196.333333333 185.333333333 132 160.666666667 132 118 c 0
EndSplineSet
Validated: 1
EndChar

StartChar: Abrevetilde
Encoding: 7860 7860 139
Width: 667
Flags: W
HStem: 0 21G<26 115.488 532.611 640> 203 63<207 441> 677 20G<279.511 386.489> 741 74<272.113 394.694> 972 68<346.591 426.718> 1029 69<240.282 320.409>
VStem: 163 68<856.537 925 972 1022.92> 436 68<857.863 925 1044.32 1098>
LayerCount: 2
Fore
SplineSet
502 1098 m 1xf7
 500.876316597 1030.57899582 463.121683092 972 401 972 c 0xfb
 381.666666667 972 360 980.333333333 336 997 c 0
 305.333333333 1018.33333333 282.666666667 1029 268 1029 c 0xf7
 246 1029 234.333333333 1010 233 972 c 1
 165 972 l 1xfb
 166.123683403 1039.42100418 203.878316908 1098 266 1098 c 0xf7
 285.333333333 1098 307 1089.33333333 331 1072 c 0
 361.666666667 1050.66666667 384.333333333 1040 399 1040 c 0xfb
 421 1040 432.666666667 1059.33333333 434 1098 c 1
 502 1098 l 1xf7
504 925 m 1
 502.673460601 824.183005685 432.979324505 741 333 741 c 256
 283 741 242.333333333 759 211 795 c 0
 179.666666667 831 163.666666667 874.333333333 163 925 c 1
 231 925 l 1
 231.666666667 889.666666667 242.5 862.5 263.5 843.5 c 0
 284.5 824.5 308 815 334 815 c 0
 359.333333333 815 382.5 824.333333333 403.5 843 c 0
 424.5 861.666666667 435.333333333 889 436 925 c 1
 504 925 l 1
540 0 m 1
 465 203 l 1
 184 203 l 1
 108 0 l 1
 26 0 l 1
 287 697 l 1
 379 697 l 1
 640 0 l 1
 540 0 l 1
324 605 m 1
 317.333333333 578.333333333 299.333333333 523.333333333 270 440 c 0
 249.423235808 381.576764192 228.475956526 323.524043474 207 266 c 1
 441 266 l 1
 353 516 l 2
 339 556 329.333333333 585.666666667 324 605 c 1
EndSplineSet
Validated: 1
Position2: "'cpsp' Capital Spacing lookup 0 subtable" dx=7 dy=0 dh=14 dv=0
EndChar

StartChar: abrevetilde
Encoding: 7861 7861 140
Width: 481
Flags: W
HStem: -11 68<152.022 289.255> 0 21G<328 409> 192 59<186.87 325> 398 67<146.203 292.858> 517 75<179.38 300.781> 682 20G<72 139.591 341.667 409> 748 69<253.208 332.681> 806 68<147.73 227.066>
VStem: 54 78<77.4794 154.137> 72 67<635.003 702 748 801.409> 325 84<0 32 80.3276 192 251 364.673> 342 67<635.229 702 823.1 874>
LayerCount: 2
Fore
SplineSet
407 874 m 1x3d
 405.877196362 806.631781691 369.061166565 748 307 748 c 0x3e
 288.333333333 748 266.666666667 756.666666667 242 774 c 0
 212 795.333333333 189.666666667 806 175 806 c 0x3d
 153.666666667 806 142.333333333 786.666666667 141 748 c 1
 73 748 l 1x3e
 75.2265325602 814.795976806 110.681235081 874 173 874 c 0x3d
 192.333333333 874 214 865.666666667 238 849 c 0
 268.666666667 827.666666667 291 817 305 817 c 0x3e
 327 817 338.666666667 836 340 874 c 1
 407 874 l 1x3d
409 702 m 1x3c50
 407.689591522 602.408955692 338.48215347 517 240 517 c 0
 140.596989837 517 73.3176209264 601.860809591 72 702 c 1
 139 702 l 1
 140.181507947 639.380078802 181.662139627 592 241 592 c 0
 265.666666667 592 288.5 601.333333333 309.5 620 c 0
 330.5 638.666666667 341.333333333 666 342 702 c 1
 409 702 l 1x3c50
244 465 m 0
 341.347884935 465 409 387.413442053 409 290 c 2
 409 0 l 1
 328 0 l 1x7ca0
 328 32 l 1
 288 3.33333333333 235 -11 169 -11 c 0
 99.456382009 -11 54 46.4417768354 54 116 c 0
 54 215.552809855 205.79837361 247.313351761 325 251 c 1
 325 289 l 2xbca0
 325 345.461854249 296.677747665 398 244 398 c 0
 192 398 141.666666667 380.333333333 93 345 c 1
 86 420 l 1
 136.666666667 450 189.333333333 465 244 465 c 0
132 118 m 0
 132 77.833781253 176.42223574 57 219 57 c 0xbca0
 289.666666667 57 325 83 325 135 c 2
 325 192 l 1
 196.333333333 185.333333333 132 160.666666667 132 118 c 0
EndSplineSet
Validated: 1
EndChar

StartChar: Acaron
Encoding: 461 461 141
Width: 667
Flags: W
HStem: 0 21G<26 115.525 532.574 640> 202 64<207 441> 676 20G<279.5 386.5>
LayerCount: 2
Fore
SplineSet
364 729 m 1
 302 729 l 1
 170 870 l 1
 239 870 l 1
 333 776 l 1
 427 870 l 1
 496 870 l 1
 364 729 l 1
540 0 m 1
 465 202 l 1
 184 202 l 1
 108 0 l 1
 26 0 l 1
 287 696 l 1
 379 696 l 1
 640 0 l 1
 540 0 l 1
324 604 m 1
 317.333333333 577.333333333 299.333333333 522.666666667 270 440 c 0
 249.673838918 381.326161082 228.780492981 323.219507019 207 266 c 1
 441 266 l 1
 353 515 l 2
 339 555 329.333333333 584.666666667 324 604 c 1
EndSplineSet
Validated: 1
EndChar

StartChar: acaron
Encoding: 462 462 142
Width: 481
Flags: W
HStem: -11 68<152.022 289.255> 0 21G<328 409> 192 58<186.47 325> 397 67<146.203 294.859> 677 20G<81 163.462 316.538 399>
VStem: 54 78<77.4794 154.143> 325 84<0 32 80.0286 192 250 365.656>
LayerCount: 2
Fore
SplineSet
271 519 m 1x3e
 208 519 l 1
 81 697 l 1
 148 697 l 1
 240 578 l 1
 332 697 l 1
 399 697 l 1
 271 519 l 1x3e
244 464 m 0
 340.838339015 464 409 386.601300725 409 290 c 2
 409 0 l 1
 328 0 l 1x7e
 328 32 l 1
 288 3.33333333333 235 -11 169 -11 c 0xbe
 99.456382009 -11 54 46.4417768354 54 116 c 0
 54 165.333333333 89 201.666666667 159 225 c 0
 205.666666667 240.333333333 261 248.666666667 325 250 c 1
 325 289 l 2
 325 345.516675025 297.103179939 397 244 397 c 0
 192 397 141.666666667 379.666666667 93 345 c 1
 86 419 l 1
 136.666666667 449 189.333333333 464 244 464 c 0
132 118 m 0
 132 77.833781253 176.42223574 57 219 57 c 0xbe
 289.666666667 57 325 82.6666666667 325 134 c 2
 325 192 l 1
 196.333333333 184.666666667 132 160 132 118 c 0
EndSplineSet
Validated: 1
EndChar

StartChar: Acircumflex
Encoding: 194 194 143
Width: 667
Flags: W
HStem: 0 21G<26 115.525 532.574 640> 202 64<207 441> 676 20G<279.5 386.5>
LayerCount: 2
Fore
SplineSet
427 729 m 1
 333 824 l 1
 239 729 l 1
 170 729 l 1
 302 870 l 1
 364 870 l 1
 496 729 l 1
 427 729 l 1
540 0 m 1
 465 202 l 1
 184 202 l 1
 108 0 l 1
 26 0 l 1
 287 696 l 1
 379 696 l 1
 640 0 l 1
 540 0 l 1
324 604 m 1
 317.333333333 577.333333333 299.333333333 522.666666667 270 440 c 0
 249.673838918 381.326161082 228.780492981 323.219507019 207 266 c 1
 441 266 l 1
 353 515 l 2
 339 555 329.333333333 584.666666667 324 604 c 1
EndSplineSet
Validated: 1
Position2: "'cpsp' Capital Spacing lookup 0 subtable" dx=7 dy=0 dh=14 dv=0
EndChar

StartChar: acircumflex
Encoding: 226 226 144
Width: 481
Flags: W
HStem: -11 68<152.022 289.255> 0 21G<328 409> 192 58<186.47 325> 397 67<146.203 294.859> 677 20G<193.73 285.382>
VStem: 54 78<77.4794 154.143> 325 84<0 32 80.0286 192 250 365.656>
LayerCount: 2
Fore
SplineSet
332 519 m 1x3e
 240 638 l 1
 148 519 l 1
 81 519 l 1
 208 697 l 1
 271 697 l 1
 399 519 l 1
 332 519 l 1x3e
244 464 m 0
 340.838339015 464 409 386.601300725 409 290 c 2
 409 0 l 1
 328 0 l 1x7e
 328 32 l 1
 288 3.33333333333 235 -11 169 -11 c 0xbe
 99.456382009 -11 54 46.4417768354 54 116 c 0
 54 165.333333333 89 201.666666667 159 225 c 0
 205.666666667 240.333333333 261 248.666666667 325 250 c 1
 325 289 l 2
 325 345.516675025 297.103179939 397 244 397 c 0
 192 397 141.666666667 379.666666667 93 345 c 1
 86 419 l 1
 136.666666667 449 189.333333333 464 244 464 c 0
132 118 m 0
 132 77.833781253 176.42223574 57 219 57 c 0xbe
 289.666666667 57 325 82.6666666667 325 134 c 2
 325 192 l 1
 196.333333333 184.666666667 132 160 132 118 c 0
EndSplineSet
Validated: 1
Substitution2: "'smcp' Lowercase to Small Capitals in lookup 1 subtable" Acircumflex.sc
EndChar

StartChar: Acircumflexacute
Encoding: 7844 7844 145
Width: 667
Flags: W
HStem: 0 21G<26 115.525 532.574 640> 202 64<207 441> 677 20G<279.511 386.489>
LayerCount: 2
Fore
SplineSet
281 898 m 1
 179 898 l 1
 363 1027 l 1
 488 1027 l 1
 281 898 l 1
427 730 m 1
 333 825 l 1
 239 730 l 1
 170 730 l 1
 302 871 l 1
 364 871 l 1
 496 730 l 1
 427 730 l 1
540 0 m 1
 465 202 l 1
 184 202 l 1
 108 0 l 1
 26 0 l 1
 287 697 l 1
 379 697 l 1
 640 0 l 1
 540 0 l 1
324 605 m 1
 317.333333333 578.333333333 299.333333333 523.333333333 270 440 c 0
 249.423235808 381.576764192 228.475956526 323.524043474 207 266 c 1
 441 266 l 1
 353 516 l 2
 339 556 329.333333333 585.666666667 324 605 c 1
EndSplineSet
Validated: 1
Position2: "'cpsp' Capital Spacing lookup 0 subtable" dx=7 dy=0 dh=14 dv=0
EndChar

StartChar: acircumflexacute
Encoding: 7845 7845 146
Width: 481
Flags: W
HStem: -11 68<152.022 289.255> 0 21G<328 409> 192 58<186.47 325> 398 66<146.203 292.859> 641 20G<190.418 289.44>
VStem: 54 78<77.4794 154.363> 325 84<0 32 80.3276 192 250 364.673>
LayerCount: 2
Fore
SplineSet
188 687 m 1x3e
 88 687 l 1
 270 816 l 1
 393 816 l 1
 188 687 l 1x3e
333 520 m 1
 240 614 l 1
 147 520 l 1
 78 520 l 1
 209 661 l 1
 271 661 l 1
 401 520 l 1
 333 520 l 1
244 464 m 0
 341.349388532 464 409 387.441717094 409 290 c 2
 409 0 l 1
 328 0 l 1x7e
 328 32 l 1
 288 3.33333333333 235 -11 169 -11 c 0xbe
 99.456382009 -11 54 46.4417768354 54 116 c 0
 54 165.333333333 89 201.666666667 159 225 c 0
 205.666666667 240.333333333 261 248.666666667 325 250 c 1
 325 289 l 2
 325 345.461854249 296.677747665 398 244 398 c 0
 192 398 141.666666667 380.333333333 93 345 c 1
 86 420 l 1
 136.666666667 449.333333333 189.333333333 464 244 464 c 0
132 118 m 0
 132 77.833781253 176.42223574 57 219 57 c 0xbe
 289.666666667 57 325 83 325 135 c 2
 325 192 l 1
 196.333333333 185.333333333 132 160.666666667 132 118 c 0
EndSplineSet
Validated: 1
EndChar

StartChar: Acircumflexdotbelow
Encoding: 7852 7852 147
Width: 667
Flags: W
HStem: -200 96<285 380> -1 21G<26 115.525 532.574 640> 201 64<207 441> 675 20G<279.5 386.5>
VStem: 285 95<-200 -104>
LayerCount: 2
Fore
SplineSet
427 729 m 1
 333 824 l 1
 239 729 l 1
 170 729 l 1
 302 870 l 1
 364 870 l 1
 496 729 l 1
 427 729 l 1
540 -1 m 1
 465 201 l 1
 184 201 l 1
 108 -1 l 1
 26 -1 l 1
 287 695 l 1
 379 695 l 1
 640 -1 l 1
 540 -1 l 1
285 -200 m 1
 285 -104 l 1
 380 -104 l 1
 380 -200 l 1
 285 -200 l 1
324 604 m 1
 317.333333333 577.333333333 299.333333333 522.333333333 270 439 c 0
 249.423235808 380.576764192 228.475956526 322.524043474 207 265 c 1
 441 265 l 1
 353 514 l 2
 339 554 329.333333333 584 324 604 c 1
EndSplineSet
Validated: 1
Position2: "'cpsp' Capital Spacing lookup 0 subtable" dx=7 dy=0 dh=14 dv=0
EndChar

StartChar: acircumflexdotbelow
Encoding: 7853 7853 148
Width: 481
Flags: W
HStem: -200 96<192 287> -13 69<150.394 289.255> -2 21G<328 409> 190 59<186.47 325> 397 66<146.203 292.768> 677 20G<193.73 285.382>
VStem: 54 78<75.7755 152.285> 192 95<-200 -104> 325 84<-2 30 79.0286 190 249 363.673>
LayerCount: 2
Fore
SplineSet
332 519 m 1x9f80
 240 638 l 1
 148 519 l 1
 81 519 l 1
 208 697 l 1
 271 697 l 1
 399 519 l 1
 332 519 l 1x9f80
244 463 m 0
 340.838339015 463 409 385.601300725 409 289 c 2
 409 -2 l 1
 328 -2 l 1xbf80
 328 30 l 1
 288 1.33333333333 235 -13 169 -13 c 0xdf80
 99.456382009 -13 54 44.4417768354 54 114 c 0
 54 214.311308128 204.301245508 246.511365887 325 249 c 1
 325 288 l 2
 325 344.461854249 296.677747665 397 244 397 c 0
 192 397 141.666666667 379.333333333 93 344 c 1
 86 419 l 1
 136.666666667 448.333333333 189.333333333 463 244 463 c 0
192 -200 m 1
 192 -104 l 1
 287 -104 l 1
 287 -200 l 1
 192 -200 l 1
132 116 m 0
 132 76.2805932848 175.748023233 56 219 56 c 0xdf80
 289.666666667 56 325 81.6666666667 325 133 c 2
 325 190 l 1
 196.333333333 183.333333333 132 158.666666667 132 116 c 0
EndSplineSet
Validated: 1
EndChar

StartChar: Acircumflexgrave
Encoding: 7846 7846 149
Width: 667
Flags: W
HStem: 0 21G<26 115.525 532.574 640> 202 64<207 441> 677 20G<279.511 386.489>
LayerCount: 2
Fore
SplineSet
385 898 m 1
 178 1027 l 1
 303 1027 l 1
 487 898 l 1
 385 898 l 1
427 730 m 1
 333 825 l 1
 239 730 l 1
 170 730 l 1
 302 871 l 1
 364 871 l 1
 496 730 l 1
 427 730 l 1
540 0 m 1
 465 202 l 1
 184 202 l 1
 108 0 l 1
 26 0 l 1
 287 697 l 1
 379 697 l 1
 640 0 l 1
 540 0 l 1
324 605 m 1
 317.333333333 578.333333333 299.333333333 523.333333333 270 440 c 0
 249.423235808 381.576764192 228.475956526 323.524043474 207 266 c 1
 441 266 l 1
 353 516 l 2
 339 556 329.333333333 585.666666667 324 605 c 1
EndSplineSet
Validated: 1
Position2: "'cpsp' Capital Spacing lookup 0 subtable" dx=7 dy=0 dh=14 dv=0
EndChar

StartChar: acircumflexgrave
Encoding: 7847 7847 150
Width: 481
Flags: W
HStem: -11 68<152.022 289.255> 0 21G<328 409> 192 58<186.47 325> 398 66<146.203 292.859> 641 20G<190.418 289.44>
VStem: 54 78<77.4794 154.363> 325 84<0 32 80.3276 192 250 364.673>
LayerCount: 2
Fore
SplineSet
292 687 m 1x3e
 86 816 l 1
 210 816 l 1
 392 687 l 1
 292 687 l 1x3e
333 520 m 1
 240 614 l 1
 147 520 l 1
 78 520 l 1
 209 661 l 1
 271 661 l 1
 401 520 l 1
 333 520 l 1
244 464 m 0
 341.349388532 464 409 387.441717094 409 290 c 2
 409 0 l 1
 328 0 l 1x7e
 328 32 l 1
 288 3.33333333333 235 -11 169 -11 c 0xbe
 99.456382009 -11 54 46.4417768354 54 116 c 0
 54 165.333333333 89 201.666666667 159 225 c 0
 205.666666667 240.333333333 261 248.666666667 325 250 c 1
 325 289 l 2
 325 345.461854249 296.677747665 398 244 398 c 0
 192 398 141.666666667 380.333333333 93 345 c 1
 86 420 l 1
 136.666666667 449.333333333 189.333333333 464 244 464 c 0
132 118 m 0
 132 77.833781253 176.42223574 57 219 57 c 0xbe
 289.666666667 57 325 83 325 135 c 2
 325 192 l 1
 196.333333333 185.333333333 132 160.666666667 132 118 c 0
EndSplineSet
Validated: 1
EndChar

StartChar: Acircumflexhookabove
Encoding: 7848 7848 151
Width: 667
Flags: W
HStem: 0 21G<26 115.488 532.611 640> 203 63<207 441> 677 20G<279.511 386.489> 1053 47<367.321 468.677>
VStem: 404 36<882 935.514> 471 57<994.81 1048.77>
LayerCount: 2
Fore
SplineSet
528 1019 m 0
 528 987.888396202 510.34911134 971.009466804 487 957 c 0
 467.666666667 945 455 935.333333333 449 928 c 0
 443 920.666666667 440 912 440 902 c 2
 440 882 l 1
 436 879 l 1
 407 879 l 1
 404 882 l 1
 404 902 l 2
 404 947.333333333 422.333333333 980.333333333 459 1001 c 0
 467 1005.66666667 471 1011.66666667 471 1019 c 0
 471 1041.66666667 454.666666667 1053 422 1053 c 0
 390.666666667 1053 367 1038.66666667 351 1010 c 1
 344 1010 l 1
 329 1054 l 1
 353 1084.66666667 384 1100 422 1100 c 0
 492.666666667 1100 528 1073 528 1019 c 0
427 731 m 1
 333 825 l 1
 239 731 l 1
 170 731 l 1
 302 872 l 1
 364 872 l 1
 496 731 l 1
 427 731 l 1
540 0 m 1
 465 203 l 1
 184 203 l 1
 108 0 l 1
 26 0 l 1
 287 697 l 1
 379 697 l 1
 640 0 l 1
 540 0 l 1
324 605 m 1
 317.333333333 578.333333333 299.333333333 523.333333333 270 440 c 0
 249.423235808 381.576764192 228.475956526 323.524043474 207 266 c 1
 441 266 l 1
 353 516 l 2
 339 556 329.333333333 585.666666667 324 605 c 1
EndSplineSet
Validated: 1
Position2: "'cpsp' Capital Spacing lookup 0 subtable" dx=7 dy=0 dh=14 dv=0
EndChar

StartChar: acircumflexhookabove
Encoding: 7849 7849 152
Width: 481
Flags: W
HStem: -11 68<151.065 289.466> 0 21G<328 410> 192 59<186.47 325> 398 67<146.441 295.352> 641 20G<190.418 289.582> 668 21G<311 346> 842 47<273.918 374.677>
VStem: 54 78<77.5614 154.363> 311 35<671 723.25> 325 85<0 32 80.3276 192 251 366.203> 377 57<784.006 837.773>
LayerCount: 2
Fore
SplineSet
406 755 m 0x3fa0
 403.333333333 753 399 750 393 746 c 0
 372.333333333 732.666666667 359.333333333 722.5 354 715.5 c 0
 348.666666667 708.5 346 700.666666667 346 692 c 2
 346 671 l 1
 343 668 l 1
 314 668 l 1
 311 671 l 1
 311 692 l 2
 311 736.666666667 329 769.333333333 365 790 c 0
 373 794.666666667 377 800.666666667 377 808 c 0
 377 830.666666667 360.666666667 842 328 842 c 0
 297.333333333 842 274 827.666666667 258 799 c 1
 251 799 l 1
 236 843 l 1
 259.333333333 873.666666667 290 889 328 889 c 0
 398.666666667 889 434 862 434 808 c 0
 434 784.666666667 424.666666667 767 406 755 c 0x3fa0
333 520 m 1
 240 615 l 1
 147 520 l 1
 78 520 l 1
 209 661 l 1
 271 661 l 1
 402 520 l 1
 333 520 l 1
244 465 m 0
 341.32402298 465 410 387.415046709 410 290 c 2
 410 0 l 1
 328 0 l 1x7f40
 328 32 l 1
 288 3.33333333333 235.333333333 -11 170 -11 c 0
 100.479308686 -11 54 46.4394755558 54 116 c 0
 54 165.333333333 89 201.666666667 159 225 c 0
 205.666666667 241 261 249.666666667 325 251 c 1
 325 289 l 2xbf40
 325 346.78665622 298.743565043 398 244 398 c 0
 192 398 141.666666667 380.666666667 93 346 c 1
 86 420 l 1
 137.333333333 450 190 465 244 465 c 0
132 118 m 0
 132 78.2306354876 176.751302285 57 220 57 c 0xbf40
 290 57 325 83 325 135 c 2
 325 192 l 1
 196.333333333 185.333333333 132 160.666666667 132 118 c 0
EndSplineSet
Validated: 1
EndChar

StartChar: Acircumflextilde
Encoding: 7850 7850 153
Width: 667
Flags: W
HStem: 0 21G<26 115.525 532.574 640> 202 64<207 441> 677 20G<279.511 386.489> 918 68<346.591 426.718> 976 68<240.282 319.757>
VStem: 165 68<918 971.682> 434 68<990.318 1044>
LayerCount: 2
Fore
SplineSet
502 1044 m 1xee
 500.876316597 976.578995817 463.121683092 918 401 918 c 0xf6
 381.666666667 918 360 926.333333333 336 943 c 0
 305.333333333 965 282.666666667 976 268 976 c 0xee
 246 976 234.333333333 956.666666667 233 918 c 1
 165 918 l 1xf6
 166.123683403 985.421004183 203.878316908 1044 266 1044 c 0xee
 285.333333333 1044 307 1035.33333333 331 1018 c 0
 361.666666667 996.666666667 384.333333333 986 399 986 c 0xf6
 421 986 432.666666667 1005.33333333 434 1044 c 1
 502 1044 l 1xee
427 730 m 1
 333 825 l 1
 239 730 l 1
 170 730 l 1
 302 871 l 1
 364 871 l 1
 496 730 l 1
 427 730 l 1
540 0 m 1
 465 202 l 1
 184 202 l 1
 108 0 l 1
 26 0 l 1
 287 697 l 1
 379 697 l 1
 640 0 l 1
 540 0 l 1
324 605 m 1
 317.333333333 578.333333333 299.333333333 523.333333333 270 440 c 0
 249.423235808 381.576764192 228.475956526 323.524043474 207 266 c 1
 441 266 l 1
 353 516 l 2
 339 556 329.333333333 585.666666667 324 605 c 1
EndSplineSet
Validated: 1
Position2: "'cpsp' Capital Spacing lookup 0 subtable" dx=7 dy=0 dh=14 dv=0
EndChar

StartChar: acircumflextilde
Encoding: 7851 7851 154
Width: 481
Flags: W
HStem: -11 68<152.022 289.255> 0 21G<328 409> 192 58<186.47 325> 398 66<146.203 292.859> 641 20G<190.418 289.44> 707 69<253.208 332.681> 765 68<147.73 227.066>
VStem: 54 78<77.4794 154.363> 73 68<707 760.409> 325 84<0 32 80.3276 192 250 364.673> 340 67<779.341 833>
LayerCount: 2
Fore
SplineSet
407 833 m 1x3aa0
 405.877196362 765.631781691 369.061166565 707 307 707 c 0x3ca0
 288.333333333 707 266.666666667 715.666666667 242 733 c 0
 212 754.333333333 189.666666667 765 175 765 c 0x3aa0
 153.666666667 765 142.333333333 745.666666667 141 707 c 1
 73 707 l 1x3ca0
 75.2265325602 773.795976806 110.681235081 833 173 833 c 0x3aa0
 192.333333333 833 214 824.666666667 238 808 c 0
 268.666666667 786.666666667 291 776 305 776 c 0x3ca0
 327 776 338.666666667 795 340 833 c 1
 407 833 l 1x3aa0
333 520 m 1
 240 614 l 1
 147 520 l 1
 78 520 l 1
 209 661 l 1
 271 661 l 1
 401 520 l 1
 333 520 l 1
244 464 m 0
 341.349388532 464 409 387.441717094 409 290 c 2
 409 0 l 1
 328 0 l 1x7940
 328 32 l 1
 288 3.33333333333 235 -11 169 -11 c 0
 99.456382009 -11 54 46.4417768354 54 116 c 0
 54 165.333333333 89 201.666666667 159 225 c 0
 205.666666667 240.333333333 261 248.666666667 325 250 c 1
 325 289 l 2xb940
 325 345.461854249 296.677747665 398 244 398 c 0
 192 398 141.666666667 380.333333333 93 345 c 1
 86 420 l 1
 136.666666667 449.333333333 189.333333333 464 244 464 c 0
132 118 m 0
 132 77.833781253 176.42223574 57 219 57 c 0xb940
 289.666666667 57 325 83 325 135 c 2
 325 192 l 1
 196.333333333 185.333333333 132 160.666666667 132 118 c 0
EndSplineSet
Validated: 1
EndChar

StartChar: acute
Encoding: 180 180 155
Width: 500
Flags: W
HStem: 527 167
VStem: 176 220
LayerCount: 2
Fore
SplineSet
244 527 m 1
 176 527 l 1
 310 694 l 1
 396 694 l 1
 244 527 l 1
EndSplineSet
Validated: 1
EndChar

StartChar: uni0301
Encoding: 769 769 156
Width: 0
Flags: W
HStem: 527 167
VStem: -314 220
LayerCount: 2
Fore
SplineSet
-246 527 m 1
 -314 527 l 1
 -180 694 l 1
 -94 694 l 1
 -246 527 l 1
EndSplineSet
Validated: 1
EndChar

StartChar: Adblgrave
Encoding: 512 512 157
Width: 667
Flags: W
HStem: 0 21G<26 115.525 532.574 640> 202 64<207 441> 676 20G<279.5 386.5>
LayerCount: 2
Fore
SplineSet
384 740 m 1
 301 913 l 1
 387 913 l 1
 452 740 l 1
 384 740 l 1
219 740 m 1
 136 913 l 1
 222 913 l 1
 287 740 l 1
 219 740 l 1
540 0 m 1
 465 202 l 1
 184 202 l 1
 108 0 l 1
 26 0 l 1
 287 696 l 1
 379 696 l 1
 640 0 l 1
 540 0 l 1
324 605 m 1
 317.333333333 577.666666667 299.333333333 522.666666667 270 440 c 0
 249.423235808 381.576764192 228.475956526 323.524043474 207 266 c 1
 441 266 l 1
 353 515 l 2
 339 555 329.333333333 585 324 605 c 1
EndSplineSet
Validated: 1
Position2: "'cpsp' Capital Spacing lookup 0 subtable" dx=7 dy=0 dh=14 dv=0
EndChar

StartChar: adblgrave
Encoding: 513 513 158
Width: 481
Flags: W
HStem: -11 68<152.022 289.255> 0 21G<328 409> 191 59<186.47 325> 397 67<146.203 294.859> 674 20G<71 163.514 235 327.399>
VStem: 54 78<77.4794 153.099> 325 84<0 32 80.0286 191 250 365.656>
LayerCount: 2
Fore
SplineSet
317 521 m 1x3e
 235 694 l 1
 320 694 l 1
 384 521 l 1
 317 521 l 1x3e
153 521 m 1
 71 694 l 1
 156 694 l 1
 221 521 l 1
 153 521 l 1
244 464 m 0
 340.838339015 464 409 386.601300725 409 290 c 2
 409 0 l 1
 328 0 l 1x7e
 328 32 l 1
 288 3.33333333333 235 -11 169 -11 c 0xbe
 99.456382009 -11 54 46.4417768354 54 116 c 0
 54 165.333333333 89 201.666666667 159 225 c 0
 205.666666667 240.333333333 261 248.666666667 325 250 c 1
 325 289 l 2
 325 345.516675025 297.103179939 397 244 397 c 0
 192 397 141.666666667 379.666666667 93 345 c 1
 86 419 l 1
 136.666666667 449 189.333333333 464 244 464 c 0
132 118 m 0
 132 77.833781253 176.42223574 57 219 57 c 0xbe
 289.666666667 57 325 82.6666666667 325 134 c 2
 325 191 l 1
 196.333333333 184.333333333 132 160 132 118 c 0
EndSplineSet
Validated: 1
EndChar

StartChar: Adieresis
Encoding: 196 196 159
Width: 667
Flags: W
HStem: 0 21G<26 115.525 532.574 640> 202 63<207 441> 675 20G<279.489 386.511> 729 87<204 291 375 462>
VStem: 204 87<729 816> 375 87<729 816>
LayerCount: 2
Fore
SplineSet
375 729 m 1
 375 816 l 1
 462 816 l 1
 462 729 l 1
 375 729 l 1
204 729 m 1
 204 816 l 1
 291 816 l 1
 291 729 l 1
 204 729 l 1
540 0 m 1
 465 202 l 1
 184 202 l 1
 108 0 l 1
 26 0 l 1
 287 695 l 1
 379 695 l 1
 640 0 l 1
 540 0 l 1
324 604 m 1
 317.333333333 577.333333333 299.333333333 522.333333333 270 439 c 0
 249.423235808 380.576764192 228.475956526 322.524043474 207 265 c 1
 441 265 l 1
 353 515 l 2
 339 554.333333333 329.333333333 584 324 604 c 1
EndSplineSet
Validated: 1
Position2: "'cpsp' Capital Spacing lookup 0 subtable" dx=7 dy=0 dh=14 dv=0
EndChar

StartChar: adieresis
Encoding: 228 228 160
Width: 481
Flags: W
HStem: -11 68<152.163 289.255> 0 21G<328 409> 191 59<186.47 325> 397 66<146.203 292.859> 564 87<125 211 268 354>
VStem: 54 78<77.0706 153.605> 125 86<564 651> 268 86<564 651> 325 84<0 32 80.0286 191 250 363.673>
LayerCount: 2
Fore
SplineSet
268 564 m 1x39
 268 651 l 1
 354 651 l 1
 354 564 l 1
 268 564 l 1x39
125 564 m 1x3a
 125 651 l 1
 211 651 l 1
 211 564 l 1
 125 564 l 1x3a
244 463 m 0
 341.349388532 463 409 386.441717094 409 289 c 2
 409 0 l 1
 328 0 l 1x7c80
 328 32 l 1
 288 3.33333333333 235 -11 169 -11 c 0
 99.9532423248 -11 54 46.2418351446 54 115 c 0
 54 165 89 201.666666667 159 225 c 0
 205.666666667 240.333333333 261 248.666666667 325 250 c 1
 325 288 l 2xbc80
 325 344.461854249 296.677747665 397 244 397 c 0
 192 397 141.666666667 379.333333333 93 344 c 1
 86 419 l 1
 136.666666667 448.333333333 189.333333333 463 244 463 c 0
132 117 m 0
 132 77.7637575645 177.043154562 57 219 57 c 0xbc80
 289.666666667 57 325 82.6666666667 325 134 c 2
 325 191 l 1
 196.333333333 184.333333333 132 159.666666667 132 117 c 0
EndSplineSet
Validated: 1
Substitution2: "'smcp' Lowercase to Small Capitals in lookup 1 subtable" Adieresis.sc
EndChar

StartChar: Adotbelow
Encoding: 7840 7840 161
Width: 667
Flags: W
HStem: -200 96<285 380> -2 21G<26 115.525 532.574 640> 200 64<207 441> 674 20G<279.5 386.5>
VStem: 285 95<-200 -104>
LayerCount: 2
Fore
SplineSet
540 -2 m 1
 465 200 l 1
 184 200 l 1
 108 -2 l 1
 26 -2 l 1
 287 694 l 1
 379 694 l 1
 640 -2 l 1
 540 -2 l 1
285 -200 m 1
 285 -104 l 1
 380 -104 l 1
 380 -200 l 1
 285 -200 l 1
324 603 m 1
 317.333333333 576.333333333 299.333333333 521.333333333 270 438 c 0
 249.423235808 379.576764192 228.475956526 321.524043474 207 264 c 1
 441 264 l 1
 353 513 l 2
 339 553 329.333333333 583 324 603 c 1
EndSplineSet
Validated: 1
Position2: "'cpsp' Capital Spacing lookup 0 subtable" dx=7 dy=0 dh=14 dv=0
EndChar

StartChar: adotbelow
Encoding: 7841 7841 162
Width: 481
Flags: W
HStem: -200 96<192 287> -13 68<150.394 291.313> -2 21G<328 409> 189 59<186.47 325> 395 66<146.203 292.859>
VStem: 54 78<74.8163 151.565> 192 95<-200 -104> 325 84<-2 29 78.0286 189 248 361.673>
LayerCount: 2
Fore
SplineSet
244 461 m 0xdf
 341.349388532 461 409 384.441717094 409 287 c 2
 409 -2 l 1
 328 -2 l 1xbf
 328 29 l 1
 288 1 235 -13 169 -13 c 0
 99.4543193317 -13 54 43.4126849827 54 113 c 0
 54 163 89 199.333333333 159 222 c 0
 205.666666667 237.333333333 261 246 325 248 c 1
 325 286 l 2
 325 342.461854249 296.677747665 395 244 395 c 0
 192 395 141.666666667 377.333333333 93 342 c 1
 86 417 l 1
 136.666666667 446.333333333 189.333333333 461 244 461 c 0xdf
192 -200 m 1
 192 -104 l 1
 287 -104 l 1
 287 -200 l 1
 192 -200 l 1
132 115 m 0
 132 75.2805932848 175.748023233 55 219 55 c 0xdf
 289.666666667 55 325 80.6666666667 325 132 c 2
 325 189 l 1
 196.333333333 182.333333333 132 157.666666667 132 115 c 0
EndSplineSet
Validated: 1
EndChar

StartChar: AE
Encoding: 198 198 163
Width: 861
Flags: W
HStem: 0 77<510 818> 219 64<225 415> 326 68<510 777> 623 71<364 415 510 804>
VStem: 415 95<77 219 283 326 394 623>
LayerCount: 2
Fore
SplineSet
415 0 m 1
 415 219 l 1
 199 219 l 1
 109 0 l 1
 26 0 l 1
 310 694 l 1
 804 694 l 1
 804 622 l 1
 631 622 l 2
 623 622.666666667 617 623 613 623 c 2
 510 623 l 1
 510 394 l 1
 777 394 l 1
 777 326 l 1
 510 326 l 1
 510 77 l 1
 674 77 l 2
 678 77 684 77.3333333333 692 78 c 2
 818 78 l 1
 818 0 l 1
 415 0 l 1
415 623 m 1
 364 623 l 1
 225 283 l 1
 415 283 l 1
 415 623 l 1
EndSplineSet
Validated: 1
Position2: "'cpsp' Capital Spacing lookup 0 subtable" dx=7 dy=0 dh=14 dv=0
EndChar

StartChar: ae
Encoding: 230 230 164
Width: 722
Flags: W
HStem: -11 68<145.059 301.098 474.491 628.112> 215 62<410 626> 395 66<137.485 288.31 470.466 581.318>
VStem: 47 79<76.1621 153.934> 324 80<135.868 188>
LayerCount: 2
Fore
SplineSet
319 287 m 2
 319 344.110627071 290.276028287 395 237 395 c 0
 184.333333333 395 133 377.666666667 83 343 c 1
 76 417 l 1
 128 446.333333333 181.333333333 461 236 461 c 0
 296.666666667 461 343 436.666666667 375 388 c 1
 417 436.666666667 467 461 525 461 c 0
 580.333333333 461 620 442.333333333 644 405 c 0
 676.666666667 354.333333333 693 291 693 215 c 1
 404 215 l 1
 409.140490612 134.037272855 459.981623878 57 542 57 c 0
 591.333333333 57 637.666666667 76.6666666667 681 116 c 1
 688 42 l 1
 644 6.66666666667 595 -11 541 -11 c 0
 478.333333333 -11 424.666666667 13.3333333333 380 62 c 1
 358 30 319.333333333 9 264 -1 c 0
 223.333333333 -7.66666666667 190 -11 164 -11 c 0
 118 -11 86 6.33333333333 68 41 c 0
 54 67.6666666667 47 92.6666666667 47 116 c 0
 47 196 137.666666667 240.666666667 319 250 c 1
 319 287 l 2
582 373 m 0
 563.333333333 386.333333333 544.666666667 393 526 393 c 0
 465.45726272 393 423.01690582 331.434333431 410 277 c 1
 626 277 l 1
 619.333333333 324.333333333 604.666666667 356.333333333 582 373 c 0
126 117 m 0
 126 77.2805932848 169.748023233 57 213 57 c 0
 229.666666667 57 249.666666667 60 273 66 c 0
 307 74 324 95 324 129 c 0
 324 151 322.666666667 170.666666667 320 188 c 1
 287.333333333 187.333333333 250.666666667 183.333333333 210 176 c 0
 154 166 126 146.333333333 126 117 c 0
EndSplineSet
Validated: 1
Substitution2: "'smcp' Lowercase to Small Capitals in lookup 1 subtable" AE.sc
EndChar

StartChar: AEacute
Encoding: 508 508 165
Width: 861
Flags: W
HStem: 0 77<510 818> 220 63<225 415> 327 68<510 777> 624 72<364 415 510 804>
VStem: 415 95<77 220 283 327 395 624>
LayerCount: 2
Fore
SplineSet
426 739 m 1
 324 739 l 1
 509 868 l 1
 634 868 l 1
 426 739 l 1
415 0 m 1
 415 220 l 1
 199 220 l 1
 109 0 l 1
 26 0 l 1
 310 696 l 1
 804 696 l 1
 804 623 l 1
 649 623 l 2
 645 623 639 623.333333333 631 624 c 2
 510 624 l 1
 510 395 l 1
 777 395 l 1
 777 327 l 1
 510 327 l 1
 510 77 l 1
 674 77 l 2
 678 77 684 77.3333333333 692 78 c 2
 818 78 l 1
 818 0 l 1
 415 0 l 1
415 624 m 1
 364 624 l 1
 225 283 l 1
 415 283 l 1
 415 624 l 1
EndSplineSet
Validated: 1
Position2: "'cpsp' Capital Spacing lookup 0 subtable" dx=7 dy=0 dh=14 dv=0
EndChar

StartChar: aeacute
Encoding: 509 509 166
Width: 722
Flags: W
HStem: -11 68<145.835 300.569 474.508 627.041> 216 63<410 626> 397 67<137.485 288.31 470.385 581.318> 674 20G<405.162 509>
VStem: 47 79<76.7736 154.949> 324 80<136.142 189>
LayerCount: 2
Fore
SplineSet
354 521 m 1
 284 521 l 1
 421 694 l 1
 509 694 l 1
 354 521 l 1
319 289 m 2
 319 346.110627071 290.276028287 397 237 397 c 0
 184.333333333 397 133 379.666666667 83 345 c 1
 76 419 l 1
 128 449 181.333333333 464 236 464 c 0
 296.666666667 464 343 439.333333333 375 390 c 1
 417 439.333333333 467 464 525 464 c 0
 580.333333333 464 620 445 644 407 c 0
 676.666666667 355.666666667 693 292 693 216 c 1
 404 216 l 1
 409.205344742 134.01582031 460.030133613 57 542 57 c 0
 591.333333333 57 637.666666667 77 681 117 c 1
 688 43 l 1
 644 7 595 -11 541 -11 c 0
 478.333333333 -11 424.666666667 13.6666666667 380 63 c 1
 358 30.3333333333 319.333333333 9 264 -1 c 0
 223.333333333 -7.66666666667 190 -11 164 -11 c 0
 118 -11 86 6.66666666667 68 42 c 0
 54 68 47 93 47 117 c 0
 47 197 137.666666667 242 319 252 c 1
 319 289 l 2
582 375 m 0
 563.333333333 388.333333333 544.666666667 395 526 395 c 0
 464.966923667 395 423.254414673 334.42755227 410 279 c 1
 626 279 l 1
 619.333333333 326.333333333 604.666666667 358.333333333 582 375 c 0
126 118 m 0
 126 78.5820667155 170.42223574 57 213 57 c 0
 229.666666667 57 249.666666667 60 273 66 c 0
 307 74.6666666667 324 95.6666666667 324 129 c 0
 324 151.666666667 322.666666667 171.666666667 320 189 c 1
 287.333333333 188.333333333 250.666666667 184.333333333 210 177 c 0
 154 167 126 147.333333333 126 118 c 0
EndSplineSet
Validated: 1
EndChar

StartChar: Agrave
Encoding: 192 192 167
Width: 667
Flags: W
HStem: 0 21G<26 115.525 532.574 640> 202 64<207 441> 676 20G<279.5 386.5>
LayerCount: 2
Fore
SplineSet
338 739 m 1
 131 868 l 1
 255 868 l 1
 439 739 l 1
 338 739 l 1
540 0 m 1
 465 202 l 1
 184 202 l 1
 108 0 l 1
 26 0 l 1
 287 696 l 1
 379 696 l 1
 640 0 l 1
 540 0 l 1
324 604 m 1
 317.333333333 577.333333333 299.333333333 522.666666667 270 440 c 0
 249.673838918 381.326161082 228.780492981 323.219507019 207 266 c 1
 441 266 l 1
 353 515 l 2
 339 555 329.333333333 584.666666667 324 604 c 1
EndSplineSet
Validated: 1
Position2: "'cpsp' Capital Spacing lookup 0 subtable" dx=7 dy=0 dh=14 dv=0
EndChar

StartChar: agrave
Encoding: 224 224 168
Width: 481
Flags: W
HStem: -11 68<152.022 289.255> 0 21G<328 409> 191 59<186.47 325> 397 67<146.203 294.859> 674 20G<93 195.723>
VStem: 54 78<77.4794 153.099> 325 84<0 32 80.0286 191 250 365.656>
LayerCount: 2
Fore
SplineSet
247 521 m 1x3e
 93 694 l 1
 180 694 l 1
 316 521 l 1
 247 521 l 1x3e
244 464 m 0
 340.838339015 464 409 386.601300725 409 290 c 2
 409 0 l 1
 328 0 l 1x7e
 328 32 l 1
 288 3.33333333333 235 -11 169 -11 c 0xbe
 99.456382009 -11 54 46.4417768354 54 116 c 0
 54 165.333333333 89 201.666666667 159 225 c 0
 205.666666667 240.333333333 261 248.666666667 325 250 c 1
 325 289 l 2
 325 345.516675025 297.103179939 397 244 397 c 0
 192 397 141.666666667 379.666666667 93 345 c 1
 86 419 l 1
 136.666666667 449 189.333333333 464 244 464 c 0
132 118 m 0
 132 77.833781253 176.42223574 57 219 57 c 0xbe
 289.666666667 57 325 82.6666666667 325 134 c 2
 325 191 l 1
 196.333333333 184.333333333 132 160 132 118 c 0
EndSplineSet
Validated: 1
Substitution2: "'smcp' Lowercase to Small Capitals in lookup 1 subtable" Agrave.sc
EndChar

StartChar: Ahookabove
Encoding: 7842 7842 169
Width: 667
Flags: W
HStem: 0 21G<26 115.525 532.574 640> 202 64<207 441> 676 20G<279.5 386.5> 904 47<271.321 372.895>
VStem: 308 36<733 787.054> 375 58<845.842 899.773>
LayerCount: 2
Fore
SplineSet
433 870 m 0
 433 838.941767103 414.63852781 822.183116686 391 808 c 0
 371.666666667 796 359 786.333333333 353 779 c 0
 347 771.666666667 344 763.333333333 344 754 c 2
 344 733 l 1
 341 730 l 1
 312 730 l 1
 308 733 l 1
 308 754 l 2
 308 798.666666667 326.666666667 831.333333333 364 852 c 0
 371.333333333 856.666666667 375 862.666666667 375 870 c 0
 375 892.666666667 358.666666667 904 326 904 c 0
 294.666666667 904 271 889.666666667 255 861 c 1
 248 861 l 1
 233 905 l 1
 257 935.666666667 288 951 326 951 c 0
 397.333333333 951 433 924 433 870 c 0
540 0 m 1
 465 202 l 1
 184 202 l 1
 108 0 l 1
 26 0 l 1
 287 696 l 1
 379 696 l 1
 640 0 l 1
 540 0 l 1
324 605 m 1
 317.333333333 578.333333333 299.333333333 523.333333333 270 440 c 0
 249.423235808 381.576764192 228.475956526 323.524043474 207 266 c 1
 441 266 l 1
 353 515 l 2
 339 555 329.333333333 585 324 605 c 1
EndSplineSet
Validated: 1
Position2: "'cpsp' Capital Spacing lookup 0 subtable" dx=7 dy=0 dh=14 dv=0
EndChar

StartChar: ahookabove
Encoding: 7843 7843 170
Width: 481
Flags: W
HStem: -11 68<152.022 289.255> 0 21G<328 409> 192 58<186.47 325> 398 66<146.203 292.768> 672 46<178.709 279.515>
VStem: 54 78<77.4794 154.143> 215 36<501 552.687> 282 57<614.181 667.214> 325 84<0 32 80.0286 192 250 364.673>
LayerCount: 2
Fore
SplineSet
310 584 m 0x3f
 308 582.666666667 304 579.666666667 298 575 c 0
 266.666666667 555.666666667 251 537.666666667 251 521 c 2
 251 501 l 1
 247 497 l 1
 219 497 l 1
 215 501 l 1
 215 521 l 2
 215 566.333333333 233.333333333 599.333333333 270 620 c 0
 278 624 282 629.666666667 282 637 c 0
 282 660.333333333 265.666666667 672 233 672 c 0
 201.666666667 672 178.333333333 657.333333333 163 628 c 1
 156 628 l 1
 141 672 l 1
 164.333333333 702.666666667 195 718 233 718 c 0
 303.666666667 718 339 691 339 637 c 0
 339 614.333333333 329.333333333 596.666666667 310 584 c 0x3f
244 464 m 0
 340.838339015 464 409 386.601300725 409 290 c 2
 409 0 l 1
 328 0 l 1x7e80
 328 32 l 1
 288 3.33333333333 235 -11 169 -11 c 0
 99.456382009 -11 54 46.4417768354 54 116 c 0
 54 165.333333333 89 201.666666667 159 225 c 0
 205.666666667 240.333333333 261 248.666666667 325 250 c 1
 325 289 l 2xbe80
 325 345.461854249 296.677747665 398 244 398 c 0
 192 398 141.666666667 380.333333333 93 345 c 1
 86 419 l 1
 136.666666667 449 189.333333333 464 244 464 c 0
132 118 m 0
 132 77.833781253 176.42223574 57 219 57 c 0xbe80
 289.666666667 57 325 82.6666666667 325 134 c 2
 325 192 l 1
 196.333333333 184.666666667 132 160 132 118 c 0
EndSplineSet
Validated: 1
EndChar

StartChar: Amacron
Encoding: 256 256 171
Width: 667
Flags: W
HStem: 0 21G<26 115.525 532.574 640> 202 63<207 441> 675 20G<279.489 386.511> 749 71<151 516>
LayerCount: 2
Fore
SplineSet
151 749 m 1
 151 820 l 1
 516 820 l 1
 516 749 l 1
 151 749 l 1
540 0 m 1
 465 202 l 1
 184 202 l 1
 108 0 l 1
 26 0 l 1
 287 695 l 1
 379 695 l 1
 640 0 l 1
 540 0 l 1
324 604 m 1
 317.333333333 577.333333333 299.333333333 522.333333333 270 439 c 0
 249.423235808 380.576764192 228.475956526 322.524043474 207 265 c 1
 441 265 l 1
 353 515 l 2
 339 555 329.333333333 584.666666667 324 604 c 1
EndSplineSet
Validated: 1
Position2: "'cpsp' Capital Spacing lookup 0 subtable" dx=7 dy=0 dh=14 dv=0
EndChar

StartChar: amacron
Encoding: 257 257 172
Width: 481
Flags: W
HStem: -11 68<152.257 289.255> 0 21G<328 409> 191 59<186.47 325> 397 66<146.441 292.859> 572 71<60 421>
VStem: 54 78<77.3463 153.605> 325 84<0 32 80.0286 191 250 363.673>
LayerCount: 2
Fore
SplineSet
60 572 m 1x3e
 60 643 l 1
 421 643 l 1
 421 572 l 1
 60 572 l 1x3e
244 463 m 0
 341.349388532 463 409 386.441717094 409 289 c 2
 409 0 l 1
 328 0 l 1x7e
 328 32 l 1
 288 3.33333333333 235 -11 169 -11 c 0xbe
 100.83782046 -11 54 46.8003313055 54 115 c 0
 54 165 89 201.666666667 159 225 c 0
 205.666666667 240.333333333 261 248.666666667 325 250 c 1
 325 288 l 2
 325 344.461854249 296.677747665 397 244 397 c 0
 192 397 141.666666667 379.333333333 93 344 c 1
 86 419 l 1
 137.333333333 448.333333333 190 463 244 463 c 0
132 117 m 0
 132 78.5923923356 177.08736793 57 219 57 c 0xbe
 289.666666667 57 325 82.6666666667 325 134 c 2
 325 191 l 1
 196.333333333 184.333333333 132 159.666666667 132 117 c 0
EndSplineSet
Validated: 1
EndChar

StartChar: anglearc
Encoding: 8738 8738 173
Width: 778
Flags: W
HStem: 455 46<706 720.941>
VStem: 551 47<111.116 388.884>
LayerCount: 2
Fore
SplineSet
689 0 m 2
 558 48 l 1
 538.666666667 3.33333333333 514.333333333 -37.3333333333 485 -74 c 0
 479.666666667 -80 473.333333333 -83 466 -83 c 0
 450 -83 442 -75 442 -59 c 0
 442 -54.3333333333 443.666666667 -49.6666666667 447 -45 c 0
 474.333333333 -11.6666666667 496.333333333 25 513 65 c 1
 71 228 l 2
 61 231.333333333 56 238.666666667 56 250 c 256
 56 261.333333333 61 268.666666667 71 272 c 2
 513 435 l 1
 496.333333333 475 474.333333333 511.666666667 447 545 c 0
 443.666666667 549.666666667 442 554.333333333 442 559 c 0
 442 575 450 583 466 583 c 0
 473.333333333 583 479.666666667 580 485 574 c 0
 514.333333333 537.333333333 538.666666667 496.666666667 558 452 c 1
 689 500 l 2
 691.666666667 500.666666667 694.666666667 501 698 501 c 0
 713.333333333 501 721 493 721 477 c 0
 721 465.666666667 716 458.333333333 706 455 c 2
 574 407 l 1
 590 355 598 302.666666667 598 250 c 256
 598 197.333333333 590 145 574 93 c 1
 706 45 l 2
 716 41.6666666667 721 34.3333333333 721 23 c 0
 721 7.17249357978 706.224607878 -5.74153595944 689 0 c 2
530 390 m 1
 148 250 l 1
 530 110 l 1
 544 156 551 202.666666667 551 250 c 256
 551 297.333333333 544 344 530 390 c 1
EndSplineSet
Validated: 33
EndChar

StartChar: angleleft
Encoding: 9001 9001 174
Width: 389
Flags: W
VStem: 110 49<195.884 262> 280 53<-247.021 -204 663.532 748.308>
LayerCount: 2
Fore
SplineSet
162 262 m 2
 162 259.650167355 159 253.34821273 159 251 c 0
 159 249 161.666666667 241.333333333 167 228 c 0
 217.23398364 90.9006503068 268.389196344 -45.2774703227 319 -182 c 0
 328.333333333 -206.666666667 333 -221 333 -225 c 0
 333 -241 325.333333333 -249 310 -249 c 0
 295.415256074 -249 285.970099984 -231.910299952 280 -214 c 2
 277 -204 l 2
 275.666666667 -200 274.666666667 -197.333333333 274 -196 c 2
 119 223 l 2
 113 239 110 248.333333333 110 251 c 0
 110 254.897885304 120 279.877933449 120 282 c 0
 170.910387876 423.422945457 224.108555618 562.558111048 276 703 c 0
 289.205674853 737.956198139 294.725865448 748.454310908 310 751 c 1
 324.666666667 751 332 742.666666667 332 726 c 0
 332 720.666666667 326.666666667 703.666666667 316 675 c 2
 298 625 l 2
 293.333333333 614.333333333 288 600.333333333 282 583 c 2
 162 262 l 2
EndSplineSet
Validated: 1
EndChar

StartChar: angleright
Encoding: 9002 9002 175
Width: 389
Flags: W
VStem: 55 57<-244.047 -203 667.266 746.693> 226 52<240 307.188>
LayerCount: 2
Fore
SplineSet
278 251 m 0
 278 247.102114696 268 222.122066551 268 220 c 2
 112 -203 l 2
 100.666666667 -233.666666667 90 -249 80 -249 c 2
 78 -249 l 2
 62.6666666667 -249 55 -241 55 -225 c 0
 55 -222.333333333 56.6666666667 -216.333333333 60 -207 c 2
 226 240 l 2
 226 242.349832645 229 248.65178727 229 251 c 0
 227.666666667 255 224.666666667 263.333333333 220 276 c 0
 185.333333333 373.333333333 131.666666667 518.333333333 59 711 c 0
 56.3333333333 717.666666667 55 722.333333333 55 725 c 2
 55 727 l 2
 55 741.672719373 63.8019988823 748.466999814 79 751 c 1
 91 751 101.333333333 737.666666667 110 711 c 0
 112 705 113.333333333 701.333333333 114 700 c 2
 268 281 l 2
 274.666666667 263 278 253 278 251 c 0
EndSplineSet
Validated: 1
EndChar

StartChar: Aogonek
Encoding: 260 260 176
Width: 667
Flags: W
HStem: -212 77<528.63 639.66> -2 21G<26 115.525> 200 64<207 441> 674 20G<279.5 386.5>
VStem: 453 71<-127.766 -52.7559>
LayerCount: 2
Fore
SplineSet
453 -120 m 0
 453 -61.163393961 497.149910382 -19.6077428613 539 4 c 1
 466 200 l 1
 184 200 l 1
 108 -2 l 1
 26 -2 l 1
 287 694 l 1
 379 694 l 1
 640 -2 l 1
 607 -2 l 1
 551 -34 523.333333333 -67 524 -101 c 0
 524 -121.666666667 540 -133 572 -135 c 0
 589.333333333 -135.666666667 612.333333333 -130.333333333 641 -119 c 1
 657 -185 l 1
 619.666666667 -203 585.666666667 -212 555 -212 c 0
 496.033612685 -212 453 -176.19260209 453 -120 c 0
325 603 m 1
 317.666666667 576.333333333 299.333333333 521.333333333 270 438 c 0
 249.423235808 379.576764192 228.475956526 321.524043474 207 264 c 1
 441 264 l 1
 353 513 l 2
 339 553 329.666666667 583 325 603 c 1
EndSplineSet
Validated: 33
Position2: "'cpsp' Capital Spacing lookup 0 subtable" dx=7 dy=0 dh=14 dv=0
EndChar

StartChar: aogonek
Encoding: 261 261 177
Width: 481
Flags: W
HStem: -13 68<150.958 291.713> 189 58<186.47 325> 395 66<146.441 295.164>
VStem: 54 78<74.9109 151.565> 243 70<-127.769 -53.2712> 325 85<-2 29 78.0286 189 247 363.023>
LayerCount: 2
Fore
SplineSet
244 461 m 0
 341.325528594 461 410 384.443320199 410 287 c 2
 410 -2 l 1
 396 -2 l 1
 340 -34.6666666667 312.333333333 -67.6666666667 313 -101 c 0
 313 -121.666666667 329 -133 361 -135 c 0
 378.333333333 -136.333333333 401 -131.333333333 429 -120 c 1
 445 -186 l 1
 407.666666667 -203.333333333 374 -212 344 -212 c 0
 284.974115277 -212 243 -176.216338946 243 -120 c 0
 243 -62.5365229044 287.516691368 -19.4377049972 328 4 c 1
 328 29 l 1
 288.666666667 1 236 -13 170 -13 c 0
 100.477241625 -13 54 43.4103863839 54 113 c 0
 54 163 89 199.333333333 159 222 c 0
 205.666666667 237.333333333 261 245.666666667 325 247 c 1
 325 286 l 2
 325 343.696611499 297.87556934 395 244 395 c 0
 192 395 141.666666667 377.333333333 93 342 c 1
 86 417 l 1
 137.333333333 446.333333333 190 461 244 461 c 0
132 115 m 0
 132 75.7383089473 176.027206095 55 220 55 c 0
 290 55 325 80.6666666667 325 132 c 2
 325 189 l 1
 196.333333333 182.333333333 132 157.666666667 132 115 c 0
EndSplineSet
Validated: 33
Substitution2: "'smcp' Lowercase to Small Capitals in lookup 1 subtable" Aogonek.sc
EndChar

StartChar: Aring
Encoding: 197 197 178
Width: 667
Flags: W
HStem: 0 21G<26 115.525 532.574 640> 202 64<207 441> 688 8<287 379> 808 54<289.557 375.63>
VStem: 219 69<745.354 804.873> 378 69<743.661 804.504>
LayerCount: 2
Fore
SplineSet
447 774 m 0
 447 721.753976628 389.187598606 688 333 688 c 0
 276.039283078 688 219 721.477672339 219 776 c 0
 219 827.078568169 278.058486848 862 333 862 c 0
 389.960716922 862 447 827.786664224 447 774 c 0
540 0 m 1
 465 202 l 1
 184 202 l 1
 108 0 l 1
 26 0 l 1
 287 696 l 1
 379 696 l 1
 640 0 l 1
 540 0 l 1
333 742 m 0
 368.846965285 742 378 742.802575898 378 775 c 0
 378 797 363 808 333 808 c 256
 303 808 288 797 288 775 c 256
 288 753 303 742 333 742 c 0
324 604 m 1
 317.333333333 577.333333333 299.333333333 522.666666667 270 440 c 0
 249.673838918 381.326161082 228.780492981 323.219507019 207 266 c 1
 441 266 l 1
 353 515 l 2
 339 555 329.333333333 584.666666667 324 604 c 1
EndSplineSet
Validated: 5
Position2: "'cpsp' Capital Spacing lookup 0 subtable" dx=7 dy=0 dh=14 dv=0
EndChar

StartChar: aring
Encoding: 229 229 179
Width: 481
Flags: W
HStem: -11 68<152.022 289.255> 0 21G<328 409> 191 59<186.47 325> 397 67<146.203 294.859> 511 54<197.435 283.616> 631 54<196.632 282.477>
VStem: 54 78<77.4794 153.099> 127 68<568.411 626.922> 285 67<565.875 627.499> 325 84<0 32 80.0286 191 250 365.656>
LayerCount: 2
Fore
SplineSet
352 597 m 0x3d80
 352 545.948540839 294.252064833 511 240 511 c 0
 182.978359072 511 127 544.771865113 127 599 c 0
 127 650.514872305 185.002573466 685 240 685 c 0
 296.974104559 685 352 650.759513585 352 597 c 0x3d80
244 464 m 0
 340.838339015 464 409 386.601300725 409 290 c 2
 409 0 l 1
 328 0 l 1x7e40
 328 32 l 1
 288 3.33333333333 235 -11 169 -11 c 0
 99.456382009 -11 54 46.4417768354 54 116 c 0
 54 165.333333333 89 201.666666667 159 225 c 0
 205.666666667 240.333333333 261 248.666666667 325 250 c 1
 325 289 l 2xbe40
 325 345.516675025 297.103179939 397 244 397 c 0
 192 397 141.666666667 379.666666667 93 345 c 1
 86 419 l 1
 136.666666667 449 189.333333333 464 244 464 c 0
240 565 m 0
 275.846965285 565 285 565.802575898 285 598 c 0
 285 620 270 631 240 631 c 256
 210 631 195 620 195 598 c 256x3d80
 195 576 210 565 240 565 c 0
132 118 m 0xbe40
 132 77.833781253 176.42223574 57 219 57 c 0
 289.666666667 57 325 82.6666666667 325 134 c 2
 325 191 l 1
 196.333333333 184.333333333 132 160 132 118 c 0xbe40
EndSplineSet
Validated: 1
Substitution2: "'smcp' Lowercase to Small Capitals in lookup 1 subtable" Aring.sc
EndChar

StartChar: Aringacute
Encoding: 506 506 180
Width: 667
Flags: W
HStem: 0 21G<26 115.525 532.574 640> 202 64<207 441> 689 8<287 379> 809 54<289.557 375.63>
VStem: 219 69<746.496 804.978> 378 69<744.661 805.504>
LayerCount: 2
Fore
SplineSet
281 890 m 1
 179 890 l 1
 363 1019 l 1
 488 1019 l 1
 281 890 l 1
447 775 m 0
 447 722.753976628 389.187598606 689 333 689 c 0
 276.039283078 689 219 723.213335776 219 777 c 0
 219 828.820832626 278.058486848 863 333 863 c 0
 389.960716922 863 447 828.786664224 447 775 c 0
540 0 m 1
 465 202 l 1
 184 202 l 1
 108 0 l 1
 26 0 l 1
 287 697 l 1
 379 697 l 1
 640 0 l 1
 540 0 l 1
333 743 m 0
 368.846965285 743 378 743.802575898 378 776 c 0
 378 798 363 809 333 809 c 256
 303 809 288 798 288 776 c 256
 288 754 303 743 333 743 c 0
324 605 m 1
 317.333333333 578.333333333 299.333333333 523.333333333 270 440 c 0
 249.423235808 381.576764192 228.475956526 323.524043474 207 266 c 1
 441 266 l 1
 353 516 l 2
 339 556 329.333333333 585.666666667 324 605 c 1
EndSplineSet
Validated: 5
Position2: "'cpsp' Capital Spacing lookup 0 subtable" dx=7 dy=0 dh=14 dv=0
EndChar

StartChar: aringacute
Encoding: 507 507 181
Width: 481
Flags: W
HStem: -11 68<152.022 289.255> 0 21G<328 409> 192 58<186.47 325> 398 67<146.203 292.858> 512 55<197.309 283.668> 632 54<197.6 282.477> 713 21G<88 219.783>
VStem: 54 78<77.4794 154.363> 127 68<570.933 628.137> 285 67<568.444 628.499> 325 84<0 32 80.3276 192 250 364.673>
LayerCount: 2
Fore
SplineSet
188 713 m 1x3e
 88 713 l 1
 270 842 l 1
 393 842 l 1
 188 713 l 1x3e
352 598 m 0x3ec0
 352 546.948540839 294.252064833 512 240 512 c 0
 182.978359072 512 127 545.771865113 127 600 c 0
 127 652.674977474 183.763384909 686 240 686 c 0
 296.974104559 686 352 651.759513585 352 598 c 0x3ec0
244 465 m 0
 341.347884935 465 409 387.413442053 409 290 c 2
 409 0 l 1
 328 0 l 1x7f20
 328 32 l 1
 288 3.33333333333 235 -11 169 -11 c 0
 99.456382009 -11 54 46.4417768354 54 116 c 0
 54 165.333333333 89 201.666666667 159 225 c 0
 205.666666667 240.333333333 261 248.666666667 325 250 c 1
 325 289 l 2xbf20
 325 345.461854249 296.677747665 398 244 398 c 0
 192 398 141.666666667 380.333333333 93 345 c 1
 86 420 l 1
 136.666666667 450 189.333333333 465 244 465 c 0
240 567 m 0
 275.226580283 567 285 567.790591678 285 599 c 0
 285 621 270 632 240 632 c 256
 210 632 195 621 195 599 c 0x3ec0
 195 577.666666667 210 567 240 567 c 0
132 118 m 0xbf20
 132 77.833781253 176.42223574 57 219 57 c 0
 289.666666667 57 325 83 325 135 c 2
 325 192 l 1
 196.333333333 185.333333333 132 160.666666667 132 118 c 0xbf20
EndSplineSet
Validated: 1
EndChar

StartChar: uni2193
Encoding: 8595 8595 182
Width: 500
Flags: W
HStem: 35 48<28 85.9843 414.027 472> 674 20G<242 258>
VStem: 226 48<-47 693.947>
LayerCount: 2
Fore
SplineSet
472 35 m 1
 352.33537234 5.4357978722 274.009187606 -80.844930349 250 -211 c 1
 225.983695788 -80.8063508534 147.698996062 5.42730685517 28 35 c 1
 28 83 l 1
 112 63.6666666667 178 20.3333333333 226 -47 c 1
 226 670 l 2
 226 686 234 694 250 694 c 256
 266 694 274 686 274 670 c 2
 274 -47 l 1
 322 20.3333333333 388 63.6666666667 472 83 c 1
 472 35 l 1
EndSplineSet
Validated: 1
EndChar

StartChar: uni2190
Encoding: 8592 8592 183
Width: 1000
Flags: W
HStem: -9 21G<243.333 303> 227 48<173 943.932>
VStem: 256 47<-9 62.1001 440.51 511>
LayerCount: 2
Fore
SplineSet
913 227 m 2
 173 227 l 1
 245.666666667 161.666666667 289 83 303 -9 c 1
 256 -9 l 1
 230.666666667 115.666666667 164 201 56 247 c 1
 56 255 l 1
 162 299.666666667 228.666666667 385 256 511 c 1
 303 511 l 1
 289 419 245.666666667 340.333333333 173 275 c 1
 913 275 l 2
 933.666666667 275 944 267 944 251 c 256
 944 235 933.666666667 227 913 227 c 2
EndSplineSet
Validated: 1
EndChar

StartChar: uni2192
Encoding: 8594 8594 184
Width: 1000
Flags: W
HStem: -9 21G<696 756.667> 227 48<55.0681 826>
VStem: 696 47<-9 61.4902 439.9 511>
LayerCount: 2
Fore
SplineSet
743 -9 m 1
 696 -9 l 1
 710 83 753.333333333 161.666666667 826 227 c 1
 86 227 l 2
 65.3333333333 227 55 235 55 251 c 256
 55 267 65.3333333333 275 86 275 c 2
 826 275 l 1
 753.333333333 340.333333333 710 419 696 511 c 1
 743 511 l 1
 768.333333333 386.333333333 835 301 943 255 c 1
 943 247 l 1
 837 202.333333333 770.333333333 117 743 -9 c 1
EndSplineSet
Validated: 1
EndChar

StartChar: uni2191
Encoding: 8593 8593 185
Width: 500
Flags: W
HStem: 417 48<28 85.9726 414.016 472> 691 20G<237.995 262.008>
VStem: 226 48<-194.945 547>
LayerCount: 2
Fore
SplineSet
250 711 m 1
 274.016304212 580.806350853 352.301003938 494.572693145 472 465 c 1
 472 417 l 1
 388 436.333333333 322 479.666666667 274 547 c 1
 274 -170 l 2
 274 -186.666666667 266 -195 250 -195 c 256
 234 -195 226 -186.666666667 226 -170 c 2
 226 547 l 1
 178 479.666666667 112 436.333333333 28 417 c 1
 28 465 l 1
 147.66462766 494.564202128 225.990812394 580.844930349 250 711 c 1
EndSplineSet
Validated: 1
EndChar

StartChar: asterisk.math
Encoding: 8727 8727 186
Width: 500
Flags: W
HStem: 121 87<74.027 143.081 355.919 424.576> 294 87<74.4242 143.081 355.919 424.973>
VStem: 212 75<31.625 195.916 306.043 470.375>
LayerCount: 2
Fore
SplineSet
397 381 m 0
 418.177019338 381 435 361.098037138 435 340 c 0
 435 311.793103791 409.524451061 306.322331508 386 294 c 0
 346.666666667 271.333333333 320.333333333 257 307 251 c 1
 320.333333333 245 346.666666667 230.666666667 386 208 c 0
 393.333333333 204.666666667 403.333333333 199.5 416 192.5 c 0
 428.666666667 185.5 435 175.333333333 435 162 c 0
 435 140.90113766 418.176469203 121 397 121 c 0
 389 121 374.666666667 128.666666667 354 144 c 0
 338 156 313 173.666666667 279 197 c 1
 280.113175279 174.736494421 287 96.5567577667 287 70 c 0
 287 42.6666666667 274.666666667 29 250 29 c 0
 224.666666667 29 212 43 212 71 c 0
 212 96.9316461943 218.875025952 175.62549309 220 197 c 1
 204.666666667 186.333333333 179.666666667 168.666666667 145 144 c 0
 124.333333333 128.666666667 110 121 102 121 c 0
 80.822980662 121 64 140.901962862 64 162 c 0
 64 190.206896209 89.475548939 195.677668492 113 208 c 0
 152.333333333 230.666666667 178.666666667 245 192 251 c 1
 178.666666667 257 152.333333333 271.333333333 113 294 c 0
 105.666666667 297.333333333 95.6666666667 302.5 83 309.5 c 0
 70.3333333333 316.5 64 326.666666667 64 340 c 0
 64 361.09886234 80.823530797 381 102 381 c 0
 110 381 124.333333333 373.333333333 145 358 c 0
 161 346 186 328.333333333 220 305 c 1
 218.890379095 326.082797198 212 406.029035508 212 432 c 0
 212 459.333333333 224.333333333 473 249 473 c 0
 274.333333333 473 287 459 287 431 c 0
 287 405.068353806 280.124974048 326.37450691 279 305 c 1
 294.333333333 315.666666667 319.333333333 333.333333333 354 358 c 0
 374.666666667 373.333333333 389 381 397 381 c 0
EndSplineSet
Validated: 1
EndChar

StartChar: Atilde
Encoding: 195 195 187
Width: 667
Flags: W
HStem: 0 21G<26 115.525 532.574 640> 202 64<207 441> 675 20G<279.489 386.511> 729 69<346.591 426.718> 787 68<240.282 320.409>
VStem: 165 68<729 782.682> 434 68<801.318 855>
LayerCount: 2
Fore
SplineSet
502 855 m 1xee
 500.876316597 787.578995817 463.121683092 729 401 729 c 0xf6
 381.666666667 729 360 737.666666667 336 755 c 0
 305.333333333 776.333333333 282.666666667 787 268 787 c 0xee
 246 787 234.333333333 767.666666667 233 729 c 1
 165 729 l 1xf6
 166.123683403 796.421004183 203.878316908 855 266 855 c 0xee
 285.333333333 855 307 846.666666667 331 830 c 0
 361.666666667 808.666666667 384.333333333 798 399 798 c 0xf6
 421 798 432.666666667 817 434 855 c 1
 502 855 l 1xee
540 0 m 1
 465 202 l 1
 184 202 l 1
 108 0 l 1
 26 0 l 1
 287 695 l 1
 379 695 l 1
 640 0 l 1
 540 0 l 1
324 604 m 1
 317.333333333 577.333333333 299.333333333 522.666666667 270 440 c 0
 249.673838918 381.326161082 228.780492981 323.219507019 207 266 c 1
 441 266 l 1
 353 515 l 2
 339 555 329.333333333 584.666666667 324 604 c 1
EndSplineSet
Validated: 1
Position2: "'cpsp' Capital Spacing lookup 0 subtable" dx=7 dy=0 dh=14 dv=0
EndChar

StartChar: atilde
Encoding: 227 227 188
Width: 481
Flags: W
HStem: -11 68<152.113 289.255> 0 21G<328 409> 191 59<186.47 325> 397 66<146.203 295.052> 544 69<253.208 332.681> 602 68<147.73 227.066>
VStem: 54 78<77.3759 152.873> 73 68<544 597.409> 325 84<0 32 80.0286 191 250 365.022> 340 67<616.341 670>
LayerCount: 2
Fore
SplineSet
407 670 m 1x3540
 405.877196362 602.631781691 369.061166565 544 307 544 c 0x3940
 288.333333333 544 266.666666667 552.666666667 242 570 c 0
 212 591.333333333 189.666666667 602 175 602 c 0x3540
 153.666666667 602 142.333333333 582.666666667 141 544 c 1
 73 544 l 1x3940
 75.2265325602 610.795976806 110.681235081 670 173 670 c 0x3540
 192.333333333 670 214 661.666666667 238 645 c 0
 268.666666667 623.666666667 291 613 305 613 c 0x3940
 327 613 338.666666667 632 340 670 c 1
 407 670 l 1x3540
244 463 m 0
 341.349388532 463 409 386.441717094 409 289 c 2
 409 0 l 1
 328 0 l 1x7280
 328 32 l 1
 288 3.33333333333 235 -11 169 -11 c 0
 99.456382009 -11 54 46.4417768354 54 116 c 0
 54 165.333333333 89 201.666666667 159 225 c 0
 205.666666667 240.333333333 261 248.666666667 325 250 c 1
 325 288 l 2xb280
 325 344.553157454 297.552226361 397 244 397 c 0
 192 397 141.666666667 379.666666667 93 345 c 1
 86 419 l 1
 136.666666667 448.333333333 189.333333333 463 244 463 c 0
132 117 m 0
 132 77.7637575645 177.043154562 57 219 57 c 0xb280
 289.666666667 57 325 82.6666666667 325 134 c 2
 325 191 l 1
 196.333333333 184.333333333 132 159.666666667 132 117 c 0
EndSplineSet
Validated: 1
Substitution2: "'smcp' Lowercase to Small Capitals in lookup 1 subtable" Atilde.sc
EndChar

StartChar: baht
Encoding: 3647 3647 189
Width: 667
Flags: W
HStem: -1 64<187 290 361 437.863> 326 69<187 290> 631 64<187 290 361 419.969>
VStem: 97 90<63 326 395 631> 290 71<-64 -1 64 324 400 627 695 758> 499 84<462.279 569.934> 522 88<131.717 250.258>
CounterMasks: 1 e0
LayerCount: 2
Fore
SplineSet
434 364 m 1xfc
 516.922313919 344.771637352 610 282.445236637 610 190 c 0xfa
 610 131.333333333 582 83.6666666667 526 47 c 0
 477.333333333 15 422.333333333 -1 361 -1 c 1
 361 -64 l 1
 290 -64 l 1
 290 -1 l 1
 97 -1 l 1
 97 695 l 1
 290 695 l 1
 290 758 l 1
 361 758 l 1
 361 693 l 1
 415.666666667 689 464.333333333 673 507 645 c 0
 557.666666667 611.666666667 583 569.333333333 583 518 c 0
 583 437.838621419 504.422261959 385.126678588 434 364 c 1xfc
361 400 m 1
 423.290862596 411.979012038 499 452.619590901 499 517 c 0xfc
 499 579.075136493 421.850316638 616.261708829 361 627 c 1
 361 400 l 1
290 631 m 1
 187 631 l 1
 187 395 l 1
 290 395 l 1
 290 631 l 1
361 64 m 1
 436.319129177 71.5319129177 522 115.949385731 522 191 c 256xfa
 522 266.542490105 435.717608726 314.200969347 361 324 c 1
 361 64 l 1
290 326 m 1
 187 326 l 1
 187 63 l 1
 290 63 l 1
 290 326 l 1
EndSplineSet
Validated: 1
EndChar

StartChar: blanksymbol
Encoding: 9250 9250 190
Width: 517
Flags: W
HStem: -11 68<207.298 328.599> 0 21G<81 165> 389 69<216.047 336.602> 654 20G<187.14 227.462> 674 20G<81 162>
VStem: 81 84<0 40 87.1575 359.338 404 460 631 694> 395 85<129.142 322.875>
LayerCount: 2
Fore
SplineSet
293 -11 m 0xb6
 247.666666667 -11 205 6 165 40 c 1
 165 0 l 1
 81 0 l 1
 81 460 l 1
 46 428 l 1
 -2 481 l 1
 81 556 l 1
 81 694 l 1
 162 694 l 1x6e
 162 631 l 1
 209 674 l 1
 257 622 l 1
 162 535 l 1
 162 404 l 1
 208.666666667 440 260.333333333 458 317 458 c 0
 369 458 410.333333333 430.666666667 441 376 c 0
 467 331.333333333 480 280.666666667 480 224 c 0
 480 164.666666667 464 112 432 66 c 0
 396.666666667 14.6666666667 350.333333333 -11 293 -11 c 0xb6
395 224 m 0
 395 314.684427208 352.300668985 389 267 389 c 0
 223.666666667 389 189.666666667 370.666666667 165 334 c 1
 165 118 l 1
 187 77.3333333333 217.666666667 57 257 57 c 0xa6
 345.339895633 57 395 131.489921582 395 224 c 0
EndSplineSet
Validated: 1
EndChar

StartChar: breve
Encoding: 728 728 191
Width: 500
Flags: W
HStem: 522 72<189.525 313.272> 680 20G<82 149.656 351.667 419>
VStem: 82 67<635.365 700> 352 67<634.783 700>
LayerCount: 2
Fore
SplineSet
419 700 m 1
 417.673218044 601.818135219 347.239063148 522 250 522 c 256
 152.18854966 522 83.3077256199 603.228304128 82 700 c 1
 149 700 l 1
 150.311857842 640.966397113 190.764576056 594 251 594 c 0
 276.333333333 594 299.333333333 603 320 621 c 0
 340.666666667 639 351.333333333 665.333333333 352 700 c 1
 419 700 l 1
EndSplineSet
Validated: 1
EndChar

StartChar: uni032E
Encoding: 814 814 192
Width: 0
Flags: W
HStem: -244 72<-300.475 -176.728>
VStem: -408 67<-130.635 -66> -138 67<-131.217 -66>
LayerCount: 2
Fore
SplineSet
-71 -66 m 1
 -72.3267819565 -164.181864781 -142.760936852 -244 -240 -244 c 256
 -337.81145034 -244 -406.69227438 -162.771695872 -408 -66 c 1
 -341 -66 l 1
 -339.688142158 -125.033602887 -299.235423944 -172 -239 -172 c 0
 -213.666666667 -172 -190.666666667 -163 -170 -145 c 0
 -149.333333333 -127 -138.666666667 -100.666666667 -138 -66 c 1
 -71 -66 l 1
EndSplineSet
Validated: 1
EndChar

StartChar: uni032F
Encoding: 815 815 193
Width: 0
Flags: W
HStem: -138 72<-302.387 -178.525>
VStem: -408 67<-244 -176.004> -138 67<-244 -179.365>
LayerCount: 2
Fore
SplineSet
-408 -244 m 1
 -406.692130255 -147.217638838 -336.792164085 -66 -239 -66 c 256
 -141.18854966 -66 -72.3077256199 -147.228304128 -71 -244 c 1
 -138 -244 l 1
 -139.311857842 -184.966397113 -179.764576056 -138 -240 -138 c 0
 -265.333333333 -138 -288.333333333 -147 -309 -165 c 0
 -329.666666667 -183 -340.333333333 -209.333333333 -341 -244 c 1
 -408 -244 l 1
EndSplineSet
Validated: 1
EndChar

StartChar: uni0306
Encoding: 774 774 194
Width: 0
Flags: W
HStem: 522 72<-300.475 -176.728> 680 20G<-408 -340.344 -138.333 -71>
VStem: -408 67<635.365 700> -138 67<634.783 700>
LayerCount: 2
Fore
SplineSet
-71 700 m 1
 -72.3267819565 601.818135219 -142.760936852 522 -240 522 c 256
 -337.81145034 522 -406.69227438 603.228304128 -408 700 c 1
 -341 700 l 1
 -339.688142158 640.966397113 -299.235423944 594 -239 594 c 0
 -213.666666667 594 -190.666666667 603 -170 621 c 0
 -149.333333333 639 -138.666666667 665.333333333 -138 700 c 1
 -71 700 l 1
EndSplineSet
Validated: 1
EndChar

StartChar: uni0311
Encoding: 785 785 195
Width: 0
Flags: W
HStem: 628 72<-302.387 -178.525>
VStem: -408 67<522 589.996> -138 67<522 586.635>
LayerCount: 2
Fore
SplineSet
-408 522 m 1
 -406.692130255 618.782361162 -336.792164085 700 -239 700 c 256
 -141.18854966 700 -72.3077256199 618.771695872 -71 522 c 1
 -138 522 l 1
 -139.311857842 581.033602887 -179.764576056 628 -240 628 c 0
 -265.333333333 628 -288.333333333 619 -309 601 c 0
 -329.666666667 583 -340.333333333 556.666666667 -341 522 c 1
 -408 522 l 1
EndSplineSet
Validated: 1
EndChar

StartChar: brokenbar
Encoding: 166 166 196
Width: 278
Flags: W
VStem: 119 40<-249.991 192.991 307.009 749.991>
LayerCount: 2
Fore
SplineSet
139 307 m 256
 125.666666667 307 119 318.666666667 119 342 c 2
 119 713 l 2
 119 737.666666667 125.666666667 750 139 750 c 256
 152.333333333 750 159 737.666666667 159 713 c 2
 159 342 l 2
 159 318.666666667 152.333333333 307 139 307 c 256
139 -250 m 256
 125.666666667 -250 119 -237.666666667 119 -213 c 2
 119 158 l 2
 119 181.333333333 125.666666667 193 139 193 c 256
 152.333333333 193 159 181.333333333 159 158 c 2
 159 -213 l 2
 159 -237.666666667 152.333333333 -250 139 -250 c 256
EndSplineSet
Validated: 1
EndChar

StartChar: bullet
Encoding: 8226 8226 197
Width: 778
Flags: W
HStem: 121 286<246 532>
VStem: 246 286<121 407>
LayerCount: 2
Fore
SplineSet
246 121 m 1
 246 407 l 1
 532 407 l 1
 532 121 l 1
 246 121 l 1
EndSplineSet
Validated: 1
EndChar

StartChar: Cacute
Encoding: 262 262 198
Width: 639
Flags: W
HStem: -11 71<299.486 509.821> 636 71<297.296 498.425>
VStem: 66 96<225.562 470.438>
LayerCount: 2
Fore
SplineSet
346 739 m 1
 245 739 l 1
 428 868 l 1
 553 868 l 1
 346 739 l 1
491 0 m 0
 463.666666667 -7.33333333333 429 -11 387 -11 c 0
 293.666666667 -11 216 26 154 100 c 0
 95.3333333333 170 66 252.666666667 66 348 c 256
 66 443.333333333 95.3333333333 526 154 596 c 0
 216 670 293.666666667 707 387 707 c 0
 451.666666667 707 515 694.666666667 577 670 c 1
 561 580 l 1
 507.666666667 617.333333333 449.666666667 636 387 636 c 0
 317.666666667 636 261.666666667 604.333333333 219 541 c 0
 181 484.333333333 162 420 162 348 c 256
 162 276 181 211.666666667 219 155 c 0
 262.333333333 91.6666666667 318.333333333 60 387 60 c 0
 428.333333333 60 461.333333333 64 486 72 c 0
 510.666666667 80 542 97.3333333333 580 124 c 1
 587 46 l 1
 548.333333333 22.6666666667 516.333333333 7.33333333333 491 0 c 0
EndSplineSet
Validated: 1
Position2: "'cpsp' Capital Spacing lookup 0 subtable" dx=7 dy=0 dh=14 dv=0
EndChar

StartChar: cacute
Encoding: 263 263 199
Width: 444
Flags: W
HStem: -11 71<183.734 349.573> 392 72<182.97 352.826> 674 20G<287.277 390>
VStem: 36 84<129.945 321.695>
LayerCount: 2
Fore
SplineSet
237 521 m 1
 167 521 l 1
 303 694 l 1
 390 694 l 1
 237 521 l 1
120 224 m 0
 120 136.057191068 168.522090831 60 252 60 c 0
 308 60 360 79 408 117 c 1
 415 41 l 1
 365 6.33333333333 310.333333333 -11 251 -11 c 0
 189 -11 137.333333333 12.6666666667 96 60 c 0
 56 105.333333333 36 159.666666667 36 223 c 0
 36 289 56 345 96 391 c 0
 137.333333333 439.666666667 190.333333333 464 255 464 c 0
 307 464 359 449 411 419 c 1
 397 346 l 1
 350.333333333 376.666666667 303.333333333 392 256 392 c 0
 164.646238913 392 120 316.385905949 120 224 c 0
EndSplineSet
Validated: 1
Substitution2: "'smcp' Lowercase to Small Capitals in lookup 1 subtable" Cacute.sc
EndChar

StartChar: caron
Encoding: 711 711 200
Width: 500
Flags: W
HStem: 525 172
VStem: 91 318
LayerCount: 2
Fore
SplineSet
281 525 m 1
 219 525 l 1
 91 697 l 1
 158 697 l 1
 250 582 l 1
 342 697 l 1
 409 697 l 1
 281 525 l 1
EndSplineSet
Validated: 1
EndChar

StartChar: uni030C
Encoding: 780 780 201
Width: 0
Flags: W
HStem: 525 172
VStem: -399 318
LayerCount: 2
Fore
SplineSet
-209 525 m 1
 -271 525 l 1
 -399 697 l 1
 -332 697 l 1
 -240 582 l 1
 -148 697 l 1
 -81 697 l 1
 -209 525 l 1
EndSplineSet
Validated: 1
EndChar

StartChar: Ccaron
Encoding: 268 268 202
Width: 639
Flags: W
HStem: -11 71<299.486 509.821> 636 71<297.296 498.425>
VStem: 66 96<225.562 470.438>
LayerCount: 2
Fore
SplineSet
382 729 m 1
 319 729 l 1
 188 870 l 1
 257 870 l 1
 351 776 l 1
 445 870 l 1
 513 870 l 1
 382 729 l 1
491 0 m 0
 463.666666667 -7.33333333333 429 -11 387 -11 c 0
 293.666666667 -11 216 26 154 100 c 0
 95.3333333333 170 66 252.666666667 66 348 c 256
 66 443.333333333 95.3333333333 526 154 596 c 0
 216 670 293.666666667 707 387 707 c 0
 451.666666667 707 515 694.666666667 577 670 c 1
 561 580 l 1
 507.666666667 617.333333333 449.666666667 636 387 636 c 0
 317.666666667 636 261.666666667 604.333333333 219 541 c 0
 181 484.333333333 162 420 162 348 c 256
 162 276 181 211.666666667 219 155 c 0
 262.333333333 91.6666666667 318.333333333 60 387 60 c 0
 428.333333333 60 461.333333333 64 486 72 c 0
 510.666666667 80 542 97.3333333333 580 124 c 1
 587 46 l 1
 548.333333333 22.6666666667 516.333333333 7.33333333333 491 0 c 0
EndSplineSet
Validated: 1
Position2: "'cpsp' Capital Spacing lookup 0 subtable" dx=7 dy=0 dh=14 dv=0
EndChar

StartChar: ccaron
Encoding: 269 269 203
Width: 444
Flags: W
HStem: -11 71<183.734 349.573> 392 72<182.97 352.826> 677 20G<84 167.462 320.538 403>
VStem: 36 84<129.945 321.695>
LayerCount: 2
Fore
SplineSet
275 519 m 1
 212 519 l 1
 84 697 l 1
 152 697 l 1
 244 578 l 1
 336 697 l 1
 403 697 l 1
 275 519 l 1
120 224 m 0
 120 136.057191068 168.522090831 60 252 60 c 0
 308 60 360 79 408 117 c 1
 415 41 l 1
 365 6.33333333333 310.333333333 -11 251 -11 c 0
 189 -11 137.333333333 12.6666666667 96 60 c 0
 56 105.333333333 36 159.666666667 36 223 c 0
 36 289 56 345 96 391 c 0
 137.333333333 439.666666667 190.333333333 464 255 464 c 0
 307 464 359 449 411 419 c 1
 397 346 l 1
 350.333333333 376.666666667 303.333333333 392 256 392 c 0
 164.646238913 392 120 316.385905949 120 224 c 0
EndSplineSet
Validated: 1
Substitution2: "'smcp' Lowercase to Small Capitals in lookup 1 subtable" Ccaron.sc
EndChar

StartChar: Ccedilla
Encoding: 199 199 204
Width: 639
Flags: W
HStem: -24 72<303.298 511.898> 645 71<302.179 498.531>
VStem: 67 96<216.621 474.827>
LayerCount: 2
Fore
SplineSet
394 -24 m 0
 297.333333333 -24 217.666666667 14.3333333333 155 91 c 0
 96.3333333333 162.333333333 67 247.333333333 67 346 c 256
 67 444.666666667 96.3333333333 530 155 602 c 0
 217 678 296.333333333 716 393 716 c 0
 453 716 514.666666667 704 578 680 c 1
 561 590 l 1
 505.666666667 626.666666667 449.333333333 645 392 645 c 0
 320.666666667 645 263.333333333 611.666666667 220 545 c 0
 182 487.666666667 163 421.333333333 163 346 c 0
 163 269.333333333 182 202.666666667 220 146 c 0
 264 80.6666666667 322.333333333 48 395 48 c 0
 434.333333333 48 467.333333333 52.6666666667 494 62 c 0
 518 70.6666666667 547 87.3333333333 581 112 c 1
 588 34 l 1
 552 11.3333333333 521.333333333 -3.66666666667 496 -11 c 0
 468.666666667 -19.6666666667 434.666666667 -24 394 -24 c 0
335 -214 m 1
 258 -214 l 1
 334 -40 l 1
 403 -40 l 1
 335 -214 l 1
EndSplineSet
Validated: 1
Position2: "'cpsp' Capital Spacing lookup 0 subtable" dx=7 dy=0 dh=14 dv=0
EndChar

StartChar: ccedilla
Encoding: 231 231 205
Width: 444
Flags: W
HStem: -13 71<183.734 349.573> 390 71<183.22 352.826>
VStem: 36 84<127.79 319.469>
LayerCount: 2
Fore
SplineSet
120 222 m 0
 120 133.346238656 168.522090831 58 252 58 c 0
 308 58 360 77 408 115 c 1
 415 39 l 1
 365 4.33333333333 310.333333333 -13 251 -13 c 0
 189 -13 137.333333333 10.6666666667 96 58 c 0
 56 103.333333333 36 157.666666667 36 221 c 0
 36 286.333333333 56.3333333333 342.666666667 97 390 c 0
 137.666666667 437.333333333 190.333333333 461 255 461 c 0
 307 461 359 446.333333333 411 417 c 1
 397 344 l 1
 350.333333333 374.666666667 303.333333333 390 256 390 c 0
 165.401315003 390 120 313.802447476 120 222 c 0
228 -214 m 1
 151 -214 l 1
 227 -40 l 1
 295 -40 l 1
 228 -214 l 1
EndSplineSet
Validated: 1
Substitution2: "'smcp' Lowercase to Small Capitals in lookup 1 subtable" Ccedilla.sc
EndChar

StartChar: Ccircumflex
Encoding: 264 264 206
Width: 639
Flags: W
HStem: -11 71<299.486 509.821> 636 71<297.296 498.425>
VStem: 66 96<225.562 470.438>
LayerCount: 2
Fore
SplineSet
445 729 m 1
 351 824 l 1
 257 729 l 1
 188 729 l 1
 319 870 l 1
 382 870 l 1
 513 729 l 1
 445 729 l 1
491 0 m 0
 463.666666667 -7.33333333333 429 -11 387 -11 c 0
 293.666666667 -11 216 26 154 100 c 0
 95.3333333333 170 66 252.666666667 66 348 c 256
 66 443.333333333 95.3333333333 526 154 596 c 0
 216 670 293.666666667 707 387 707 c 0
 451.666666667 707 515 694.666666667 577 670 c 1
 561 580 l 1
 507.666666667 617.333333333 449.666666667 636 387 636 c 0
 317.666666667 636 261.666666667 604.333333333 219 541 c 0
 181 484.333333333 162 420 162 348 c 256
 162 276 181 211.666666667 219 155 c 0
 262.333333333 91.6666666667 318.333333333 60 387 60 c 0
 428.333333333 60 461.333333333 64 486 72 c 0
 510.666666667 80 542 97.3333333333 580 124 c 1
 587 46 l 1
 548.333333333 22.6666666667 516.333333333 7.33333333333 491 0 c 0
EndSplineSet
Validated: 1
Position2: "'cpsp' Capital Spacing lookup 0 subtable" dx=7 dy=0 dh=14 dv=0
EndChar

StartChar: ccircumflex
Encoding: 265 265 207
Width: 444
Flags: W
HStem: -11 71<183.734 349.573> 392 72<182.97 352.826> 677 20G<197.618 289.382>
VStem: 36 84<129.945 321.695>
LayerCount: 2
Fore
SplineSet
336 519 m 1
 244 638 l 1
 152 519 l 1
 84 519 l 1
 212 697 l 1
 275 697 l 1
 403 519 l 1
 336 519 l 1
120 224 m 0
 120 136.057191068 168.522090831 60 252 60 c 0
 308 60 360 79 408 117 c 1
 415 41 l 1
 365 6.33333333333 310.333333333 -11 251 -11 c 0
 189 -11 137.333333333 12.6666666667 96 60 c 0
 56 105.333333333 36 159.666666667 36 223 c 0
 36 289 56 345 96 391 c 0
 137.333333333 439.666666667 190.333333333 464 255 464 c 0
 307 464 359 449 411 419 c 1
 397 346 l 1
 350.333333333 376.666666667 303.333333333 392 256 392 c 0
 164.646238913 392 120 316.385905949 120 224 c 0
EndSplineSet
Validated: 1
EndChar

StartChar: Cdotaccent
Encoding: 266 266 208
Width: 639
Flags: W
HStem: -11 71<299.486 509.821> 636 71<299.237 497.092> 729 96<302 398>
VStem: 66 96<223.363 470.252> 302 96<729 825>
LayerCount: 2
Fore
SplineSet
302 729 m 1
 302 825 l 1
 398 825 l 1
 398 729 l 1
 302 729 l 1
491 0 m 0
 463.666666667 -7.33333333333 429 -11 387 -11 c 0
 293.666666667 -11 216 26 154 100 c 0
 95.3333333333 170 66 252.666666667 66 348 c 256
 66 443.333333333 95.3333333333 526 154 596 c 0
 216 670 293.666666667 707 387 707 c 0
 451.666666667 707 515 694.666666667 577 670 c 1
 561 579 l 1
 507.666666667 617 449.666666667 636 387 636 c 0
 317.666666667 636 261.666666667 604 219 540 c 0
 181 484 162 420 162 348 c 0
 162 275.333333333 181 211 219 155 c 0
 262.333333333 91.6666666667 318.333333333 60 387 60 c 0
 428.333333333 60 461.333333333 64 486 72 c 0
 510.666666667 80 542 97.3333333333 580 124 c 1
 587 46 l 1
 548.333333333 22.6666666667 516.333333333 7.33333333333 491 0 c 0
EndSplineSet
Validated: 1
Position2: "'cpsp' Capital Spacing lookup 0 subtable" dx=7 dy=0 dh=14 dv=0
EndChar

StartChar: cdotaccent
Encoding: 267 267 209
Width: 444
Flags: W
HStem: -11 71<183.734 349.573> 392 71<183.22 352.826> 559 96<196 291>
VStem: 36 84<129.945 321.792> 196 95<559 655>
LayerCount: 2
Fore
SplineSet
196 559 m 1
 196 655 l 1
 291 655 l 1
 291 559 l 1
 196 559 l 1
120 224 m 0
 120 136.057191068 168.522090831 60 252 60 c 0
 308 60 360 79 408 117 c 1
 415 41 l 1
 365 6.33333333333 310.333333333 -11 251 -11 c 0
 189 -11 137.333333333 12.6666666667 96 60 c 0
 56 105.333333333 36 159.666666667 36 223 c 0
 36 289 56.3333333333 345.5 97 392.5 c 0
 137.666666667 439.5 190.333333333 463 255 463 c 0
 307 463 359 448.333333333 411 419 c 1
 397 346 l 1
 350.333333333 376.666666667 303.333333333 392 256 392 c 0
 165.401315003 392 120 315.802447476 120 224 c 0
EndSplineSet
Validated: 1
EndChar

StartChar: cedilla
Encoding: 184 184 210
Width: 444
Flags: W
HStem: -192 168
VStem: 143 139
LayerCount: 2
Fore
SplineSet
216 -192 m 1
 143 -192 l 1
 216 -24 l 1
 282 -24 l 1
 216 -192 l 1
EndSplineSet
Validated: 1
EndChar

StartChar: cent
Encoding: 162 162 211
Width: 444
Flags: W
HStem: -10 71<279 354.862> 390 71<279 355.445>
VStem: 36 84<129.791 319.077> 208 71<-64 -7.54126 67 382 458.562 508>
LayerCount: 2
Fore
SplineSet
279 -10 m 1
 279 -64 l 1
 208 -64 l 1
 208 -7 l 1
 156.666666667 3.66666666667 114.666666667 31.6666666667 82 77 c 0
 51.3333333333 119.666666667 36 168 36 222 c 0
 36 278 51 327.666666667 81 371 c 0
 113 417 155.333333333 445.666666667 208 457 c 1
 208 508 l 1
 279 508 l 1
 279 461 l 1
 320.333333333 458.333333333 364.333333333 443.666666667 411 417 c 1
 397 345 l 1
 356.333333333 371.666666667 317 386.666666667 279 390 c 1
 279 61 l 1
 325.666666667 65.6666666667 368.666666667 84 408 116 c 1
 415 41 l 1
 371.666666667 11 326.333333333 -6 279 -10 c 1
208 382 m 1
 153.190610009 363.314980685 120 298.745752427 120 223 c 0
 120 148.406833946 154.122560323 87.8162835115 208 67 c 1
 208 382 l 1
EndSplineSet
Validated: 1
Substitution2: "'onum' Oldstyle Figures lookup 4 subtable" cent.oldstyle
Substitution2: "'aalt' Access All Alternates lookup 0 subtable" cent.oldstyle
EndChar

StartChar: centigrade
Encoding: 8451 8451 212
Width: 861
Flags: W
HStem: -21 71<524.645 731.079> 468 47<67.714 160.49> 646 71<519.639 718.688> 648 47<67.6149 164.118>
VStem: 1 47<533.378 628.979> 180 48<534.028 631.867> 285 96<217.81 472.124>
LayerCount: 2
Fore
SplineSet
804 115 m 1xee
 804 97.8724321087 810 60.7678905405 810 45 c 0
 810 39 806.666666667 34 800 30 c 2
 785 21 l 2
 738.333333333 -7 680 -21 610 -21 c 0
 472.597777198 -21 369.800937875 71.2079601209 323 173 c 0
 297.666666667 228.333333333 285 286.333333333 285 347 c 0
 285 445 315 530 375 602 c 0
 438.333333333 678.666666667 518 717 614 717 c 0
 676 717 738 705 800 681 c 1
 784 592 l 1
 776 595.333333333 767 600.333333333 757 607 c 0
 705 633 657 646 613 646 c 0
 537.666666667 646 479.666666667 613 439 547 c 0
 400.333333333 484.333333333 381 418.333333333 381 349 c 0
 381 242.333333333 416.333333333 158.333333333 487 97 c 0
 523 65.6666666667 564.666666667 50 612 50 c 0
 662 50 702 57.3333333333 732 72 c 0
 746 78.6666666667 770 93 804 115 c 1xee
228 582 m 0
 228 519.887985585 182.073420869 474.341491208 125 468 c 1
 116 468 l 2
 50.2550731343 468 1 515.534024512 1 581 c 0
 1 643.128224917 45.8829459028 688.653660656 103 695 c 1
 112 695 l 2xde
 176.017674261 695 228 646.419103794 228 582 c 0
114 515 m 0
 149.687372009 515 180 545.313728261 180 581 c 2
 180 588 l 1
 173.333333333 628 151 648 113 648 c 0
 78.1449716848 648 48 616.115671173 48 581 c 2
 48 575 l 1
 52.9585296799 544.009189501 78.9919539227 515 114 515 c 0
EndSplineSet
Validated: 1
EndChar

StartChar: circumflex
Encoding: 710 710 213
Width: 500
Flags: W
HStem: 525 172
VStem: 91 318
LayerCount: 2
Fore
SplineSet
342 525 m 1
 250 640 l 1
 158 525 l 1
 91 525 l 1
 219 697 l 1
 281 697 l 1
 409 525 l 1
 342 525 l 1
EndSplineSet
Validated: 1
EndChar

StartChar: uni0302
Encoding: 770 770 214
Width: 0
Flags: W
HStem: 525 172
VStem: -399 318
LayerCount: 2
Fore
SplineSet
-148 525 m 1
 -240 640 l 1
 -332 525 l 1
 -399 525 l 1
 -271 697 l 1
 -209 697 l 1
 -81 525 l 1
 -148 525 l 1
EndSplineSet
Validated: 1
EndChar

StartChar: colonmonetary
Encoding: 8353 8353 215
Width: 639
Flags: W
HStem: -23 72<386 512.098> 645 72<386 498.328>
VStem: 67 96<217.667 476.085> 315 71<-96 -23 65 629 717 790>
LayerCount: 2
Fore
SplineSet
394 -23 m 2
 386 -23 l 1
 386 -96 l 1
 315 -96 l 1
 315 -13 l 1
 238.333333333 7.66666666667 177 53.3333333333 131 124 c 0
 88.3333333333 190 67 264.333333333 67 347 c 0
 67 429 88.3333333333 503.333333333 131 570 c 0
 177.666666667 641.333333333 239 687 315 707 c 1
 315 790 l 1
 386 790 l 1
 386 717 l 1
 393 717 l 2
 453 717 514.666666667 705 578 681 c 1
 561 591 l 1
 505.666666667 627 449.333333333 645 392 645 c 2
 386 645 l 1
 386 49 l 1
 395 49 l 2
 434.333333333 49 467.333333333 53.6666666667 494 63 c 0
 518 71.6666666667 547 88 581 112 c 1
 588 35 l 1
 552 12.3333333333 521.333333333 -2.66666666667 496 -10 c 0
 468.666666667 -18.6666666667 434.666666667 -23 394 -23 c 2
315 629 m 1
 265.666666667 607 227 567.666666667 199 511 c 0
 175 461 163 406.333333333 163 347 c 256
 163 287.666666667 175 233 199 183 c 0
 227 126.333333333 265.666666667 87 315 65 c 1
 315 629 l 1
EndSplineSet
Validated: 1
EndChar

StartChar: uni0326
Encoding: 806 806 216
Width: 0
Flags: W
HStem: -266 187<-332 -311>
VStem: -278 41<-266 -242.941> -277 74<-159 -79>
LayerCount: 2
Fore
SplineSet
-237 -266 m 1xc0
 -278 -266 l 1xc0
 -258 -159 l 1
 -277 -159 l 1
 -277 -79 l 1
 -203 -79 l 1
 -203 -154 l 1xa0
 -237 -266 l 1xc0
EndSplineSet
Validated: 1
EndChar

StartChar: copyright
Encoding: 169 169 217
Width: 694
Flags: W
HStem: 0 45<233.17 460.463> 114 47<298.002 455.203> 533 48<298.567 452.001> 649 45<231.494 460.497>
VStem: 0 45<231.494 460.83> 161 63<246.55 445.566> 649 45<223.478 463.346>
CounterMasks: 2 f0 0e
LayerCount: 2
Fore
SplineSet
347 0 m 256
 250.333333333 0 168.333333333 33.6666666667 101 101 c 0
 33.6666666667 168.333333333 0 250.333333333 0 347 c 256
 0 443.666666667 33.6666666667 525.666666667 101 593 c 0
 168.333333333 660.333333333 250.333333333 694 347 694 c 0
 443 694 524.666666667 660 592 592 c 0
 638.666666667 546 668.333333333 504.666666667 681 468 c 0
 689.666666667 443.333333333 694 403 694 347 c 0
 694 250.333333333 660.333333333 168.333333333 593 101 c 0
 525.666666667 33.6666666667 443.666666667 0 347 0 c 256
347 649 m 256
 263 649 191.666666667 619.666666667 133 561 c 0
 74.3333333333 502.333333333 45 431 45 347 c 256
 45 263 74.3333333333 191.666666667 133 133 c 0
 191.666666667 74.3333333333 263 45 347 45 c 0
 430.333333333 45 501.333333333 74.6666666667 560 134 c 0
 600.666666667 174.666666667 626.666666667 210.666666667 638 242 c 0
 645.333333333 263.333333333 649 298.333333333 649 347 c 0
 649 431 619.666666667 502.333333333 561 561 c 0
 502.333333333 619.666666667 431 649 347 649 c 256
370 114 m 0
 308.666666667 114 258 137.666666667 218 185 c 0
 180 230.333333333 161 284.333333333 161 347 c 256
 161 409.666666667 179.666666667 463.666666667 217 509 c 0
 257 557 307.666666667 581 369 581 c 0
 408.333333333 581 447.666666667 573 487 557 c 1
 476 498 l 1
 439.333333333 521.333333333 403.333333333 533 368 533 c 0
 323.333333333 533 287.333333333 512.333333333 260 471 c 0
 236 435 224 393.666666667 224 347 c 0
 224 299 236 257.333333333 260 222 c 0
 287.333333333 181.333333333 324 161 370 161 c 0
 409.333333333 161 449 175 489 203 c 1
 494 150 l 1
 455.333333333 126 414 114 370 114 c 0
EndSplineSet
Validated: 1
EndChar

StartChar: currency
Encoding: 164 164 218
Width: 778
Flags: W
HStem: 53 47<312.393 466.103> 400 47<311.647 465.984>
VStem: 192 47<172.647 326.607> 538 47<169.98 326.849>
LayerCount: 2
Fore
SplineSet
581 25 m 2
 510 95 l 1
 474 67 433.666666667 53 389 53 c 0
 343.666666667 53 303 67 267 95 c 1
 197 25 l 2
 187 15 177.666666667 10 169 10 c 0
 154.333333333 10 147 17 147 31 c 0
 147 37.6666666667 152.666666667 46.6666666667 164 58 c 2
 234 129 l 1
 206 164.333333333 192 204.666666667 192 250 c 256
 192 295.333333333 206 336 234 372 c 1
 164 442 l 2
 153.333333333 452.666666667 148 462.333333333 148 471 c 0
 148 484.333333333 155 491 169 491 c 0
 177.666666667 491 187 486 197 476 c 2
 268 405 l 1
 303.333333333 433 343.666666667 447 389 447 c 0
 433.666666667 447 474 433 510 405 c 1
 580 475 l 2
 590 485 599.333333333 490 608 490 c 0
 622 490 629 483.333333333 629 470 c 0
 629 462 623.666666667 452.666666667 613 442 c 2
 543 372 l 1
 571 336.666666667 585 296 585 250 c 0
 585 204.666666667 571.333333333 164.333333333 544 129 c 1
 614 58 l 2
 624 48 629 38.6666666667 629 30 c 0
 629 16.6666666667 622.333333333 10 609 10 c 0
 600.333333333 10 591 15 581 25 c 2
538 250 m 0
 538 331.98930602 471.013066124 400 389 400 c 256
 307.01069398 400 239 331.986922102 239 250 c 256
 239 168.01069398 307.013077898 100 389 100 c 0
 429.666666667 100 464.666666667 114.666666667 494 144 c 0
 514 164 526.666666667 182 532 198 c 0
 536 208.666666667 538 226 538 250 c 0
EndSplineSet
Validated: 1
EndChar

StartChar: dagger
Encoding: 8224 8224 219
Width: 444
Flags: W
HStem: 392 74<59.5254 200.229 242.771 383.837> 685 20G<209.667 234>
VStem: 185 73<-15.9904 404.976 460.691 702.528> 204 32<-215.949 -8.7555>
LayerCount: 2
Fore
SplineSet
387 428 m 0xe0
 387 406.273371775 368.951196466 392 347 392 c 0
 326.126188216 392 266.023877486 410.769471252 235 415 c 1
 237 393.666666667 240 372 244 350 c 0
 253.333333333 304 258 260 258 218 c 0xe0
 258 110.793707746 250.117881662 -80.3508532095 236 -206 c 0
 233.333333333 -212.666666667 228.333333333 -216 221 -216 c 0
 211.666666667 -216 206 -208.333333333 204 -193 c 0xd0
 191.333333333 -47 185 90 185 218 c 0
 185 258 189.666666667 302.333333333 199 351 c 0
 203 372.333333333 206 393.666666667 208 415 c 1
 176.923770639 410.338565596 119.176440694 392 96 392 c 0
 69.3333333333 392 56 404.333333333 56 429 c 0
 56 449.584270205 72.7296482981 466 96 466 c 0
 116.873811784 466 176.976122514 447.230528748 208 443 c 1
 205.646229938 500.667366525 185 618.43810413 185 660 c 0
 185 690 197.333333333 705 222 705 c 0
 246 705 258 690 258 660 c 0
 258 636 254.333333333 599.333333333 247 550 c 1
 246 539 l 1
 240 499 236.333333333 467 235 443 c 1
 266.076229361 447.661434404 323.823559306 466 347 466 c 0
 373.666666667 466 387 453.333333333 387 428 c 0xe0
EndSplineSet
Validated: 1
EndChar

StartChar: daggerdbl
Encoding: 8225 8225 220
Width: 444
Flags: W
HStem: -13 74<58.0325 201.794 242.495 383.504> 246 7<197.333 245.667> 438 75<59.5254 195.325 247.675 383.446> 685 20G<209 233.333>
VStem: 185 73<-202.638 -2.94922 52.1125 245.903 253.097 446.652 504.08 702.638>
LayerCount: 2
Fore
SplineSet
387 475 m 0
 387 453.289575305 368.958442502 438 347 438 c 0
 325.631045938 438 265.436618086 457.849552079 235 462 c 1
 236.989068685 430.17490104 258 318.808893038 258 289 c 0
 258 260.333333333 245.666666667 246 221 246 c 0
 197 246 185 260.333333333 185 289 c 0
 185 311.666666667 189.333333333 345.333333333 198 390 c 0
 204 421.333333333 207.333333333 445.333333333 208 462 c 1
 194.666666667 460 180.666666667 456.666666667 166 452 c 0
 135.333333333 442.666666667 112 438 96 438 c 0
 69.3333333333 438 56 450.666666667 56 476 c 0
 56 496.584270205 72.7296482981 513 96 513 c 0
 117.368954062 513 177.563381914 493.150447921 208 489 c 1
 206.057316513 520.082935792 185 630.841703451 185 662 c 0
 185 690.666666667 197 705 221 705 c 0
 245.666666667 705 258 690.666666667 258 662 c 0
 258 638.666666667 253.666666667 605 245 561 c 0
 239 529.666666667 235.666666667 505.666666667 235 489 c 1
 248.333333333 491 262.333333333 494.333333333 277 499 c 0
 307.666666667 508.333333333 331 513 347 513 c 0
 373.666666667 513 387 500.333333333 387 475 c 0
351 61 m 0
 371.19801788 61 387 43.5340302123 387 24 c 0
 387 -0.666666666667 374.666666667 -13 350 -13 c 0
 326.164400578 -13 252.024768977 7.73003080303 235 10 c 1
 237 -18.6666666667 240 -40.6666666667 244 -56 c 0
 253.333333333 -108.666666667 258 -144 258 -162 c 0
 258 -190.666666667 245.666666667 -205 221 -205 c 0
 197 -205 185 -190.666666667 185 -162 c 0
 185 -142.150661639 204.617746601 -25.9499517897 208 9 c 1
 177.292231766 4.81257705903 130.337993255 -13 93 -13 c 0
 68.3333333333 -13 56 -0.666666666667 56 24 c 256
 56 48.6666666667 68.3333333333 61 93 61 c 0
 116.835599422 61 190.975231023 40.269969197 208 38 c 1
 206 66.6666666667 203 88.6666666667 199 104 c 0
 189.666666667 156.666666667 185 192 185 210 c 0
 185 238.666666667 197.333333333 253 222 253 c 0
 246 253 258 238.666666667 258 210 c 0
 258 190.143716125 238.355428952 72.6727658375 235 38 c 1
 245.666666667 39.3333333333 261.666666667 43.3333333333 283 50 c 0
 309 57.3333333333 331.666666667 61 351 61 c 0
EndSplineSet
Validated: 5
EndChar

StartChar: dblbracketleft
Encoding: 10214 10214 221
Width: 403
Flags: W
HStem: -249 48<165 238 285 380> 703 48<165 238 285 380>
VStem: 118 47<-201 703> 238 47<-201 703>
LayerCount: 2
Fore
SplineSet
118 -249 m 1
 118 751 l 1
 380 751 l 1
 380 703 l 1
 285 703 l 1
 285 -201 l 1
 380 -201 l 1
 380 -249 l 1
 118 -249 l 1
238 703 m 1
 165 703 l 1
 165 -201 l 1
 238 -201 l 1
 238 703 l 1
EndSplineSet
Validated: 1
EndChar

StartChar: dblbracketright
Encoding: 10215 10215 222
Width: 403
Flags: W
HStem: -249 48<23 117 164 237> 703 48<23 117 164 237>
VStem: 117 47<-201 703> 237 47<-201 703>
LayerCount: 2
Fore
SplineSet
23 -249 m 1
 23 -201 l 1
 117 -201 l 1
 117 703 l 1
 23 703 l 1
 23 751 l 1
 284 751 l 1
 284 -249 l 1
 23 -249 l 1
237 703 m 1
 164 703 l 1
 164 -201 l 1
 237 -201 l 1
 237 703 l 1
EndSplineSet
Validated: 1
EndChar

StartChar: uni030F
Encoding: 783 783 223
Width: 0
Flags: W
HStem: 527 167<-250 -246 -87 -84>
VStem: -408 312
LayerCount: 2
Fore
SplineSet
-164 527 m 1
 -246 694 l 1
 -161 694 l 1
 -96 527 l 1
 -164 527 l 1
-327 527 m 1
 -408 694 l 1
 -323 694 l 1
 -259 527 l 1
 -327 527 l 1
EndSplineSet
Validated: 1
EndChar

StartChar: dblverticalbar
Encoding: 8214 8214 224
Width: 398
Flags: W
VStem: 119 46<-249.964 749.964> 233 46<-249.964 749.964>
LayerCount: 2
Fore
SplineSet
256 -250 m 256
 240.666666667 -250 233 -237.666666667 233 -213 c 2
 233 713 l 2
 233 737.666666667 240.666666667 750 256 750 c 256
 271.333333333 750 279 737.666666667 279 713 c 2
 279 -213 l 2
 279 -237.666666667 271.333333333 -250 256 -250 c 256
142 -250 m 256
 126.666666667 -250 119 -237.666666667 119 -213 c 2
 119 713 l 2
 119 737.666666667 126.666666667 750 142 750 c 256
 157.333333333 750 165 737.666666667 165 713 c 2
 165 -213 l 2
 165 -237.666666667 157.333333333 -250 142 -250 c 256
EndSplineSet
Validated: 1
EndChar

StartChar: Dcaron
Encoding: 270 270 225
Width: 722
Flags: W
HStem: 0 63<189 434.508> 632 64<189 433.708>
VStem: 96 93<63 632> 572 93<218.589 471.798>
LayerCount: 2
Fore
SplineSet
292 729 m 1
 229 729 l 1
 98 870 l 1
 167 870 l 1
 261 776 l 1
 355 870 l 1
 424 870 l 1
 292 729 l 1
359 0 m 2
 96 0 l 1
 96 696 l 1
 358 696 l 2
 448.666666667 696 523.666666667 658.666666667 583 584 c 0
 637.666666667 515.333333333 665 434.666666667 665 342 c 0
 665 251.333333333 637 172.666666667 581 106 c 0
 522.333333333 35.3333333333 448.333333333 0 359 0 c 2
336 632 m 2
 189 632 l 1
 189 63 l 1
 336 63 l 2
 410 63 468.666666667 91.6666666667 512 149 c 0
 552 201 572 265.333333333 572 342 c 0
 572 420 552.666666667 486.333333333 514 541 c 0
 470 601.666666667 410.666666667 632 336 632 c 2
EndSplineSet
Validated: 1
Position2: "'cpsp' Capital Spacing lookup 0 subtable" dx=7 dy=0 dh=14 dv=0
EndChar

StartChar: dcaron
Encoding: 271 271 226
Width: 517
Flags: W
HStem: -11 68<182.13 299.562> 0 21G<351 436> 389 69<185.462 308.57> 674 20G<354 436 464 545>
VStem: 36 85<124.296 318.62> 351 85<0 46 92.8041 362.653 408 694> 464 81<616 694>
LayerCount: 2
Fore
SplineSet
507 501 m 1x3e
 463 501 l 1
 485 612 l 1
 464 612 l 1
 464 694 l 1
 545 694 l 1
 545 616 l 1
 507 501 l 1x3e
351 0 m 1x7e
 351 46 l 1
 309 8 261.666666667 -11 209 -11 c 0xbe
 154.333333333 -11 110.666666667 15.3333333333 78 68 c 0
 50 114 36 165.666666667 36 223 c 0
 36 281.666666667 50.6666666667 333.666666667 80 379 c 0
 114 431.666666667 158.666666667 458 214 458 c 0
 264.666666667 458 311.333333333 441.333333333 354 408 c 1
 354 694 l 1
 436 694 l 1
 436 0 l 1
 351 0 l 1x7e
250 57 m 0
 295.261792657 57 351 95.5977699756 351 141 c 2
 351 338 l 1
 327 372 296.333333333 389 259 389 c 0
 169.731811801 389 121 315.379499034 121 222 c 0
 121 132.766962835 165.12616397 57 250 57 c 0
EndSplineSet
Validated: 1
Substitution2: "'smcp' Lowercase to Small Capitals in lookup 1 subtable" Dcaron.sc
EndChar

StartChar: Dcroat
Encoding: 272 272 227
Width: 722
Flags: W
HStem: 0 63<188 434.508> 311 72<18 95 188 288> 631 63<188 430.299>
VStem: 95 93<63 311 383 631> 572 93<218.006 468.718>
CounterMasks: 1 e0
LayerCount: 2
Fore
SplineSet
359 0 m 2
 95 0 l 1
 95 311 l 1
 18 311 l 1
 18 383 l 1
 95 383 l 1
 95 694 l 1
 358 694 l 2
 448 694 522.666666667 657 582 583 c 0
 637.333333333 514.333333333 665 433.666666667 665 341 c 0
 665 250.333333333 637 171.666666667 581 105 c 0
 522.333333333 35 448.333333333 0 359 0 c 2
335 631 m 2
 188 631 l 1
 188 383 l 1
 288 383 l 1
 288 311 l 1
 188 311 l 1
 188 63 l 1
 335 63 l 2
 409 63 468 91.6666666667 512 149 c 0
 552 201 572 265 572 341 c 0
 572 419 552.333333333 485 513 539 c 0
 469.666666667 600.333333333 410.333333333 631 335 631 c 2
EndSplineSet
Validated: 1
Position2: "'cpsp' Capital Spacing lookup 0 subtable" dx=7 dy=0 dh=14 dv=0
EndChar

